<?xml version="1.0" encoding="utf-8"?>
<!-- Generator: Adobe Illustrator 16.0.0, SVG Export Plug-In . SVG Version: 6.00 Build 0)  -->
<!DOCTYPE svg PUBLIC "-//W3C//DTD SVG 1.1//EN" "http://www.w3.org/Graphics/SVG/1.1/DTD/svg11.dtd">
<svg version="1.1" id="Calque_2" xmlns="http://www.w3.org/2000/svg" xmlns:xlink="http://www.w3.org/1999/xlink" x="0px" y="0px"
	 width="36.733px" height="47.18px" viewBox="48.357 51.654 36.733 47.18" enable-background="new 48.357 51.654 36.733 47.18"
	 xml:space="preserve">
<linearGradient id="SVGID_1_" gradientUnits="userSpaceOnUse" x1="62.3379" y1="54.3877" x2="51.0321" y2="36.2946" gradientTransform="matrix(1 0 0 -1 8.3999 113.0996)">
	<stop  offset="0" style="stop-color:#FFFFFF"/>
	<stop  offset="0.1113" style="stop-color:#0D0C0C"/>
	<stop  offset="0.2346" style="stop-color:#7A7A7A"/>
	<stop  offset="0.4404" style="stop-color:#494949"/>
	<stop  offset="0.5949" style="stop-color:#626262"/>
	<stop  offset="0.717" style="stop-color:#000000"/>
	<stop  offset="0.8412" style="stop-color:#BBBBBB"/>
	<stop  offset="0.9324" style="stop-color:#363636"/>
</linearGradient>
<path fill="url(#SVGID_1_)" d="M48.701,65.016c0,0-0.881-3.646,0.177-5.881c1.059-2.235,2.882-4.411,2.882-4.411
	s1.941-2.118,3.705-2.646c1.765-0.53,3.471-0.412,3.471-0.412s1.352,0.647,2.646,1.588c1.294,0.941,5.293,4.292,5.881,4.705
	c0.588,0.412,7.058,4.177,7.058,4.177s2,1.234,3.176,1.411c1.177,0.176,5.353,3.117,5.353,3.117l0.94,0.412l-0.294,3.528
	l-5.764,11.351l-5.822,2.412c0,0-0.529,0.382-2.412-1.177c-0.707-0.585-2.97-2.706-2.97-2.706s-0.499-1.176-1.559-2.058
	c-1.059-0.883-8.704-7.352-8.704-7.352s-1.171-1.292-2.412-1.294c-0.118,0-2.235-1.706-2.235-1.706L48.701,65.016z"/>
<path fill="none" d="M54.113,50.606"/>
<path fill="#3F424B" d="M81.274,78.516c3.549-4.607,4.857-9.552,2.919-11.045c-1.938-1.494-6.386,1.028-9.937,5.634
	c-3.552,4.606-4.857,9.551-2.919,11.045C73.276,85.642,77.724,83.119,81.274,78.516z"/>
<linearGradient id="SVGID_2_" gradientUnits="userSpaceOnUse" x1="66.4639" y1="51.1553" x2="56.3695" y2="35.0009" gradientTransform="matrix(1 0 0 -1 8.3999 113.0996)">
	<stop  offset="0" style="stop-color:#FFFFFF"/>
	<stop  offset="0.1113" style="stop-color:#0D0C0C"/>
	<stop  offset="0.2346" style="stop-color:#7A7A7A"/>
	<stop  offset="0.4404" style="stop-color:#494949"/>
	<stop  offset="0.5949" style="stop-color:#626262"/>
	<stop  offset="0.717" style="stop-color:#000000"/>
	<stop  offset="0.8412" style="stop-color:#BBBBBB"/>
	<stop  offset="0.9324" style="stop-color:#363636"/>
</linearGradient>
<path opacity="0.4" fill="url(#SVGID_2_)" stroke="#000000" stroke-miterlimit="10" enable-background="new    " d="M65.201,78.367
	c0.232-1.438,1.627-4.43,3.952-8.168c2.324-3.74,8.427-6.559,8.427-6.559l-2.325-1.036c0,0-4.975,1.273-7.846,5.293
	c-2.383,3.335-4.475,8.686-4.475,8.686L65.201,78.367z"/>
<linearGradient id="SVGID_3_" gradientUnits="userSpaceOnUse" x1="53.1299" y1="59.7534" x2="43.7517" y2="44.7453" gradientTransform="matrix(1 0 0 -1 8.3999 113.0996)">
	<stop  offset="0" style="stop-color:#FFFFFF"/>
	<stop  offset="0.1113" style="stop-color:#0D0C0C"/>
	<stop  offset="0.2346" style="stop-color:#7A7A7A"/>
	<stop  offset="0.4404" style="stop-color:#494949"/>
	<stop  offset="0.5949" style="stop-color:#626262"/>
	<stop  offset="0.717" style="stop-color:#000000"/>
	<stop  offset="0.8412" style="stop-color:#BBBBBB"/>
	<stop  offset="0.9324" style="stop-color:#363636"/>
</linearGradient>
<path opacity="0.5" fill="url(#SVGID_3_)" stroke="#000000" stroke-miterlimit="10" enable-background="new    " d="M53.775,69.368
	c0,0-1.278-4.948,2.266-9.385c3.544-4.436,7.842-4.322,7.842-4.322l0.639-0.057l-2.178-1.749c0,0-2.665-0.034-5.491,1.834
	c-2.613,1.728-5.402,5.069-5.402,11.858C51.452,67.662,53.775,69.368,53.775,69.368z"/>
<path fill="#97824D" d="M62.817,76.72"/>
<linearGradient id="SVGID_4_" gradientUnits="userSpaceOnUse" x1="46.0059" y1="27.2793" x2="49.7709" y2="25.5236" gradientTransform="matrix(1 0 0 -1 8.3999 113.0996)">
	<stop  offset="0" style="stop-color:#97824D"/>
	<stop  offset="0.0797" style="stop-color:#937E4B"/>
	<stop  offset="0.1647" style="stop-color:#867344"/>
	<stop  offset="0.2522" style="stop-color:#716139"/>
	<stop  offset="0.3415" style="stop-color:#53472A"/>
	<stop  offset="0.4311" style="stop-color:#2D2617"/>
	<stop  offset="0.5185" style="stop-color:#000000"/>
	<stop  offset="0.54" style="stop-color:#1A170D"/>
	<stop  offset="0.5728" style="stop-color:#3C331E"/>
	<stop  offset="0.6094" style="stop-color:#584C2D"/>
	<stop  offset="0.65" style="stop-color:#6F6039"/>
	<stop  offset="0.6965" style="stop-color:#816F42"/>
	<stop  offset="0.7524" style="stop-color:#8E7A48"/>
	<stop  offset="0.8272" style="stop-color:#95804C"/>
	<stop  offset="1" style="stop-color:#97824D"/>
</linearGradient>
<polygon fill="url(#SVGID_4_)" points="60.052,74.015 49.407,96.54 51.348,98.834 53.113,98.422 62.817,76.367 "/>
<linearGradient id="SVGID_5_" gradientUnits="userSpaceOnUse" x1="58.939" y1="55.8105" x2="62.6624" y2="54.0743" gradientTransform="matrix(1 0 0 -1 8.3999 113.0996)">
	<stop  offset="0" style="stop-color:#97824D"/>
	<stop  offset="0.0797" style="stop-color:#937E4B"/>
	<stop  offset="0.1647" style="stop-color:#867344"/>
	<stop  offset="0.2522" style="stop-color:#716139"/>
	<stop  offset="0.3415" style="stop-color:#53472A"/>
	<stop  offset="0.4311" style="stop-color:#2D2617"/>
	<stop  offset="0.5185" style="stop-color:#000000"/>
	<stop  offset="0.54" style="stop-color:#1A170D"/>
	<stop  offset="0.5728" style="stop-color:#3C331E"/>
	<stop  offset="0.6094" style="stop-color:#584C2D"/>
	<stop  offset="0.65" style="stop-color:#6F6039"/>
	<stop  offset="0.6965" style="stop-color:#816F42"/>
	<stop  offset="0.7524" style="stop-color:#8E7A48"/>
	<stop  offset="0.8272" style="stop-color:#95804C"/>
	<stop  offset="1" style="stop-color:#97824D"/>
</linearGradient>
<polygon fill="url(#SVGID_5_)" points="70.581,59.841 71.286,58.547 69.109,57.077 67.463,57.135 67.109,57.782 "/>
</svg>
