<?xml version="1.0" encoding="utf-8"?>
<!-- Generator: Adobe Illustrator 16.0.3, SVG Export Plug-In . SVG Version: 6.00 Build 0)  -->
<!DOCTYPE svg PUBLIC "-//W3C//DTD SVG 1.1//EN" "http://www.w3.org/Graphics/SVG/1.1/DTD/svg11.dtd">
<svg version="1.1" id="Calque_1" xmlns="http://www.w3.org/2000/svg" xmlns:xlink="http://www.w3.org/1999/xlink" x="0px" y="0px"
	 width="133.333px" height="132.333px" viewBox="0 0 133.333 132.333" enable-background="new 0 0 133.333 132.333"
	 xml:space="preserve">
<g id="Calque_3">
	<circle fill="#660100" cx="67.489" cy="65.933" r="65.25"/>
</g>
<g>
	<path fill-rule="evenodd" clip-rule="evenodd" fill="#FEFEFE" d="M104.899,107.814c1.471-1.317,3.018-2.563,4.398-3.971
		c1.984-2.025,3.672-4.292,4.844-6.904c1.58-3.136,2.229-6.486,2.174-9.969c-0.045-2.802-0.602-5.528-1.494-8.184
		c-1.059-3.147-2.459-6.129-4.271-8.914c-0.443-4.285-1.176-8.519-2.355-12.667c-0.855-3.007-1.838-5.967-3.279-8.755
		c-0.23-0.451-0.464-0.902-0.695-1.354c0.645-1.307,1.318-2.6,1.924-3.924c3.26-7.126,5.631-14.561,7.631-22.121
		c0.365-1.383,0.727-2.768,1.137-4.33c-0.324,0.273-0.506,0.422-0.682,0.572c-5.414,4.595-10.814,9.208-16.252,13.776
		c-1.481,1.244-3.073,2.355-4.615,3.527c-0.12-0.091-0.235-0.189-0.36-0.274c-5.33-3.603-11.293-5.482-17.623-6.088
		c-3.739-0.358-7.523-0.271-11.288-0.314c-4.621-0.054-9.147,0.626-13.564,1.987c-3.468,1.068-6.742,2.545-9.686,4.697
		c-1.083-0.805-2.208-1.559-3.242-2.423c-5.247-4.386-10.473-8.799-15.7-13.208c-0.822-0.693-1.617-1.418-2.493-2.189
		c0.011,0.198,0.002,0.287,0.021,0.368c1.768,7.348,3.85,14.603,6.722,21.602c1.162,2.833,2.569,5.565,3.865,8.343
		c-0.246,0.458-0.492,0.917-0.737,1.375c-0.732,1.777-1.464,3.555-2.196,5.331c-0.065,0.159-0.14,0.317-0.195,0.479
		c-1.704,5.065-2.733,10.269-3.201,15.588c-1.204,2.324-2.539,4.594-3.566,6.995c-0.751,1.754-1.096,3.684-1.622,5.534
		c-0.813,3.491-0.824,6.981,0.083,10.452c1.664,6.361,5.707,11.027,10.755,14.962c0.24,2.334,0.694,4.609,2.02,6.605
		c1.229,1.852,2.864,3.189,5.035,3.807c0.645,0,1.289,0,1.871,0c-0.641-5.866-1.275-11.666-1.91-17.466
		c0.086,0,0.174-0.007,0.261,0.002c7.055,0.646,14.125,0.803,21.206,0.703c0.709-0.01,1.271-0.231,1.697-0.792
		c0.263-0.346,0.562-0.675,0.768-1.053c0.996-1.83,1.973-3.671,2.942-5.517c0.692-1.317,1.476-2.569,2.615-3.547
		c0.806-0.691,1.743-0.685,2.553,0.003c0.395,0.336,0.804,0.704,1.062,1.142c0.968,1.643,1.858,3.33,2.815,4.979
		c0.773,1.332,1.583,2.644,2.414,3.941c0.327,0.51,0.826,0.839,1.472,0.833c4.507-0.049,9.016-0.045,13.521-0.168
		c2.739-0.075,5.471-0.345,8.207-0.527c-0.661,5.808-1.322,11.616-1.987,17.461c0.655,0,1.281,0,1.909,0
		c2.143-0.596,3.754-1.912,4.984-3.724C104.162,112.484,104.636,110.181,104.899,107.814z"/>
	<path fill-rule="evenodd" clip-rule="evenodd" fill="#010133" d="M97.886,100.76c-2.736,0.183-5.468,0.452-8.207,0.527
		c-4.505,0.123-9.014,0.119-13.521,0.168c-0.646,0.006-1.145-0.323-1.472-0.833c-0.831-1.298-1.641-2.609-2.414-3.941
		c-0.957-1.649-1.847-3.337-2.815-4.979c-0.258-0.438-0.667-0.806-1.062-1.142c-0.811-0.688-1.748-0.694-2.553-0.003
		c-1.139,0.978-1.922,2.229-2.615,3.547c-0.97,1.846-1.947,3.687-2.942,5.517c-0.206,0.378-0.504,0.707-0.768,1.053
		c-0.426,0.561-0.988,0.782-1.697,0.792c-7.08,0.1-14.151-0.057-21.206-0.703c-0.086-0.009-0.174-0.002-0.261-0.002
		c-0.149-1.429-0.314-2.856-0.443-4.287c-0.341-3.794-0.69-7.587-0.991-11.385c-0.224-2.82-0.379-5.646-0.564-8.469
		c1.052,0.312,2.092,0.672,3.159,0.921c2.722,0.636,5.448,1.254,8.187,1.813c1.771,0.363,3.561,0.639,5.35,0.898
		c1.538,0.225,3.084,0.386,4.63,0.545c1.184,0.122,2.374,0.196,3.561,0.286c2.201,0.17,4.401,0.423,6.604,0.478
		c1.86,0.047,3.727-0.115,5.588-0.225c1.708-0.102,3.418-0.206,5.118-0.397c3.135-0.354,6.282-0.667,9.39-1.197
		c3.497-0.597,6.96-1.398,10.428-2.149c1.168-0.253,2.309-0.624,3.485-0.948c-0.04,0.84-0.057,1.616-0.116,2.39
		c-0.15,1.962-0.326,3.922-0.48,5.885c-0.108,1.383-0.174,2.769-0.298,4.149c-0.188,2.108-0.421,4.214-0.616,6.324
		C98.179,97.178,98.037,98.969,97.886,100.76z M92.793,83.254c-0.128,0.024-0.259,0.033-0.382,0.074
		c-4.638,1.53-9.275,3.065-13.912,4.598c-1.961,0.648-3.922,1.296-6.014,1.987c3.306,1.696,6.485,3.329,9.682,4.972
		c2.476-2.669,4.922-5.294,7.355-7.932c1.117-1.208,2.21-2.44,3.314-3.663c0.029-0.028,0.057-0.057,0.085-0.086
		C92.879,83.221,92.837,83.238,92.793,83.254z M41.361,83.196c-0.02,0.045-0.041,0.092-0.061,0.137
		c0.146,0.153,0.293,0.303,0.437,0.457c3.274,3.53,6.548,7.061,9.823,10.591c0.262,0.282,0.448,0.56,0.959,0.287
		c2.377-1.269,4.787-2.478,7.183-3.713c0.64-0.329,1.273-0.672,1.993-1.053C54.835,87.639,48.098,85.417,41.361,83.196z"/>
	<path fill-rule="evenodd" clip-rule="evenodd" fill="#990100" d="M40.842,34.605c2.944-2.152,6.218-3.628,9.686-4.697
		c4.417-1.361,8.943-2.041,13.564-1.987c3.765,0.043,7.549-0.044,11.288,0.314c6.33,0.606,12.292,2.486,17.623,6.088
		c0.125,0.085,0.24,0.183,0.36,0.274c-0.859,0.627-1.68,1.319-2.586,1.869c-2.358,1.429-4.733,2.833-7.145,4.171
		c-1.175,0.652-2.487,0.969-3.828,0.899c0.148,1.117,0.343,2.145,0.409,3.182c0.111,1.73-0.083,3.433-1.331,4.765
		c-1.468,1.568-3.217,2.785-5.146,3.736c0.26-1.213,1.158-1.816,2.244-2.238c-0.259-0.628-0.417-1.248-1.227-1.207
		c0.623-0.525,0.538-1.207,0.322-1.851c-0.353-1.05-1.497-1.319-2.391-0.674c-1.531,1.105-3.058,2.225-4.66,3.221
		c-1.283,0.799-2.621,1.54-4.224,1.561c-0.608,0.008-1.014,0.572-1.087,1.277c-0.033,0.318-0.077,0.635-0.116,0.953
		c-0.042-0.016-0.084-0.017-0.128-0.005c-1.857-1.12-3.742-2.198-5.563-3.374c-2.429-1.566-3.193-3.898-2.845-6.671
		c0.11-0.879,0.251-1.754,0.364-2.533C49.065,40.898,45.039,37.585,40.842,34.605z"/>
	<path fill-rule="evenodd" clip-rule="evenodd" fill="#980000" d="M104.915,48.451c1.441,2.788,2.424,5.748,3.279,8.755
		c1.18,4.148,1.912,8.382,2.355,12.667c-0.354,0.521-0.764,1.009-1.051,1.563c-1.738,3.346-2.418,6.99-2.943,10.675
		c-0.023,0.035-0.064,0.07-0.068,0.108c-0.363,3.076-0.787,6.147-1.061,9.23c-0.232,2.594-0.291,5.201-0.426,7.802
		c-0.538-0.286-1.064-0.592-1.612-0.854c-1.15-0.556-2.312-1.088-3.468-1.63c0.125-1.204,0.258-2.406,0.375-3.61
		c0.143-1.465,0.266-2.93,0.412-4.393c0.16-1.613,0.334-3.226,0.506-4.837c0.156-1.462,0.34-2.922,0.469-4.387
		c0.102-1.134,0.354-2.276-0.083-3.407c-0.296-0.765-0.915-1.11-1.702-0.89c-0.459,0.127-0.91,0.278-1.367,0.411
		c-4.44,1.294-8.956,2.265-13.532,2.89c-3.752,0.513-7.527,0.873-11.302,1.183c-2.119,0.175-4.257,0.111-6.387,0.154
		c1.037-0.88,2.119-1.723,2.464-3.234c2.726,1.691,5.522,2.449,8.701,1.623c-0.801-0.509-1.538-0.883-2.16-1.396
		c-0.632-0.521-1.151-1.179-1.719-1.777c0.036-0.061,0.072-0.122,0.108-0.184c3.521,0.17,6.498-0.989,8.929-3.576
		c-2.422-0.093-4.896,0.178-7.074-1.49c0.314-0.159,0.536-0.286,0.769-0.387c4.718-2.049,9.205-4.454,12.796-8.254
		c0.171-0.182,0.417-0.321,0.654-0.403c0.737-0.255,1.5-0.441,2.231-0.711c4.591-1.691,8.085-4.675,10.465-8.952
		C103.968,50.25,104.435,49.347,104.915,48.451z"/>
	<path fill-rule="evenodd" clip-rule="evenodd" fill="#660100" d="M36.392,118.226c-2.171-0.617-3.806-1.955-5.035-3.807
		c-1.326-1.996-1.78-4.271-2.021-6.605c-0.028-1.235-0.057-2.472-0.086-3.708c-0.059-2.541-0.118-5.082-0.176-7.622
		c-0.295-3.599-0.546-7.2-0.899-10.794c-0.366-3.726-0.967-7.417-2.109-10.997c-0.55-1.722-1.192-3.409-2.379-4.822
		c0.467-5.319,1.497-10.522,3.201-15.588c0.055-0.162,0.13-0.32,0.195-0.479c0.525,0.897,1.065,1.786,1.574,2.692
		c2.305,4.102,5.232,7.731,8.514,11.073c1.167,1.189,2.486,2.233,3.781,3.289c3.618,2.948,7.644,5.212,11.969,6.942
		c1.507,0.604,3.049,1.119,4.575,1.675c-0.821-0.042-1.646-0.049-2.461-0.137c-1.327-0.142-2.65-0.324-3.972-0.512
		c-1.856-0.263-3.732-0.441-5.559-0.845c-3.667-0.809-7.301-1.76-10.958-2.611c-0.485-0.112-1.067-0.301-1.52,0.184
		c-0.8,0.841-0.664,1.886-0.586,2.893c0.12,1.563,0.306,3.121,0.46,4.681c0.368,3.705,0.73,7.41,1.1,11.114
		c0.413,4.139,0.836,8.276,1.249,12.413C35.634,110.512,36.011,114.369,36.392,118.226z"/>
	<path fill-rule="evenodd" clip-rule="evenodd" fill="#FDCA01" d="M73.735,53.22c1.929-0.951,3.679-2.168,5.146-3.736
		c1.248-1.333,1.442-3.035,1.331-4.765c-0.066-1.037-0.261-2.065-0.409-3.182c1.341,0.07,2.653-0.247,3.828-0.899
		c2.412-1.337,4.787-2.742,7.145-4.171c0.907-0.55,1.727-1.242,2.586-1.869c1.542-1.172,3.134-2.284,4.615-3.527
		c5.438-4.569,10.838-9.181,16.252-13.776c0.176-0.15,0.357-0.299,0.682-0.572c-0.41,1.563-0.771,2.947-1.137,4.33
		c-2,7.561-4.371,14.995-7.631,22.121c-0.605,1.324-1.279,2.617-1.924,3.924c-1.354,1.994-2.623,4.056-4.088,5.965
		c-1.999,2.605-4.43,4.74-7.568,5.914c-0.657,0.246-1.379,0.324-2.072,0.479c0.028-0.031,0.05-0.078,0.084-0.091
		c3.628-1.285,6.341-3.737,8.577-6.777c2.354-3.201,4.033-6.76,5.45-10.45c0.44-1.149,0.821-2.319,1.241-3.513
		c-0.186-0.042-0.268-0.075-0.35-0.075c-2.506-0.003-5.012-0.014-7.518,0.018c-0.184,0.002-0.45,0.279-0.529,0.485
		c-0.379,0.995-0.673,2.022-1.063,3.012c-2.126,5.402-5.554,9.715-10.616,12.663c-0.516,0.301-0.997,0.7-1.409,1.136
		c-1.733,1.825-3.593,3.49-5.754,4.796c-1.623,0.979-3.286,1.876-5.143,2.347c-0.234-0.944-0.485-1.885-0.689-2.836
		c-0.046-0.217,0.006-0.51,0.124-0.697c0.333-0.531,0.723-1.025,1.09-1.533c1.896-1.38,3.903-2.633,5.664-4.166
		c2.671-2.324,4.751-5.105,5.252-8.762c0.079-0.578,0.376-0.78,0.807-1.028c3.259-1.881,6.559-3.701,9.74-5.707
		c3.652-2.304,6.955-5.083,10.125-8.011c0.777-0.72,1.477-1.526,2.211-2.294c0.039-0.05,0.076-0.099,0.115-0.149
		c0.078-0.051,0.156-0.102,0.236-0.154c0.043-0.044,0.088-0.088,0.131-0.133c0.016-0.008,0.033-0.013,0.047-0.023
		c0.006-0.006,0.004-0.021,0.006-0.032c-0.014,0.021-0.029,0.042-0.045,0.064c-0.043,0.044-0.088,0.088-0.131,0.132
		c-0.092,0.04-0.182,0.08-0.273,0.119c-0.049,0.039-0.096,0.077-0.145,0.116c-0.227,0.162-0.461,0.317-0.682,0.486
		c-7.518,5.784-15.471,10.894-23.852,15.335c-0.342,0.181-0.403,0.402-0.459,0.756c-0.174,1.087-0.279,2.221-0.675,3.233
		c-1.494,3.828-4.495,6.256-7.943,8.226c-0.309-0.551-0.613-1.104-0.928-1.652c-0.114-0.197-0.25-0.381-0.376-0.57
		C73.122,53.557,73.429,53.388,73.735,53.22z"/>
	<path fill-rule="evenodd" clip-rule="evenodd" fill="#FEFD01" d="M40.842,34.605c4.197,2.98,8.223,6.293,13.583,7.073
		c-0.113,0.779-0.254,1.654-0.364,2.533c-0.348,2.773,0.417,5.105,2.845,6.671c1.822,1.176,3.707,2.254,5.563,3.374
		c-0.2,0.137-0.4,0.272-0.601,0.408c-0.633,0.432-1.266,0.864-1.899,1.296c-2.177-1.264-4.156-2.775-5.77-4.723
		c-1.656-1.998-2.661-4.259-2.737-6.894c-0.005-0.198-0.208-0.465-0.394-0.569c-1.704-0.964-3.431-1.887-5.138-2.847
		c-5.636-3.172-11.024-6.725-16.201-10.601c-1.076-0.805-2.153-1.608-3.229-2.413c-0.025-0.021-0.051-0.043-0.077-0.065
		c0.01,0.037,0.02,0.076,0.03,0.113c0.14,0.189,0.255,0.403,0.424,0.561c1.768,1.645,3.463,3.384,5.341,4.895
		c2.386,1.92,4.838,3.787,7.416,5.434c2.985,1.907,6.141,3.547,9.212,5.32c0.187,0.108,0.375,0.365,0.402,0.573
		c0.399,3.08,1.832,5.633,3.935,7.855c1.778,1.881,3.846,3.396,6.019,4.779c-0.182,0.573-0.383,1.141-0.536,1.722
		c-0.052,0.197,0.013,0.427,0.025,0.642c-0.053,0.082-0.106,0.164-0.159,0.246c-0.033,0.056-0.067,0.111-0.1,0.167
		c0.164,0.031,0.333,0.108,0.49,0.086c1.047-0.15,2.091-0.322,3.137-0.487c-0.246,0.987-0.498,1.973-0.736,2.962
		c-0.096,0.398-0.299,0.473-0.667,0.313c-1.016-0.442-2.066-0.814-3.06-1.304c-3.062-1.508-5.7-3.577-7.97-6.124
		c-0.241-0.271-0.557-0.478-0.854-0.692c-1.495-1.081-3.102-2.035-4.474-3.254c-3.805-3.379-6.109-7.703-7.481-12.555
		c-0.123-0.435-0.313-0.574-0.768-0.569c-2.332,0.025-4.664,0.011-6.996,0.013c-0.187,0-0.374,0.026-0.589,0.041
		c0.014,0.14,0.007,0.227,0.032,0.305c1.221,3.895,2.754,7.66,4.826,11.183c1.554,2.644,3.442,5.018,5.896,6.909
		c1.498,1.155,3.163,1.971,4.926,2.612c-1.239-0.375-2.546-0.605-3.702-1.155c-3.144-1.493-5.476-3.961-7.47-6.745
		c-1.06-1.479-1.977-3.061-2.958-4.596c-1.296-2.777-2.703-5.51-3.865-8.343c-2.872-6.999-4.955-14.253-6.722-21.602
		c-0.02-0.081-0.011-0.17-0.021-0.368c0.876,0.771,1.671,1.496,2.493,2.189c5.228,4.41,10.453,8.822,15.7,13.208
		C38.634,33.046,39.759,33.8,40.842,34.605z M26.089,27.674c-0.016-0.022-0.033-0.045-0.049-0.067
		c0.002,0.013-0.001,0.032,0.006,0.038c0.014,0.012,0.033,0.017,0.049,0.025c0.009,0.017,0.014,0.037,0.026,0.05
		c0.007,0.007,0.026,0.003,0.039,0.005C26.137,27.708,26.113,27.691,26.089,27.674z"/>
	<path fill-rule="evenodd" clip-rule="evenodd" fill="#980000" d="M57.496,79.475c-1.526-0.556-3.068-1.071-4.575-1.675
		c-4.325-1.73-8.351-3.994-11.969-6.942c-1.295-1.056-2.614-2.1-3.781-3.289c-3.282-3.342-6.209-6.972-8.514-11.073
		c-0.509-0.906-1.049-1.795-1.574-2.692c0.732-1.776,1.464-3.554,2.196-5.331c0.076,0.127,0.173,0.246,0.226,0.383
		c0.873,2.273,2.083,4.346,3.715,6.157c2.63,2.919,5.914,4.825,9.598,6.068c1.092,0.368,1.972,0.867,2.757,1.782
		c2.574,3.004,5.878,4.999,9.551,6.395c1.171,0.445,2.371,0.814,3.558,1.219c-1.009,0.431-2.018,0.862-3.026,1.295
		c-0.837,0.087-1.674,0.173-2.654,0.274c0.375,0.282,0.611,0.462,0.847,0.641c-0.167,0.024-0.333,0.051-0.646,0.1
		c1.036,0.829,2.027,1.354,3.136,1.617c1.099,0.262,2.213,0.454,3.337,0.681c-0.77,1.259-2.03,1.979-3.363,2.767
		c3.136,0.845,5.8-0.026,8.324-1.774c0.523,1.492,1.396,2.695,2.413,3.807c-1.127-0.04-2.254-0.073-3.381-0.123
		C61.611,79.669,59.553,79.571,57.496,79.475z"/>
	<path fill-rule="evenodd" clip-rule="evenodd" fill="#FECB01" d="M106.556,82.11c0.525-3.685,1.205-7.329,2.943-10.675
		c0.287-0.554,0.697-1.042,1.051-1.563c1.813,2.785,3.213,5.767,4.271,8.914c0.893,2.655,1.449,5.382,1.494,8.184
		c0.055,3.482-0.594,6.833-2.174,9.969c-1.508-0.171-2.771-0.861-3.852-1.889c-1.566-1.493-2.379-3.409-2.918-5.451
		C106.726,87.147,106.579,84.634,106.556,82.11z"/>
	<path fill-rule="evenodd" clip-rule="evenodd" fill="#FDCA00" d="M23.687,69.871c1.187,1.413,1.83,3.101,2.379,4.822
		c1.143,3.58,1.743,7.271,2.109,10.997c0.353,3.594,0.604,7.195,0.899,10.794c-0.216,0.003-0.441,0.046-0.648,0.005
		c-2.019-0.414-3.768-1.357-5.199-2.829c-1.851-1.902-2.951-4.243-3.671-6.761c-0.423-1.479-0.709-2.998-1.058-4.499
		c0.526-1.851,0.871-3.78,1.622-5.534C21.148,74.464,22.483,72.195,23.687,69.871z"/>
	<path fill-rule="evenodd" clip-rule="evenodd" fill="#986500" d="M57.496,79.475c2.057,0.096,4.115,0.194,6.172,0.284
		c1.126,0.05,2.254,0.083,3.381,0.123c0.086,0,0.173,0,0.26-0.002c2.13-0.043,4.268,0.021,6.387-0.154
		c3.775-0.31,7.55-0.67,11.302-1.183c4.576-0.625,9.091-1.596,13.532-2.89c0.457-0.133,0.908-0.284,1.367-0.411
		c0.787-0.221,1.406,0.125,1.702,0.89c0.438,1.131,0.185,2.273,0.083,3.407c-0.129,1.465-0.313,2.925-0.469,4.387
		c-0.172,1.611-0.346,3.224-0.506,4.837c-0.146,1.463-0.27,2.928-0.412,4.393c-0.117,1.204-0.25,2.406-0.375,3.61
		c-0.011,0.261-0.009,0.522-0.033,0.781c-0.168,1.696-0.344,3.393-0.515,5.088c-0.099,0.967-0.188,1.935-0.288,2.9
		c-0.162,1.566-0.336,3.131-0.493,4.697c-0.106,1.053-0.189,2.108-0.294,3.161c-0.158,1.609-0.326,3.219-0.49,4.827
		c-0.627,0-1.253,0-1.909,0c0.665-5.845,1.326-11.653,1.987-17.461c0.151-1.791,0.293-3.582,0.459-5.369
		c0.195-2.11,0.428-4.216,0.616-6.324c0.124-1.381,0.189-2.767,0.298-4.149c0.154-1.963,0.33-3.923,0.48-5.885
		c0.06-0.773,0.076-1.55,0.116-2.39c-1.177,0.324-2.317,0.695-3.485,0.948c-3.468,0.751-6.931,1.553-10.428,2.149
		c-3.107,0.53-6.254,0.843-9.39,1.197c-1.699,0.191-3.41,0.296-5.118,0.397c-1.861,0.109-3.728,0.271-5.588,0.225
		c-2.204-0.055-4.403-0.308-6.604-0.478c-1.188-0.09-2.377-0.164-3.561-0.286c-1.546-0.159-3.092-0.32-4.63-0.545
		c-1.789-0.26-3.58-0.535-5.35-0.898c-2.738-0.559-5.464-1.177-8.187-1.813c-1.066-0.249-2.106-0.609-3.159-0.921
		c-0.443-0.355-0.886-0.71-1.33-1.065c0.453-0.484,1.035-0.296,1.52-0.184c3.658,0.852,7.292,1.803,10.958,2.611
		c1.826,0.403,3.703,0.582,5.559,0.845c1.321,0.188,2.645,0.37,3.972,0.512C55.851,79.426,56.675,79.433,57.496,79.475z"/>
	<path fill-rule="evenodd" clip-rule="evenodd" fill="#670200" d="M67.31,79.88c-0.087,0.002-0.174,0.002-0.26,0.002
		c-1.017-1.111-1.89-2.314-2.413-3.807c-2.524,1.748-5.188,2.619-8.324,1.774c1.333-0.788,2.593-1.508,3.363-2.767
		c-1.124-0.227-2.238-0.419-3.337-0.681c-1.109-0.263-2.101-0.788-3.136-1.617c0.314-0.049,0.48-0.075,0.646-0.1
		C54.632,73,55.4,73.368,56.204,73.62c1.626,0.515,3.297,0.475,4.972,0.274c0.168-0.02,0.351,0.075,0.527,0.117
		c-0.139,0.194-0.27,0.396-0.418,0.582c-0.466,0.588-0.938,1.17-1.408,1.754c-0.432,0.339-0.864,0.677-1.295,1.016
		c0.032,0.057,0.064,0.113,0.096,0.17c1.368-0.043,2.698-0.31,3.895-1.005c1.06-0.616,1.992-1.401,2.408-2.632l0.017-0.014
		c0.078,0.129,0.184,0.248,0.228,0.387c0.37,1.172,0.688,2.362,1.114,3.515c0.132,0.357,0.548,0.61,0.834,0.911
		c0.267-0.383,0.534-0.767,0.801-1.148c0.754-1.109,0.891-2.395,1.05-3.675c0.268,0.36,0.52,0.732,0.805,1.079
		c1.217,1.482,2.771,2.317,4.702,2.414c0.344,0.01,0.689,0.019,1.034,0.028c0.013,0.021,0.026,0.041,0.039,0.063
		c-0.001-0.012,0.001-0.027-0.005-0.032c-0.012-0.01-0.029-0.015-0.045-0.021c-0.158-0.171-0.32-0.339-0.475-0.514
		c-0.88-1.003-1.758-2.004-2.637-3.007c0.237,0,0.479-0.026,0.712,0.006c2.184,0.291,4.317,0.145,6.335-0.807
		c0.506-0.238,0.942-0.625,1.411-0.943c-0.206-0.036-0.41-0.086-0.617-0.104c-2.173-0.189-4.144-0.856-5.802-2.343
		c-0.509-0.456-0.768-0.911-0.478-1.573c0.471-0.066,0.945-0.116,1.413-0.202c4.251-0.799,7.866-2.865,11.202-5.539
		c1.259-1.01,2.174-2.494,3.875-2.921c0.692-0.155,1.415-0.233,2.072-0.479c3.138-1.174,5.569-3.309,7.568-5.914
		c1.465-1.909,2.733-3.971,4.088-5.965c0.231,0.452,0.465,0.902,0.695,1.354c-0.48,0.896-0.947,1.799-1.44,2.688
		c-2.38,4.277-5.874,7.261-10.465,8.952c-0.732,0.27-1.494,0.456-2.231,0.711c-0.237,0.082-0.483,0.222-0.654,0.403
		c-3.591,3.8-8.078,6.205-12.796,8.254c-0.233,0.101-0.455,0.228-0.769,0.387c2.179,1.668,4.652,1.397,7.074,1.49
		c-2.431,2.587-5.408,3.746-8.929,3.576c-0.036,0.062-0.072,0.123-0.108,0.184c0.568,0.599,1.087,1.257,1.719,1.777
		c0.622,0.514,1.359,0.888,2.16,1.396c-3.179,0.826-5.976,0.068-8.701-1.623C69.428,78.158,68.347,79,67.31,79.88z"/>
	<path fill-rule="evenodd" clip-rule="evenodd" fill="#660101" d="M97.808,118.221c0.164-1.608,0.332-3.218,0.49-4.827
		c0.104-1.053,0.188-2.108,0.294-3.161c0.157-1.566,0.331-3.131,0.493-4.697c0.1-0.966,0.189-1.934,0.288-2.9
		c0.171-1.695,0.347-3.392,0.515-5.088c0.024-0.259,0.022-0.521,0.033-0.781c1.156,0.542,2.317,1.074,3.468,1.63
		c0.548,0.263,1.074,0.568,1.612,0.854c0,0.194,0.006,0.391,0.004,0.585c-0.035,2.659-0.07,5.319-0.105,7.979
		c-0.264,2.367-0.737,4.67-2.107,6.684C101.562,116.309,99.95,117.625,97.808,118.221z"/>
	<path fill-rule="evenodd" clip-rule="evenodd" fill="#996702" d="M18.499,82.4c0.348,1.501,0.635,3.02,1.058,4.499
		c0.72,2.518,1.82,4.858,3.671,6.761c1.432,1.472,3.181,2.415,5.199,2.829c0.207,0.041,0.432-0.002,0.648-0.005
		c0.059,2.54,0.117,5.081,0.176,7.622c0.029,1.236,0.058,2.473,0.086,3.708c-5.048-3.935-9.091-8.601-10.755-14.962
		C17.674,89.381,17.686,85.891,18.499,82.4z"/>
	<path fill-rule="evenodd" clip-rule="evenodd" fill="#996601" d="M104.899,107.814c0.035-2.659,0.07-5.319,0.105-7.979
		c0.002-0.194-0.004-0.391-0.004-0.585c0.135-2.601,0.193-5.208,0.426-7.802c0.273-3.083,0.697-6.154,1.061-9.23
		c0.004-0.038,0.045-0.073,0.068-0.108c0.023,2.524,0.17,5.037,0.816,7.489c0.539,2.042,1.352,3.958,2.918,5.451
		c1.08,1.027,2.344,1.718,3.852,1.889c-1.172,2.612-2.859,4.879-4.844,6.904C107.917,105.251,106.37,106.497,104.899,107.814z"/>
	<path fill-rule="evenodd" clip-rule="evenodd" fill="#FCC902" d="M33.026,75.554c0.443,0.355,0.886,0.71,1.33,1.065
		c0.185,2.823,0.34,5.648,0.564,8.469c0.301,3.798,0.649,7.591,0.991,11.385c0.129,1.431,0.294,2.858,0.443,4.287
		c0.634,5.8,1.269,11.6,1.91,17.466c-0.582,0-1.227,0-1.871,0c-0.381-3.857-0.758-7.714-1.144-11.571
		c-0.413-4.137-0.836-8.274-1.249-12.413c-0.37-3.704-0.732-7.409-1.1-11.114c-0.154-1.56-0.34-3.117-0.46-4.681
		C32.362,77.44,32.226,76.395,33.026,75.554z"/>
	<path fill-rule="evenodd" clip-rule="evenodd" fill="#670200" d="M58.682,70.476c-1.187-0.404-2.386-0.773-3.558-1.219
		c-3.673-1.396-6.977-3.391-9.551-6.395c-0.785-0.915-1.665-1.414-2.757-1.782c-3.684-1.243-6.968-3.149-9.598-6.068
		c-1.633-1.812-2.842-3.884-3.715-6.157c-0.053-0.137-0.149-0.256-0.226-0.383c0.246-0.458,0.492-0.917,0.737-1.375
		c0.981,1.535,1.897,3.117,2.958,4.596c1.995,2.784,4.326,5.252,7.47,6.745c1.156,0.55,2.463,0.78,3.702,1.155
		c0.393,0.242,0.845,0.421,1.169,0.733c2.431,2.341,5.076,4.373,8.14,5.826c2.157,1.024,4.402,1.74,6.792,1.958
		c-0.001,0.347-0.001,0.69-0.003,1.036C59.723,69.589,59.203,70.032,58.682,70.476z"/>
	<path fill-rule="evenodd" clip-rule="evenodd" fill="#FCFCFC" d="M41.361,83.196c6.737,2.222,13.475,4.443,20.334,6.706
		c-0.72,0.381-1.354,0.724-1.993,1.053c-2.396,1.235-4.805,2.444-7.183,3.713c-0.512,0.272-0.697-0.005-0.959-0.287
		c-3.274-3.53-6.548-7.061-9.823-10.591c-0.144-0.154-0.292-0.304-0.437-0.457C41.32,83.288,41.341,83.241,41.361,83.196z"/>
	<path fill-rule="evenodd" clip-rule="evenodd" fill="#FCFCFC" d="M92.836,83.291c-1.104,1.223-2.197,2.455-3.314,3.663
		c-2.434,2.638-4.88,5.263-7.355,7.932c-3.197-1.643-6.376-3.275-9.682-4.972c2.092-0.691,4.053-1.339,6.014-1.987
		c4.637-1.532,9.274-3.067,13.912-4.598c0.123-0.041,0.254-0.05,0.382-0.074L92.836,83.291z"/>
	<path fill-rule="evenodd" clip-rule="evenodd" fill="#FCFCFC" d="M92.793,83.254c0.043-0.017,0.086-0.033,0.128-0.05
		c-0.028,0.029-0.056,0.058-0.085,0.086L92.793,83.254z"/>
	<path fill-rule="evenodd" clip-rule="evenodd" fill="#CC9900" d="M60.247,68.111c-2.39-0.218-4.635-0.934-6.792-1.958
		c-3.063-1.453-5.709-3.485-8.14-5.826c-0.324-0.313-0.777-0.491-1.169-0.733c-1.764-0.642-3.429-1.457-4.926-2.612
		c-2.454-1.892-4.342-4.266-5.896-6.909c-2.072-3.523-3.605-7.288-4.826-11.183c-0.024-0.078-0.018-0.166-0.032-0.305
		c0.216-0.015,0.403-0.041,0.589-0.041c2.332-0.002,4.665,0.012,6.996-0.013c0.455-0.005,0.645,0.135,0.768,0.569
		c1.372,4.852,3.676,9.175,7.481,12.555c1.372,1.219,2.979,2.173,4.474,3.254c0.297,0.215,0.613,0.422,0.854,0.692
		c2.271,2.547,4.908,4.616,7.97,6.124c0.993,0.489,2.043,0.861,3.06,1.304c0.368,0.16,0.57,0.086,0.667-0.313
		c0.238-0.989,0.49-1.975,0.736-2.963c0.426,0.024,0.854,0.083,1.278,0.059c0.225-0.013,0.559-0.105,0.644-0.267
		c0.485-0.928,0.837-1.895,0.324-2.942c-0.195-1.054-0.934-1.711-1.708-2.341c0.039-0.318,0.083-0.635,0.116-0.953
		c0.073-0.705,0.479-1.27,1.087-1.277c1.604-0.021,2.941-0.762,4.224-1.561c1.602-0.996,3.128-2.115,4.66-3.221
		c0.895-0.645,2.039-0.376,2.391,0.674c0.216,0.644,0.301,1.326-0.322,1.851c-0.555,0.576-1.148,1.122-1.65,1.74
		c-0.348,0.428-0.624,0.938-0.829,1.451c-0.166,0.416-0.03,0.783,0.541,0.76c0.126,0.189,0.263,0.373,0.376,0.57
		c0.315,0.548,0.619,1.102,0.928,1.652c-0.043,0.663-0.087,1.326-0.13,1.99c-0.368,0.508-0.757,1.002-1.09,1.533
		c-0.117,0.188-0.17,0.48-0.124,0.697c0.204,0.951,0.455,1.892,0.689,2.836c-0.091,0.039-0.183,0.079-0.273,0.118
		c-0.04-0.066-0.079-0.133-0.118-0.2c-0.355-0.306-0.74-0.583-1.06-0.922c-0.613-0.648-1.19-1.331-1.818-2.04
		c0,0.539,0,1.053,0,1.566c-0.387,1.152-0.979,2.167-1.962,2.918c-0.082-0.099-0.146-0.224-0.248-0.292
		c-1.318-0.878-2.332-2.039-3.16-3.374c-0.061-0.11-0.121-0.222-0.207-0.379c-0.125,0.151-0.218,0.266-0.312,0.38
		c-0.177,0.214-0.354,0.429-0.53,0.644c-0.395,0.394-0.789,0.789-1.184,1.183c-0.215,0.176-0.43,0.35-0.646,0.524
		c-0.29,0.226-0.578,0.452-0.867,0.677c0.024,0.044,0.047,0.088,0.071,0.132c0.266-0.1,0.532-0.198,0.798-0.297
		c0.095-0.03,0.19-0.06,0.476-0.148C61.078,64.875,60.246,66.309,60.247,68.111z M64.958,55.545
		c0.357,0.269,0.719,0.529,1.071,0.805c1.15,0.9,2.653,0.041,2.986-1.459c0.262-0.785,0.523-1.571,0.785-2.356
		c0.85-0.74,1.748-1.436,2.529-2.243c0.4-0.412,0.59-1.026,0.875-1.55c0.016-0.006,0.034-0.01,0.046-0.021
		c0.008-0.007,0.007-0.023,0.01-0.036c-0.02,0.018-0.04,0.036-0.059,0.054c-0.182,0.117-0.371,0.224-0.543,0.354
		c-1.646,1.242-3.26,2.53-4.942,3.722c-1.074,0.761-2.248,1.38-3.493,2.132c0.288,0.183,0.509,0.322,0.729,0.462
		C64.955,55.455,64.957,55.5,64.958,55.545z M38.906,47.434c-0.088-0.177-0.125-0.281-0.185-0.37
		c-1.239-1.855-2.166-3.854-2.828-5.986c-0.375-1.205-0.104-0.954-1.299-0.976c-0.827-0.014-1.655-0.002-2.482-0.002
		c-0.708,0-1.416,0-2.203,0c1.028,3.488,2.679,6.525,4.828,9.332C36.152,48.753,37.5,48.107,38.906,47.434z M43.253,52.736
		c-1.289-1.419-2.518-2.773-3.823-4.212c-1.431,0.771-3.006,1.62-4.62,2.489c1.117,1.76,2.401,3.209,4.056,4.305
		c0.156,0.103,0.481,0.146,0.618,0.055C40.777,54.498,42.045,53.587,43.253,52.736z M40.09,56.011
		c0.938,0.763,1.785,1.487,2.67,2.164c0.946,0.723,1.922,0.943,2.872-0.024c0.044-0.045,0.114-0.063,0.169-0.098
		c0.793-0.496,1.586-0.994,2.268-1.422c-1.312-0.991-2.577-1.959-3.863-2.898c-0.128-0.095-0.431-0.091-0.572-0.003
		C42.498,54.437,41.381,55.174,40.09,56.011z M48.789,57.265c-0.726,0.602-1.517,1.275-2.33,1.922
		c-0.394,0.313-0.376,0.613-0.033,0.907c0.593,0.509,1.177,1.036,1.822,1.473c0.903,0.611,0.921,0.574,1.693-0.22
		c0.556-0.572,1.121-1.134,1.621-1.638C50.628,58.887,49.759,58.121,48.789,57.265z M55.189,62.252
		c-0.979-0.593-1.899-1.148-2.884-1.743c-0.737,0.797-1.483,1.604-2.259,2.442c0.933,0.879,2.004,1.431,3.147,1.852
		c0.118,0.044,0.372-0.043,0.444-0.149C54.168,63.869,54.669,63.064,55.189,62.252z M54.565,65.255
		c1.077,0.811,2.219,1.291,3.466,1.53c0.128,0.025,0.359-0.024,0.409-0.114c0.458-0.823,0.886-1.662,1.356-2.562
		c-1.076-0.344-2.039-0.67-3.016-0.948c-0.165-0.048-0.453,0.05-0.575,0.182C55.652,63.944,55.136,64.581,54.565,65.255z"/>
	<path fill-rule="evenodd" clip-rule="evenodd" fill="#FDCA00" d="M62.597,54.261c0.774,0.63,1.513,1.287,1.708,2.341
		c-1.055,0.015-2.121,0.152-2.97,0.774c-0.949,0.696-1.768,1.569-2.644,2.365c-0.012-0.215-0.077-0.444-0.025-0.642
		c0.153-0.581,0.354-1.148,0.536-1.722c0.256-0.473,0.512-0.945,0.767-1.418c0.633-0.432,1.266-0.864,1.899-1.296
		c0.2-0.136,0.4-0.271,0.601-0.408C62.513,54.245,62.555,54.246,62.597,54.261z"/>
	<path fill-rule="evenodd" clip-rule="evenodd" fill="#670200" d="M72.815,53.726c-0.571,0.023-0.707-0.344-0.541-0.76
		c0.205-0.514,0.481-1.023,0.829-1.451c0.501-0.618,1.095-1.164,1.65-1.74c0.81-0.041,0.968,0.579,1.227,1.207
		c-1.086,0.422-1.984,1.025-2.244,2.238C73.429,53.388,73.122,53.557,72.815,53.726z"/>
	<path fill-rule="evenodd" clip-rule="evenodd" fill="#9A6700" d="M73.191,63.124c0.091-0.039,0.182-0.079,0.273-0.118
		c1.856-0.471,3.52-1.368,5.143-2.347c2.161-1.306,4.021-2.971,5.754-4.796c0.412-0.436,0.893-0.835,1.409-1.136
		c5.062-2.948,8.49-7.261,10.616-12.663c0.39-0.99,0.684-2.018,1.063-3.012c0.079-0.206,0.346-0.483,0.529-0.485
		c2.506-0.032,5.012-0.021,7.518-0.018c0.082,0,0.164,0.033,0.35,0.075c-0.42,1.194-0.801,2.364-1.241,3.513
		c-1.417,3.69-3.097,7.249-5.45,10.45c-2.236,3.04-4.948,5.492-8.577,6.777c-0.035,0.013-0.057,0.06-0.084,0.091
		c-1.701,0.427-2.615,1.911-3.875,2.921c-3.335,2.674-6.95,4.74-11.202,5.539c-0.467,0.086-0.942,0.136-1.413,0.202
		c-0.076-1.937-1.143-3.352-2.572-4.686C72.095,63.316,72.643,63.22,73.191,63.124z M104.319,40.101
		c-1.789,0-3.463,0.013-5.136-0.009c-0.453-0.006-0.594,0.168-0.754,0.588c-0.659,1.72-1.373,3.421-2.116,5.107
		c-0.248,0.562-0.642,1.06-1.001,1.638c1.432,0.686,2.796,1.338,4.197,2.01C101.622,46.584,103.257,43.55,104.319,40.101z
		 M90.952,52.728c1.245,0.885,2.563,1.825,3.894,2.747c0.082,0.058,0.299,0.003,0.404-0.069c1.685-1.148,3.058-2.593,4.167-4.402
		c-1.623-0.869-3.198-1.715-4.61-2.473C93.478,49.978,92.242,51.324,90.952,52.728z M94.014,55.927
		c-1.129-0.734-2.208-1.425-3.273-2.136c-0.348-0.231-0.575-0.195-0.906,0.084c-0.761,0.642-1.568,1.232-2.386,1.801
		c-0.434,0.302-0.93,0.515-1.52,0.834c1.33,0.814,2.562,1.575,3.805,2.319c0.105,0.063,0.299,0.058,0.419,0.008
		C91.667,58.208,92.947,57.262,94.014,55.927z M82.747,59.736c0.613,0.665,1.293,1.422,2,2.152c0.104,0.107,0.404,0.183,0.498,0.115
		c0.907-0.66,1.802-1.34,2.665-2.056c0.101-0.083,0.077-0.523-0.041-0.631c-0.738-0.666-1.509-1.298-2.294-1.908
		c-0.11-0.086-0.427-0.071-0.526,0.023C84.278,58.168,83.538,58.936,82.747,59.736z M81.931,60.507
		c-1.004,0.609-1.923,1.165-2.884,1.749c0.518,0.81,1.009,1.599,1.527,2.367c0.076,0.113,0.318,0.226,0.43,0.186
		c1.167-0.411,2.249-0.975,3.181-1.861C83.412,62.111,82.678,61.316,81.931,60.507z M74.391,64.109
		c0.399,0.737,0.726,1.322,1.036,1.916c0.453,0.869,0.453,0.891,1.387,0.628c1.02-0.286,1.981-0.703,2.847-1.408
		c-0.556-0.659-1.045-1.265-1.568-1.84c-0.128-0.141-0.397-0.29-0.551-0.248C76.524,63.432,75.521,63.76,74.391,64.109z"/>
	<path fill-rule="evenodd" clip-rule="evenodd" fill="#9B6800" d="M73.989,57.939c0.043-0.664,0.086-1.327,0.13-1.99
		c3.448-1.97,6.449-4.398,7.943-8.226c0.396-1.013,0.501-2.146,0.675-3.233c0.056-0.354,0.117-0.575,0.459-0.756
		c8.381-4.441,16.334-9.551,23.852-15.335c0.221-0.169,0.455-0.324,0.682-0.486c0.021,0.021,0.041,0.041,0.061,0.061
		c-0.736,0.767-1.436,1.573-2.213,2.293c-3.17,2.929-6.473,5.708-10.125,8.011c-3.181,2.006-6.481,3.825-9.74,5.707
		c-0.431,0.249-0.728,0.451-0.807,1.028c-0.501,3.656-2.582,6.438-5.252,8.762C77.892,55.306,75.885,56.559,73.989,57.939z"/>
	<path fill-rule="evenodd" clip-rule="evenodd" fill="#9B6800" d="M108.14,27.668c-0.08,0.052-0.158,0.103-0.236,0.154l-0.029-0.027
		c0.092-0.039,0.182-0.079,0.273-0.119L108.14,27.668z"/>
	<path fill-rule="evenodd" clip-rule="evenodd" fill="#9B6800" d="M108.278,27.544c0.016-0.022,0.031-0.042,0.045-0.064
		c-0.002,0.011,0,0.026-0.006,0.032c-0.014,0.011-0.031,0.016-0.047,0.023L108.278,27.544z"/>
	<path fill-rule="evenodd" clip-rule="evenodd" fill="#9B6800" d="M107.903,27.822c-0.039,0.05-0.076,0.099-0.115,0.149
		c-0.018-0.019-0.037-0.039-0.059-0.06c0.049-0.039,0.096-0.077,0.145-0.116L107.903,27.822z"/>
	<path fill-rule="evenodd" clip-rule="evenodd" fill="#9B6800" d="M108.271,27.536c-0.043,0.045-0.088,0.089-0.131,0.133
		l0.008,0.008c0.043-0.044,0.088-0.088,0.131-0.132L108.271,27.536z"/>
	<path fill-rule="evenodd" clip-rule="evenodd" fill="#CC9B00" d="M59.97,55.96c-0.255,0.473-0.511,0.945-0.767,1.418
		c-2.173-1.383-4.24-2.898-6.019-4.779c-2.103-2.223-3.535-4.776-3.935-7.855c-0.027-0.208-0.216-0.465-0.402-0.573
		c-3.071-1.773-6.227-3.413-9.212-5.32c-2.578-1.647-5.03-3.513-7.416-5.434c-1.878-1.511-3.573-3.25-5.341-4.895
		c-0.169-0.157-0.284-0.372-0.424-0.561c0.017-0.015,0.032-0.031,0.047-0.047c1.077,0.804,2.153,1.608,3.229,2.413
		c5.177,3.875,10.564,7.429,16.201,10.601c1.707,0.96,3.434,1.882,5.138,2.847c0.186,0.104,0.389,0.372,0.394,0.569
		c0.077,2.635,1.081,4.896,2.737,6.894C55.814,53.185,57.792,54.697,59.97,55.96z"/>
	<path fill-rule="evenodd" clip-rule="evenodd" fill="#9A6700" d="M58.691,59.742c0.875-0.796,1.694-1.669,2.644-2.365
		c0.849-0.622,1.915-0.76,2.97-0.774c0.513,1.048,0.161,2.015-0.324,2.942c-0.084,0.161-0.419,0.254-0.644,0.267
		c-0.424,0.024-0.853-0.034-1.278-0.059c-1.045,0.166-2.09,0.338-3.137,0.488c-0.156,0.022-0.326-0.055-0.49-0.086
		c0.033-0.056,0.067-0.111,0.1-0.167C58.585,59.906,58.639,59.824,58.691,59.742z"/>
	<path fill-rule="evenodd" clip-rule="evenodd" fill="#FDCA00" d="M58.533,59.988c-0.033,0.056-0.067,0.111-0.1,0.167
		C58.466,60.099,58.5,60.043,58.533,59.988z"/>
	<path fill-rule="evenodd" clip-rule="evenodd" fill="#CC9B00" d="M26.454,27.962c-0.01-0.037-0.02-0.076-0.03-0.113
		c0.025,0.022,0.051,0.044,0.077,0.065C26.485,27.931,26.47,27.947,26.454,27.962z"/>
	<path fill-rule="evenodd" clip-rule="evenodd" fill="#CC9B00" d="M26.089,27.674c0.024,0.017,0.048,0.033,0.071,0.05
		c-0.013-0.001-0.032,0.002-0.039-0.005c-0.012-0.013-0.018-0.033-0.026-0.05L26.089,27.674z"/>
	<path fill-rule="evenodd" clip-rule="evenodd" fill="#CC9B00" d="M26.095,27.669c-0.017-0.008-0.036-0.013-0.049-0.025
		c-0.007-0.006-0.004-0.024-0.006-0.038c0.017,0.022,0.033,0.045,0.049,0.067L26.095,27.669z"/>
	<path fill-rule="evenodd" clip-rule="evenodd" fill="#FCFB00" d="M58.682,70.476c0.521-0.444,1.041-0.887,1.562-1.329
		c0.074,0.07,0.196,0.128,0.215,0.211c0.308,1.336,1.028,2.416,2.021,3.334c-1.161,0.09-2.323,0.273-3.481,0.246
		c-1.208-0.028-2.392-0.313-3.343-1.167C56.665,71.338,57.673,70.907,58.682,70.476z"/>
	<path fill-rule="evenodd" clip-rule="evenodd" fill="#9A6700" d="M55.656,71.771c0.951,0.854,2.135,1.139,3.343,1.167
		c1.158,0.027,2.32-0.156,3.481-0.246l-0.011-0.01c-0.255,0.442-0.51,0.887-0.766,1.329c-0.176-0.042-0.358-0.137-0.527-0.117
		c-1.675,0.2-3.346,0.24-4.972-0.274c-0.804-0.252-1.571-0.62-2.355-0.934c-0.236-0.179-0.472-0.358-0.847-0.641
		C53.981,71.944,54.819,71.858,55.656,71.771z"/>
	<path fill-rule="evenodd" clip-rule="evenodd" fill="#FDCA00" d="M73.191,63.124c-0.548,0.097-1.096,0.192-1.76,0.309
		c1.429,1.334,2.497,2.749,2.572,4.686c-0.29,0.662-0.032,1.117,0.478,1.573c1.658,1.486,3.629,2.153,5.802,2.343
		c0.207,0.019,0.411,0.068,0.617,0.104c-1.74,0.378-3.472,0.783-5.278,0.702c-0.942-0.043-1.802-0.211-2.502-0.911
		c-0.108-0.108-0.4-0.085-0.593-0.047c-0.299,0.06-0.586,0.267-0.878,0.268c-0.78,0.004-1.568-0.01-2.338-0.119
		c-2.753-0.397-4.759-1.836-5.586-4.531c-0.4-1.307-0.415-2.731-0.604-4.103c0.005-0.127,0.01-0.254,0.015-0.38
		c0.446-0.356,0.892-0.715,1.373-1.099c0.632,1.184,1.498,2.022,2.602,2.651c0.463,0.264,0.784,0.24,1.124-0.124
		c0.983-0.751,1.575-1.766,1.962-2.918c0.959,0.466,1.919,0.931,2.878,1.396C73.112,62.991,73.151,63.057,73.191,63.124z"/>
	<path fill-rule="evenodd" clip-rule="evenodd" fill="#986500" d="M68.233,64.446c-0.34,0.364-0.661,0.388-1.124,0.124
		c-1.104-0.629-1.97-1.468-2.602-2.651c-0.481,0.384-0.927,0.742-1.373,1.099c-0.124,0.029-0.247,0.061-0.37,0.091
		c0.118,0.096,0.237,0.192,0.355,0.289c0.19,1.371,0.204,2.796,0.604,4.103c0.827,2.695,2.833,4.134,5.586,4.531
		c0.77,0.109,1.559,0.123,2.338,0.119c0.292-0.001,0.579-0.208,0.878-0.268c0.192-0.038,0.484-0.062,0.593,0.047
		c0.701,0.7,1.561,0.868,2.502,0.911c1.806,0.081,3.538-0.324,5.278-0.702c-0.469,0.318-0.905,0.705-1.411,0.943
		c-2.018,0.951-4.151,1.098-6.335,0.807c-0.233-0.032-0.475-0.006-0.712-0.006c-0.245-0.379-0.491-0.76-0.75-1.16
		c-0.474,0.241-0.912,0.464-1.387,0.707c0.676,1.275,1.57,2.251,2.739,2.981c0.5,0.311,0.991,0.637,1.486,0.954
		c-1.931-0.097-3.485-0.932-4.702-2.414c-0.285-0.347-0.537-0.719-0.805-1.079c-0.698-0.044-1.398-0.077-2.094-0.137
		c-0.441-0.038-0.518,0.163-0.553,0.565c-0.126,1.42,0.474,2.454,1.597,3.246c-0.267,0.382-0.534,0.766-0.801,1.148
		c-0.286-0.301-0.702-0.554-0.834-0.911c-0.426-1.152-0.744-2.343-1.114-3.515c-0.043-0.139-0.15-0.258-0.228-0.387
		c-0.072-0.091-0.125-0.228-0.218-0.266c-0.766-0.322-1.539-0.625-2.31-0.935l0.011,0.01c-0.992-0.918-1.713-1.998-2.021-3.334
		c-0.019-0.083-0.141-0.141-0.215-0.211c0.001-0.346,0.002-0.689,0.003-1.036c0-1.802,0.832-3.236,2.178-4.616
		c-0.285,0.089-0.38,0.118-0.476,0.148c-0.001-0.171-0.001-0.341-0.001-0.512c0.215-0.175,0.431-0.349,0.646-0.524
		c0.664-0.125,1.058-0.52,1.183-1.183c0.177-0.215,0.353-0.43,0.53-0.644c0.173,0,0.346-0.001,0.519-0.001
		c0.828,1.335,1.841,2.496,3.16,3.374C68.087,64.222,68.151,64.347,68.233,64.446z"/>
	<path fill-rule="evenodd" clip-rule="evenodd" fill="#CA9600" d="M67.973,77.546c-1.123-0.792-1.724-1.826-1.597-3.246
		c0.036-0.402,0.112-0.604,0.553-0.565c0.696,0.06,1.396,0.093,2.094,0.137C68.864,75.152,68.728,76.437,67.973,77.546z"/>
	<path fill-rule="evenodd" clip-rule="evenodd" fill="#CA9600" d="M74.53,77.365c-0.495-0.317-0.986-0.644-1.486-0.954
		c-1.168-0.73-2.063-1.706-2.739-2.981c0.475-0.243,0.913-0.466,1.387-0.707c0.259,0.4,0.504,0.781,0.75,1.16
		c0.879,1.003,1.757,2.004,2.637,3.007c0.154,0.175,0.316,0.343,0.475,0.514l0.011-0.01C75.219,77.383,74.874,77.375,74.53,77.365z"
		/>
	<path fill-rule="evenodd" clip-rule="evenodd" fill="#FAF800" d="M62.468,72.682c0.771,0.31,1.544,0.612,2.31,0.935
		c0.093,0.038,0.146,0.175,0.218,0.266c0,0-0.016,0.014-0.016,0.014c-0.202,0.12-0.411,0.229-0.605,0.361
		c-1.387,0.94-2.813,1.794-4.499,2.09c0.47-0.584,0.942-1.166,1.408-1.754c0.148-0.187,0.279-0.388,0.418-0.582
		C61.958,73.569,62.213,73.125,62.468,72.682z"/>
	<path fill-rule="evenodd" clip-rule="evenodd" fill="#986500" d="M59.876,76.347c1.686-0.296,3.112-1.149,4.499-2.09
		c0.194-0.132,0.403-0.241,0.605-0.361c-0.417,1.23-1.348,2.016-2.408,2.632c-1.196,0.695-2.527,0.962-3.895,1.005
		c-0.032-0.057-0.064-0.113-0.096-0.17C59.013,77.024,59.445,76.686,59.876,76.347z"/>
	<path fill-rule="evenodd" clip-rule="evenodd" fill="#CA9600" d="M75.553,77.403c0.016,0.007,0.033,0.012,0.045,0.021
		c0.006,0.005,0.003,0.021,0.005,0.032c-0.013-0.022-0.026-0.042-0.039-0.063L75.553,77.403z"/>
	<path fill-rule="evenodd" clip-rule="evenodd" fill="#FECB00" d="M38.906,47.434c-1.406,0.673-2.754,1.319-4.167,1.997
		c-2.149-2.806-3.8-5.843-4.828-9.332c0.787,0,1.495,0,2.203,0c0.827,0,1.655-0.012,2.482,0.002
		c1.195,0.022,0.924-0.229,1.299,0.976c0.662,2.132,1.588,4.13,2.828,5.986C38.78,47.153,38.818,47.257,38.906,47.434z"/>
	<path fill-rule="evenodd" clip-rule="evenodd" fill="#FECB00" d="M43.253,52.736c-1.208,0.852-2.477,1.762-3.769,2.637
		c-0.137,0.092-0.461,0.048-0.618-0.055c-1.655-1.096-2.939-2.545-4.056-4.305c1.614-0.869,3.188-1.718,4.62-2.489
		C40.735,49.962,41.965,51.317,43.253,52.736z"/>
	<path fill-rule="evenodd" clip-rule="evenodd" fill="#FECB00" d="M40.09,56.011c1.291-0.837,2.408-1.574,3.544-2.281
		c0.141-0.088,0.444-0.092,0.572,0.003c1.286,0.939,2.552,1.907,3.863,2.898c-0.682,0.428-1.475,0.926-2.268,1.422
		c-0.055,0.035-0.125,0.053-0.169,0.098c-0.95,0.968-1.926,0.747-2.872,0.024C41.875,57.499,41.028,56.774,40.09,56.011z"/>
	<path fill-rule="evenodd" clip-rule="evenodd" fill="#FDCA00" d="M48.789,57.265c0.97,0.855,1.839,1.622,2.772,2.444
		c-0.5,0.504-1.065,1.065-1.621,1.638c-0.771,0.794-0.79,0.831-1.693,0.22c-0.645-0.437-1.229-0.964-1.822-1.473
		c-0.344-0.294-0.361-0.594,0.033-0.907C47.272,58.541,48.063,57.867,48.789,57.265z"/>
	<path fill-rule="evenodd" clip-rule="evenodd" fill="#FDCA00" d="M55.189,62.252c-0.52,0.812-1.021,1.616-1.552,2.401
		c-0.072,0.106-0.326,0.193-0.444,0.149c-1.143-0.421-2.214-0.973-3.147-1.852c0.775-0.839,1.521-1.646,2.259-2.442
		C53.29,61.104,54.21,61.66,55.189,62.252z"/>
	<path fill-rule="evenodd" clip-rule="evenodd" fill="#FDCA00" d="M54.565,65.255c0.571-0.675,1.087-1.312,1.641-1.912
		c0.122-0.132,0.41-0.229,0.575-0.182c0.977,0.278,1.94,0.604,3.016,0.948c-0.471,0.899-0.899,1.738-1.356,2.562
		c-0.05,0.09-0.281,0.14-0.409,0.114C56.784,66.546,55.642,66.066,54.565,65.255z"/>
	<path fill-rule="evenodd" clip-rule="evenodd" fill="#9B6800" d="M64.952,55.409c-0.221-0.14-0.441-0.279-0.729-0.462
		c1.245-0.752,2.419-1.371,3.493-2.132c1.682-1.191,3.296-2.479,4.942-3.722c0.172-0.131,0.361-0.237,0.543-0.354l0.003,0.003
		c-0.285,0.523-0.475,1.138-0.875,1.55c-0.781,0.808-1.679,1.503-2.529,2.243C68.184,53.493,66.568,54.451,64.952,55.409z"/>
	<path fill-rule="evenodd" clip-rule="evenodd" fill="#FCC902" d="M64.952,55.409c1.616-0.958,3.232-1.916,4.848-2.874
		c-0.262,0.785-0.523,1.571-0.785,2.356c-1.257,0.808-2.616,0.987-4.057,0.654C64.957,55.5,64.955,55.455,64.952,55.409z"/>
	<path fill-rule="evenodd" clip-rule="evenodd" fill="#9B6800" d="M64.958,55.545c1.441,0.333,2.799,0.153,4.057-0.654
		c-0.333,1.5-1.835,2.359-2.986,1.459C65.678,56.075,65.315,55.814,64.958,55.545z"/>
	<path fill-rule="evenodd" clip-rule="evenodd" fill="#9B6800" d="M73.073,62.923c-0.959-0.465-1.919-0.93-2.878-1.396
		c0-0.514,0-1.027,0-1.566c0.628,0.709,1.205,1.392,1.818,2.04C72.333,62.34,72.717,62.618,73.073,62.923z"/>
	<path fill-rule="evenodd" clip-rule="evenodd" fill="#996600" d="M63.776,61.424c-0.125,0.663-0.52,1.058-1.183,1.183
		C62.987,62.213,63.382,61.818,63.776,61.424z"/>
	<path fill-rule="evenodd" clip-rule="evenodd" fill="#996600" d="M61.947,63.131c0,0.171,0,0.341,0.001,0.512
		c-0.266,0.099-0.532,0.197-0.798,0.297c-0.024-0.044-0.047-0.088-0.071-0.132C61.369,63.583,61.658,63.357,61.947,63.131z"/>
	<path fill-rule="evenodd" clip-rule="evenodd" fill="#996600" d="M64.826,60.78c-0.173,0-0.346,0.001-0.519,0.001
		c0.094-0.114,0.188-0.229,0.312-0.38C64.705,60.558,64.765,60.669,64.826,60.78z"/>
	<path fill-rule="evenodd" clip-rule="evenodd" fill="#9B6800" d="M73.201,48.739c0.02-0.018,0.04-0.036,0.059-0.054
		c-0.003,0.013-0.002,0.029-0.01,0.036c-0.012,0.011-0.03,0.015-0.046,0.021L73.201,48.739z"/>
	<path fill-rule="evenodd" clip-rule="evenodd" fill="#CB9800" d="M104.319,40.101c-1.063,3.449-2.697,6.484-4.81,9.334
		c-1.401-0.672-2.766-1.324-4.197-2.01c0.359-0.578,0.753-1.076,1.001-1.638c0.743-1.686,1.457-3.387,2.116-5.107
		c0.16-0.42,0.301-0.594,0.754-0.588C100.856,40.114,102.53,40.101,104.319,40.101z"/>
	<path fill-rule="evenodd" clip-rule="evenodd" fill="#CB9800" d="M90.952,52.728c1.291-1.404,2.526-2.75,3.855-4.197
		c1.412,0.758,2.987,1.604,4.61,2.473c-1.109,1.81-2.482,3.254-4.167,4.402c-0.105,0.072-0.323,0.127-0.404,0.069
		C93.514,54.553,92.197,53.613,90.952,52.728z"/>
	<path fill-rule="evenodd" clip-rule="evenodd" fill="#CB9800" d="M94.014,55.927c-1.067,1.335-2.347,2.281-3.861,2.91
		c-0.12,0.05-0.314,0.055-0.419-0.008c-1.243-0.744-2.475-1.505-3.805-2.319c0.59-0.319,1.086-0.532,1.52-0.834
		c0.818-0.568,1.625-1.159,2.386-1.801c0.331-0.279,0.559-0.315,0.906-0.084C91.806,54.502,92.885,55.193,94.014,55.927z"/>
	<path fill-rule="evenodd" clip-rule="evenodd" fill="#CB9800" d="M82.747,59.736c0.791-0.8,1.531-1.567,2.302-2.304
		c0.099-0.095,0.417-0.109,0.526-0.023c0.785,0.61,1.556,1.242,2.294,1.908c0.118,0.107,0.142,0.548,0.041,0.631
		c-0.863,0.716-1.757,1.396-2.665,2.056c-0.094,0.067-0.394-0.008-0.498-0.115C84.04,61.158,83.359,60.401,82.747,59.736z"/>
	<path fill-rule="evenodd" clip-rule="evenodd" fill="#CB9800" d="M81.931,60.507c0.748,0.809,1.481,1.604,2.254,2.44
		c-0.932,0.887-2.014,1.45-3.181,1.861c-0.112,0.04-0.354-0.072-0.43-0.186c-0.519-0.769-1.01-1.558-1.527-2.367
		C80.008,61.672,80.926,61.117,81.931,60.507z"/>
	<path fill-rule="evenodd" clip-rule="evenodd" fill="#CB9800" d="M74.391,64.109c1.129-0.349,2.133-0.677,3.151-0.952
		c0.153-0.042,0.423,0.107,0.551,0.248c0.523,0.575,1.012,1.181,1.568,1.84c-0.866,0.705-1.827,1.122-2.847,1.408
		c-0.934,0.263-0.934,0.241-1.387-0.628C75.117,65.431,74.791,64.846,74.391,64.109z"/>
	<path fill-rule="evenodd" clip-rule="evenodd" fill="#996600" d="M63.12,63.397c-0.118-0.097-0.237-0.193-0.355-0.289
		c0.124-0.03,0.247-0.062,0.37-0.091C63.129,63.143,63.125,63.27,63.12,63.397z"/>
</g>
</svg>
