<?xml version="1.0" encoding="utf-8"?>
<!-- Generator: Adobe Illustrator 16.0.3, SVG Export Plug-In . SVG Version: 6.00 Build 0)  -->
<!DOCTYPE svg PUBLIC "-//W3C//DTD SVG 1.1//EN" "http://www.w3.org/Graphics/SVG/1.1/DTD/svg11.dtd">
<svg version="1.1" id="Calque_2" xmlns="http://www.w3.org/2000/svg" xmlns:xlink="http://www.w3.org/1999/xlink" x="0px" y="0px"
	 width="142.667px" height="137.333px" viewBox="0 0 142.667 137.333" enable-background="new 0 0 142.667 137.333"
	 xml:space="preserve">
<circle fill="#9F3827" cx="71.489" cy="69.932" r="65.25"/>
<path fill="#9F3827" stroke="#000000" stroke-miterlimit="10" d="M57.833,42.333c0,0,8.167-6,11.167-10.167s-5-12.5-5.167-3.667
	s-9.5-13,5.167-15.667C82,12,84.333,18.333,85,20s2.334-2.667,3.167-2.167s-0.333,10.333,2.5,11.667S114,58.333,108.5,68
	c-6.667-1.833-10.833,1.667-15.167,11.167C74.667,70.5,84.167,70.168,82,71.334C82,71.334,53.666,43.667,57.833,42.333z"/>
<path fill="#FBF5D1" stroke="#000000" stroke-miterlimit="10" d="M55.667,43c0,0,4,6,33.333,3c18.333,7.333-4.333,26.334-7,25.334
	S62.5,58.166,48.5,63.5C47.167,42.833,54,40.667,55.667,43z"/>
<path fill="#412319" stroke="#000000" stroke-miterlimit="10" d="M51.833,54.5c0,0,23.334,5.667,40.167,0.167
	c2,4-10.167,11.167-13,15.5S51,64,51,64S50.333,54.667,51.833,54.5z"/>
<path fill="#FFFFFF" d="M50.5,63.167c0,0-0.5-7.5,7.833-7c4.833,1.5,4.5,5.833,4,5.5s-5,3.333-5,3.333L50.5,63.167z"/>
<ellipse fill="#3A2514" cx="57.667" cy="61.333" rx="3.167" ry="2.667"/>
<path fill="#FFFFFF" d="M64.333,62.667c2.833-7,19.166-9,17,5.333c0,0-2.816,3.67-3.5,3.167C67.666,63.666,62,65.333,64.333,62.667z
	"/>
<circle fill="#3A2514" cx="75.333" cy="64.833" r="3"/>
<path fill="#FBF5D1" stroke="#000000" stroke-miterlimit="10" d="M31.333,79c3.375-4.813,17.833-18,27.333-16.833
	c4.167-1.5,36.833,15.5,40.333,24.5c1.333,8.833,4.833,5.5,0.833,14.5s-21.167,22.334-35.333,19c-15-2.667-32-5.833-32.5-22.5
	c0.521-2.667-0.854-6.854,2.333-12.334C35.333,83.833,31.114,80.723,31.333,79z"/>
<path fill="#800D46" stroke="#000000" stroke-width="0.3" stroke-miterlimit="10" d="M36,83.167c0,0,1.333-9,30.667-0.5
	S90.5,87.334,92,88.167S80.833,97.833,78.333,98s-30.667,0.833-36-1s-8-2.334-6.167-11.167S36,83.167,36,83.167z"/>
<path fill="#C3777B" d="M42.167,94.333c0,0,5.5-7.666,18.833-4.833s17.834,5.499,16.167,6.333S37.833,98.499,42.167,94.333z"/>
<path fill="#FBF5D1" stroke="#000000" stroke-miterlimit="10" d="M93.333,79.167c0,0,6.334-15.5,13.667-12.5
	c5.667,1.333,3.833,20-6.167,19.5S92.666,79.501,93.333,79.167z"/>
<path d="M97,79.5c0,0,7.999-8.999,9.833-8.833s-2.666,9.5-5.833,10S95.333,80,97,79.5z"/>
<ellipse fill="#FFFFFF" cx="75.417" cy="62.833" rx="1.583" ry="1.5"/>
<ellipse fill="#FFFFFF" cx="58.833" cy="59.833" rx="1.5" ry="1.333"/>
<path d="M59.333,66.5c0,0,1.833-2.5,3.5-2S65,67,64.167,67.167S59.166,67.167,59.333,66.5z"/>
<path d="M50.5,65.5c0,0,1.5-1.667,2.667-1.333s0.333,1.667-0.5,1.833S50.5,65.5,50.5,65.5z"/>
</svg>
