<?xml version="1.0" encoding="utf-8"?>
<!-- Generator: Adobe Illustrator 16.0.3, SVG Export Plug-In . SVG Version: 6.00 Build 0)  -->
<!DOCTYPE svg PUBLIC "-//W3C//DTD SVG 1.1//EN" "http://www.w3.org/Graphics/SVG/1.1/DTD/svg11.dtd">
<svg version="1.1" id="Calque_2" xmlns="http://www.w3.org/2000/svg" xmlns:xlink="http://www.w3.org/1999/xlink" x="0px" y="0px"
	 width="101.996px" height="99px" viewBox="0 0 101.996 99" enable-background="new 0 0 101.996 99" xml:space="preserve">
<circle fill="#3B7200" stroke="#000000" stroke-miterlimit="10" cx="50.062" cy="49.933" r="48.417"/>
<path fill="#6D9944" stroke="#000000" stroke-miterlimit="10" d="M44.407,18.083c0,0,22,12.25,27.5,25.25c-13.75,10.25,1.5,6,1.5,6
	s-27.25,3.5-47,20c0,0-9.998,12.222-7.25,15.5c2.95,3.521,17.75-4.75,17.75-4.75l31-3.75c0,0,18-9.75,16.5-26.5
	S66.658,10.333,44.407,18.083z"/>
<path fill="none" stroke="#000000" stroke-miterlimit="10" d="M64.783,75.083"/>
<path fill="none" stroke="#000000" stroke-miterlimit="10" d="M44.032,17.708"/>
<path fill="#FFE014" stroke="#000000" stroke-width="0.5" stroke-miterlimit="10" d="M46.532,18.083
	c-1.5-0.667-27.958-2.083-21.958,32.75c3.5-2.167,1.834-0.667,5.167-1s3.667,1.5,3.667,1.5s-5.5,17-2.167,25.334
	c1.833-4.334,1.833-5.334,2-5.667C33.24,71,37.532,24.417,46.532,18.083z"/>
<path fill="#F8CDA4" stroke="#000000" stroke-width="0.5" stroke-miterlimit="10" d="M42.907,76.583c0,0-1.083,2.834-1.833,3.584
	s6.5,2.75,20-4c0.5-0.167,0.084-7.084,0.084-7.084L42.907,76.583z"/>
<path fill="#F8CDA4" stroke="#000000" stroke-width="0.5" stroke-miterlimit="10" d="M29.657,44.833l1.25,3.5
	c0,0-2.083,5.667,3.667,26.917c12,5.5,24.333-4.917,25.583-5.417s-1.125-18.25,1.75-18s-10.25-14-8.25-15.75
	c2.625-2.25-6.875-4-13.5,3c-0.375,0.625-2.25-0.25-2.25-0.25S32.907,38.583,29.657,44.833z"/>
<path fill="#FFE014" stroke="#000000" stroke-width="0.2" stroke-miterlimit="10" d="M31.407,42.5l6.167,7.417
	c0,0-6-4.834-7.167-4.917S31.407,42.5,31.407,42.5z"/>
<path fill="#F8CDA4" stroke="#000000" stroke-miterlimit="10" d="M74.908,49.583l9.75,0.25c0,0-7.25,13.75-10.75,13.75
	s-4.25-2.25-4.25-2.25S65.408,53.833,74.908,49.583z"/>
<path fill="none" stroke="#000000" stroke-width="0.5" stroke-miterlimit="10" d="M74.908,51.75l5.5,0.333
	c0,0-3.832,6.916-5.666,6.833s-3.918-0.666-4.168-1.583S74.158,51.75,74.908,51.75z"/>
<path fill="#FFE014" stroke="#000000" stroke-width="0.2" stroke-miterlimit="10" d="M41.157,49.708
	c-0.188-0.063,5-8.5,19.584-7.208C47.344,44.958,41.407,49.771,41.157,49.708z"/>
<path display="none" fill="#FFE014" d="M47.407,18.5"/>
<path fill="#FFE014" stroke="#000000" stroke-width="0.5" stroke-miterlimit="10" d="M46.532,18.083c0,0-11.917,11.125-8.25,21.125
	c0,0.625,0.5,2.5,0.5,2.5C40.31,43.125,55.408,25.833,59.199,26.5C60.621,26.045,52.619,20.645,46.532,18.083z"/>
<path fill="#FFE014" stroke="#000000" stroke-width="0.5" stroke-miterlimit="10" d="M77.533,45.083
	C73.699,43.583,58.24,25.25,58.24,25.25c-1.334,2.333-12.166,0.875-9.333,10.208c1.375,7.25,7.119,7.921,10.375,9.875l0.625,34.084
	c0,0,10.166-8,12-17.334c1.256-6.396,1.875-15.25-8.805-15.542c1.656,0.726,2.805,1.042,2.805,1.042S81.367,46.583,77.533,45.083z"
	/>
<path fill="#FFFFFF" stroke="#000000" stroke-width="0.6" stroke-miterlimit="10" d="M46.969,49.146
	c2.202-1.265,10.125-0.5,10.125-0.813c0.375,2.25-2.563,7.209-3.229,7.292c0.293,0.041-5.708,1.208-8.542-1.292
	C44.084,53.146,45.79,49.824,46.969,49.146z"/>
<path fill="#2FADCD" d="M51.342,49.021c0,0,3.525,0.375,2.625,3.485c-0.9,3.11-3.335,2.137-3.335,2.137s-2.173-0.3-2.098-2.586
	C48.606,49.77,50.18,48.908,51.342,49.021z"/>
<circle cx="51.219" cy="51.896" r="1.438"/>
<circle fill="#FFFFFF" cx="50.375" cy="50.927" r="1.094"/>
<g>
	<path d="M46.823,49.083c0,0,0.66-0.282,1.659-0.508c1.001-0.234,2.329-0.44,3.686-0.491c1.371-0.048,2.742,0.045,3.75,0.204
		c1.011,0.147,1.656,0.378,1.656,0.378s-0.697,0.272-1.703,0.482c-1.009,0.221-2.326,0.399-3.645,0.434
		c-0.66,0.019-1.342,0.029-1.971,0.001c-0.633-0.033-1.224-0.078-1.732-0.153C47.506,49.302,46.823,49.083,46.823,49.083z"/>
</g>
<path opacity="0.2" enable-background="new    " d="M33.656,61c0,0,6.417,0.25,7.417,0.75c0.5,0.666-0.583,3.334-2.917,3.25
	C34.073,61.667,33.656,61,33.656,61z"/>
<g>
	
		<ellipse fill="#FFFFFF" stroke="#000000" stroke-width="0.6" stroke-miterlimit="10" cx="34.353" cy="51.458" rx="2.167" ry="3.125"/>
	
		<ellipse transform="matrix(-0.0119 -0.9999 0.9999 -0.0119 -16.4512 86.9116)" fill="#2FADCD" cx="34.717" cy="51.584" rx="2.835" ry="1.717"/>
	<ellipse cx="34.965" cy="52.042" rx="0.818" ry="1.293"/>
	<ellipse fill="#FFFFFF" cx="34.107" cy="50.624" rx="0.695" ry="0.791"/>
</g>
<g>
	<path d="M31.519,47.636c0,0,0.378-0.076,0.915-0.014c0.539,0.047,1.231,0.23,1.877,0.53c0.312,0.174,0.637,0.319,0.901,0.534
		c0.269,0.205,0.517,0.394,0.698,0.603c0.368,0.409,0.542,0.74,0.542,0.74s-0.387-0.07-0.86-0.262
		c-0.239-0.093-0.529-0.181-0.812-0.313c-0.284-0.128-0.598-0.252-0.896-0.397c-0.296-0.154-0.604-0.286-0.876-0.45
		c-0.283-0.141-0.537-0.306-0.758-0.443C31.809,47.883,31.519,47.636,31.519,47.636z"/>
</g>
<g>
	<path d="M34.637,68.814c0,0,0.13,0.088,0.356,0.201c0.111,0.06,0.23,0.14,0.4,0.195c0.164,0.063,0.344,0.132,0.524,0.227
		c0.199,0.06,0.414,0.123,0.641,0.189c0.218,0.084,0.469,0.102,0.719,0.146c0.249,0.041,0.505,0.084,0.767,0.129
		c0.267,0.006,0.539,0.012,0.81,0.018c0.271,0.014,0.541,0.063,0.811,0.005c0.269-0.036,0.537-0.047,0.796-0.069
		c0.258-0.031,0.518-0.008,0.758-0.041c0.239-0.047,0.465-0.09,0.674-0.129c0.417-0.088,0.791-0.103,1.046-0.142
		c0.259-0.026,0.415-0.03,0.415-0.028l0.022,0.055c0,0-0.554,0.183-1.384,0.455c-0.208,0.068-0.433,0.144-0.671,0.222
		c-0.241,0.063-0.508,0.083-0.777,0.13c-0.271,0.04-0.551,0.081-0.836,0.123c-0.283,0.064-0.577,0.027-0.87,0.021
		c-0.292-0.017-0.585-0.03-0.873-0.047c-0.284-0.043-0.557-0.129-0.824-0.188c-0.268-0.063-0.526-0.123-0.75-0.244
		c-0.229-0.104-0.446-0.201-0.646-0.291c-0.365-0.245-0.682-0.431-0.863-0.616c-0.2-0.164-0.289-0.277-0.289-0.277L34.637,68.814z"
		/>
</g>
<path fill="none" stroke="#000000" stroke-miterlimit="10" d="M34.574,67.25"/>
<path fill="none" stroke="#000000" stroke-width="0.6" stroke-miterlimit="10" d="M34.574,67.25c0,0,2.417-1.417,10.75,1.583"/>
<polygon fill="#2FADCD" points="73.324,61.083 73.242,65.583 71.408,65.583 71.324,61 "/>
</svg>
