<?xml version="1.0" encoding="utf-8"?>
<!-- Generator: Adobe Illustrator 16.0.3, SVG Export Plug-In . SVG Version: 6.00 Build 0)  -->
<!DOCTYPE svg PUBLIC "-//W3C//DTD SVG 1.1//EN" "http://www.w3.org/Graphics/SVG/1.1/DTD/svg11.dtd">
<svg version="1.1" xmlns="http://www.w3.org/2000/svg" xmlns:xlink="http://www.w3.org/1999/xlink" x="0px" y="0px"
	 width="138.667px" height="138.921px" viewBox="0 0 138.667 138.921" enable-background="new 0 0 138.667 138.921"
	 xml:space="preserve">
<g id="Calque_3">
	<circle fill="#00AF10" cx="69.156" cy="69.599" r="65.25"/>
</g>
<g id="Calque_2">
	<path fill="#38572D" stroke="#000000" stroke-width="0.2" stroke-miterlimit="10" d="M30.5,43.708c0,0-2.479,7.041,13.354,11.708
		c0,0,0.979-10.916,3.979-11.249S30.5,43.708,30.5,43.708z"/>
	<path fill="#51251A" d="M86.25,101.167c0,0,0.167,3.333,0.584,10.999c0.666,1.418-2.5,5.001-6.5,2.334
		c-0.084-0.334-6.001,4.083-6.834-0.5c1-6.5-2.833-6.334-2.833-6.334l7.667-10.333L86.5,98.5l-0.666,5.5"/>
	<path fill="#E1B48A" stroke="#000000" stroke-width="0.5" stroke-miterlimit="10" d="M45.333,47.667c0,0-3.333,15.333-2.5,20.167
		S37.908,91.879,38.167,100c0.208,6.521,4.833,18,15.5,21s25-13.667,28.833-19.667c0.334-0.167,5.666,5.333,8.5,4.333
		c3-0.166,18.166-4.833,17-18.333S98.834,76.5,98.834,76.5L93.167,57l-31.333-9.167L45.333,47.667z"/>
	<g>
		<path fill="#6E1A34" d="M49.401,104.384l3.923,1.147C52.449,105.096,51.042,104.751,49.401,104.384z"/>
		<path fill="#6E1A34" d="M41.378,102.037l0.145,0.043C41.423,101.825,41.376,101.837,41.378,102.037z"/>
		<path fill="#6E1A34" d="M53.75,105.167c-8.595,0.836-11.755-2.038-12.361-2.94c0.157,1.636,1.887,8.642,5.194,8.773
			c4.167,0.166,6.334-1.334,7.667-4.167C54.387,106.325,54.387,105.508,53.75,105.167z"/>
		<path fill="#FFFFFF" d="M53.504,105.422c0.028-0.003,0.053-0.003,0.08-0.006l-0.178-0.052l-3.922-1.147l-7.878-2.304l-0.145-0.043
			l-0.127-0.037c0,0,0.045,0.087,0.139,0.227C42.079,102.962,44.91,106.258,53.504,105.422z"/>
	</g>
	<path fill="#131112" d="M53,89c0,0,11.833,1.166,15.833-2.167c1.167-1.167-0.437,16.943-10,17.333
		C54.945,104.324,49,105,44.333,98.5c-4.5,0.166-9.167-0.333-14-7.167l16.333-8L53,89z"/>
	<path fill="#51251A" d="M88.5,67.958c0,0-0.167,7.708-2,10.208s-11.666,10.001-8.666,14.167c2,2.5,3.061,1.561,5.333,0.833
		C86,92,93.833,79.334,96,79.5s-2.166-11.667-2.166-11.667L88.5,67.958z"/>
	<path d="M62.833,53.667c0,0-3.833,2.833-4.333,4.333s7.668-6.333,14.334,5.333c1.333,0.833,1.333-4.833,1.333-4.833L62.833,53.667z
		"/>
	<path d="M46.926,48.007c0,0,5.241,0.361,5.241,8.493c-3.072-5.06-4.156-4.337-4.156-4.337l-4.156,3.253
		C43.854,55.416,44.758,46.923,46.926,48.007z"/>
	<path fill="#498C3C" stroke="#000000" stroke-width="0.2" stroke-miterlimit="10" d="M43.875,41.458
		c0.833-1.5,5.124-27.125,30.458-25.792c25.667,3.833,37.334,40.5,37.334,48.667C110.5,65.167,127.5,70.166,109,85
		c-3-4.167-10.001-5.668-11.667-5.334s-4.167-7.541-8.833-11.708c-1.875-0.125-44.833-25.625-58-24.25
		C36.167,40.333,40.417,41.583,43.875,41.458z"/>
	<path fill="#FFFFFF" d="M51.667,42.167c0,0-2.667-18.667,12.667-18.333C76.5,27.5,64.167,45.667,62.5,44.167
		C62.5,44.167,53,41.5,51.667,42.167z"/>
	<path fill="none" stroke="#000000" stroke-width="0.5" stroke-miterlimit="10" d="M44.5,41.5c0,0,23.499-3.167,44.333,24.833"/>
	<path fill="#46823C" d="M61.833,24.667l-4.667,10.5L63,36.5V40l-9-1.333c0,0,2.667-11.833,5.333-14.333
		C62.5,23.833,61.833,24.667,61.833,24.667z"/>
	
		<ellipse transform="matrix(0.9854 0.1701 -0.1701 0.9854 12.889 -9.6052)" fill="#FFFFFF" cx="62.5" cy="70.417" rx="6.5" ry="10.584"/>
	
		<ellipse transform="matrix(0.9931 0.1175 -0.1175 0.9931 7.9212 -5.1928)" fill="#FFFFFF" cx="48" cy="64.583" rx="3.166" ry="8.75"/>
	<path fill="#495683" d="M68.905,71.688c0.122-0.708,0.197-1.407,0.23-2.091c-0.724-3.089-2.451-5.265-4.468-5.265
		c-2.669,0-4.833,3.806-4.833,8.5c0,3.63,1.296,6.72,3.117,7.938C65.68,79.762,68.123,76.222,68.905,71.688z"/>
	<ellipse cx="64.833" cy="73" rx="2.833" ry="5.667"/>
	<circle fill="#FFFFFF" cx="65.333" cy="70" r="1.333"/>
	<path fill="#495683" d="M46.333,67.083c0,2.577,0.625,4.814,1.542,5.952c1.439-0.881,2.8-4.108,3.27-8.08
		c0.109-0.919,0.161-1.811,0.164-2.654c-0.527-1.216-1.255-1.968-2.058-1.968C47.639,60.333,46.333,63.355,46.333,67.083z"/>
	<ellipse cx="49.167" cy="67.416" rx="1.5" ry="3.917"/>
	<ellipse fill="#FFFFFF" cx="49.5" cy="66.333" rx="1.167" ry="1.333"/>
	<path fill="#E1B48A" stroke="#000000" stroke-width="0.5" stroke-miterlimit="10" d="M24.167,80.083
		c0-8.055,4.192-12.583,13.167-12.583c8.974,0,18.577,6.527,19.333,12.583c0.98,7.856-7.275,14.584-16.25,14.584
		C31.442,94.667,24.167,88.138,24.167,80.083z"/>
	<g>
		<path d="M102.98,86.212c0,0-0.349-0.073-0.953-0.161c-0.6-0.104-1.471-0.156-2.475-0.136c-1.005,0.035-2.149,0.202-3.232,0.655
			c-1.074,0.467-2.069,1.218-2.809,2.239c-0.394,0.489-0.712,1.048-1,1.617c-0.133,0.293-0.264,0.585-0.394,0.872
			c-0.114,0.3-0.227,0.596-0.337,0.886c-0.172,0.604-0.393,1.176-0.53,1.748c-0.17,0.562-0.268,1.113-0.378,1.619
			c-0.102,0.507-0.18,0.979-0.276,1.397c-0.096,0.417-0.144,0.787-0.193,1.091C90.3,98.648,90.217,99,90.217,99h-0.1
			c0,0,0.006-0.352,0.017-0.967c0.008-0.308,0.003-0.682,0.04-1.109c0.035-0.428,0.043-0.912,0.11-1.437
			c0.109-1.05,0.304-2.271,0.654-3.548c0.102-0.315,0.206-0.636,0.312-0.96c0.128-0.315,0.259-0.635,0.39-0.958
			c0.302-0.627,0.643-1.253,1.077-1.816c0.853-1.142,2.044-2.016,3.302-2.461c1.261-0.448,2.525-0.514,3.578-0.432
			c1.059,0.084,1.919,0.301,2.509,0.48c0.59,0.181,0.914,0.327,0.914,0.327L102.98,86.212z"/>
	</g>
	<g>
		<path d="M97.29,95.308c0,0,0.11-0.732,0.237-1.709c0.021-0.239,0.041-0.498,0.064-0.771c0.011-0.268,0.01-0.541-0.009-0.804
			c0.013-0.273-0.094-0.514-0.13-0.753c-0.044-0.109-0.083-0.219-0.117-0.331l-0.187-0.277c-0.034-0.11-0.136-0.179-0.215-0.261
			c-0.093-0.073-0.135-0.188-0.261-0.239c-0.237-0.104-0.392-0.321-0.673-0.394c-0.262-0.081-0.481-0.253-0.751-0.312
			c-0.263-0.067-0.512-0.156-0.746-0.239c-0.232-0.091-0.465-0.122-0.665-0.184c-0.202-0.048-0.381-0.107-0.529-0.152
			c-0.298-0.096-0.474-0.166-0.474-0.166l-0.006-0.1c0,0,0.172-0.003,0.474-0.007c0.15-0.002,0.333-0.005,0.543-0.008
			c0.21,0.006,0.448-0.027,0.705,0.017c0.258,0.029,0.536,0.062,0.832,0.096c0.298,0.019,0.593,0.15,0.909,0.227
			c0.325,0.06,0.604,0.276,0.916,0.424c0.162,0.068,0.268,0.223,0.405,0.331c0.128,0.121,0.273,0.229,0.354,0.393
			c0.09,0.153,0.191,0.302,0.268,0.46l0.154,0.504c0.056,0.338,0.112,0.683,0.072,1.007c-0.008,0.329-0.067,0.638-0.13,0.93
			c-0.065,0.291-0.151,0.56-0.233,0.805c-0.352,0.976-0.723,1.565-0.723,1.565L97.29,95.308z"/>
	</g>
</g>
</svg>
