<?xml version="1.0" encoding="utf-8"?>
<!-- Generator: Adobe Illustrator 16.0.3, SVG Export Plug-In . SVG Version: 6.00 Build 0)  -->
<!DOCTYPE svg PUBLIC "-//W3C//DTD SVG 1.1//EN" "http://www.w3.org/Graphics/SVG/1.1/DTD/svg11.dtd">
<svg version="1.1" xmlns="http://www.w3.org/2000/svg" xmlns:xlink="http://www.w3.org/1999/xlink" x="0px" y="0px"
	 width="146.993px" height="140.992px" viewBox="0 0 146.993 140.992" enable-background="new 0 0 146.993 140.992"
	 xml:space="preserve">
<g id="Calque_3">
	<circle fill="#B20000" cx="74.156" cy="71.155" r="65.25"/>
</g>
<g id="Calque_2">
	<path fill="#E6B789" stroke="#000000" stroke-miterlimit="10" d="M46.656,59.905c0,0-1.25,9.167-1.75,15.5
		c0.667,0.833-6.167,24.666-6.167,24.666s4.333,16.167,12.5,16.667c3.833,2,29,2.667,41.917-11.083c-0.25-3.417,20,10.625,23-16.125
		c-0.147-10.442-11.75-7.875-12.75-8.125C62.072,28.572,46.656,59.905,46.656,59.905z"/>
	<path fill="#731620" stroke="#000000" stroke-width="0.5" stroke-miterlimit="10" d="M46.656,59.905c0,0-16.25-4.75-13.75-9.75
		c0,0,13-0.75,18,4.25C47.906,56.655,46.656,59.905,46.656,59.905z"/>
	<path d="M90.573,71.738c0,0,0.666,8.499-6.334,12.333c-2.333,5.334,1.833,5.667,2,5.667s-1.167,6.667,1.5,6.667
		c3.834,1.166,11-9.501,14.667-14.334s0.833-11.833,0.833-11.833L90.573,71.738z"/>
	<path d="M60.281,90.468c0,0,4.958-0.896,10.042-3.062c2.208,9.124-5.583,12.582-5.583,12.582s-0.521,0.854-5.167,0.333
		c-1.104-0.354-1.583,5.335-9.667,2.334c0,0-1.75,1.563-5.833,0.833c-2.667-0.083-3.417-1.208-4.667-2.333
		c-0.833-0.834,3.5-13.417,7.5-11.167S60.281,90.468,60.281,90.468z"/>
	<path d="M63.739,60.239c0,0-4,5.833-3.667,7.167c2.25-1.667,10.083-7.083,14.917,2.583c0,0,1.083-5.583,0.583-6.75
		C76.573,60.905,63.739,60.239,63.739,60.239z"/>
	<path fill="#8F1426" stroke="#000000" stroke-width="0.5" stroke-miterlimit="10" d="M32.906,50.405c0,0-2.75-4.75,14.25-4.25
		c0.25-6.25,5.75-21,18.5-24.25c7.75-0.5,24-5.5,50,40.25c14.75,8.75-0.25,22.5-0.25,22.5s-7.5-6-12-3.25s-5-11-11.5-10
		S43.906,47.405,32.906,50.405z"/>
	<ellipse fill="#FFFFFF" cx="59.906" cy="38.03" rx="9.25" ry="10.375"/>
	<path fill="none" stroke="#000000" stroke-width="0.2" stroke-miterlimit="10" d="M93.156,70.905c0,0-20.5-27.5-46-24.75"/>
	<path fill="#8F1426" stroke="#000000" stroke-width="0.5" stroke-miterlimit="10" d="M53.156,45.155"/>
	<path d="M50.906,54.405c0,0,2.438,4.188,0.667,10.333c-0.604-2.958-2-6.5-4.333-5.5S50.906,54.405,50.906,54.405z"/>
	<path fill="#FFFFFF" d="M71.017,78.538c0.818-4.597-0.408-9.989-4.236-10.529c-3.828-0.541-6.481,4.275-7.125,9.021
		c-0.571,4.211,0.296,9.54,4.375,10.453C67.859,88.023,70.21,84.246,71.017,78.538z"/>
	<path fill="#FFFFFF" d="M71.016,78.538c0.837-4.594-0.619-10.019-4.901-10.623c-4.282-0.605-7.165,4.179-7.805,8.925
		c-0.568,4.212,0.487,9.567,5.055,10.55C67.646,87.993,70.209,84.246,71.016,78.538z"/>
	<path fill="#789AC8" d="M69.133,70.649c-2.492-0.533-5.208,2.29-6.066,6.302c-0.858,4.015,0.467,7.7,2.959,8.232
		c1.447,0.31,2.823-0.61,3.892-2.22c0.495-1.275,0.864-2.766,1.099-4.426c0.438-2.46,0.283-5.142-0.535-7.191
		C70.102,71.004,69.654,70.76,69.133,70.649z"/>
	<path d="M70.367,78.442c0.552-2.584,0.22-4.978-1.469-5.339c-1.688-0.36-3.509,1.769-4.061,4.352
		c-0.553,2.585-0.216,4.651,1.473,5.013C67.998,82.828,69.814,81.027,70.367,78.442z"/>
	<circle fill="#FFFFFF" cx="69.339" cy="75.819" r="1.25"/>
	
		<ellipse transform="matrix(0.9914 0.1306 -0.1306 0.9914 9.6787 -5.7894)" fill="#FFFFFF" cx="48.971" cy="70.885" rx="2.676" ry="6.688"/>
	
		<ellipse transform="matrix(0.9914 0.1307 -0.1307 0.9914 9.7968 -5.7831)" fill="#789AC8" cx="48.945" cy="71.725" rx="2.39" ry="5.975"/>
	<ellipse transform="matrix(0.9914 0.1307 -0.1307 0.9914 9.7807 -5.8725)" cx="49.641" cy="71.597" rx="1.717" ry="4.305"/>
	
		<ellipse transform="matrix(0.9914 0.1305 -0.1305 0.9914 9.5107 -5.9044)" fill="#FFFFFF" cx="49.802" cy="69.608" rx="0.96" ry="1.188"/>
	<path fill="#E6B789" stroke="#000000" stroke-miterlimit="10" d="M27.072,86.738c0-6.535,4-13,13.75-11.833
		c7.594,0,13.75,5.298,13.75,11.833s-6.156,11.833-13.75,11.833C33.229,98.571,27.072,93.273,27.072,86.738z"/>
	<g>
		<path d="M97.406,100.405c0,0-0.327-1.426-0.218-3.614c0.05-1.092,0.207-2.374,0.602-3.714c0.372-1.344,1.032-2.739,2.015-3.951
			c0.523-0.579,1.105-1.118,1.771-1.528c0.658-0.415,1.384-0.698,2.096-0.857c0.356-0.085,0.707-0.159,1.056-0.168
			c0.347-0.039,0.684-0.04,1.01-0.019c0.653-0.004,1.254,0.13,1.796,0.241c0.539,0.136,1.027,0.268,1.438,0.444
			c0.418,0.154,0.774,0.3,1.056,0.452c0.567,0.288,0.88,0.464,0.88,0.464s-0.361-0.059-0.974-0.18
			c-0.611-0.12-1.491-0.258-2.523-0.328c-0.258-0.034-0.527-0.005-0.803-0.011c-0.276-0.01-0.558,0.002-0.845,0.036
			c-0.288,0.016-0.579,0.053-0.869,0.124c-0.294,0.049-0.585,0.12-0.873,0.218c-0.586,0.165-1.131,0.469-1.659,0.8
			c-0.526,0.341-0.985,0.795-1.411,1.279c-0.412,0.502-0.795,1.039-1.099,1.624c-0.301,0.584-0.596,1.172-0.812,1.776
			c-0.46,1.198-0.765,2.383-1,3.41C97.584,98.965,97.406,100.405,97.406,100.405z"/>
	</g>
	<g>
		<path d="M99.656,91.155c0,0,0.857-0.216,2.164-0.11c0.328,0.013,0.679,0.077,1.052,0.141c0.368,0.091,0.767,0.164,1.161,0.316
			c0.396,0.146,0.806,0.31,1.196,0.556c0.409,0.198,0.762,0.541,1.131,0.84c0.165,0.179,0.314,0.377,0.468,0.565
			c0.167,0.181,0.284,0.396,0.381,0.625c0.103,0.223,0.213,0.44,0.288,0.665c0.046,0.233,0.09,0.465,0.123,0.691
			c0.118,0.453-0.007,0.883-0.031,1.282c-0.007,0.409-0.2,0.741-0.302,1.062c-0.115,0.316-0.222,0.602-0.387,0.819
			c-0.141,0.229-0.277,0.419-0.387,0.574c-0.221,0.31-0.357,0.474-0.357,0.474s0.024-0.224,0.084-0.592
			c0.031-0.183,0.065-0.404,0.119-0.647c0.07-0.241,0.063-0.527,0.089-0.823c0-0.297,0.087-0.614,0.022-0.934
			c-0.055-0.316-0.018-0.662-0.157-0.967c-0.053-0.156-0.097-0.315-0.14-0.476l-0.245-0.438c-0.068-0.152-0.161-0.294-0.286-0.419
			l-0.336-0.396c-0.284-0.225-0.524-0.489-0.852-0.677c-0.296-0.218-0.625-0.392-0.946-0.566c-0.646-0.345-1.302-0.613-1.875-0.839
			C100.482,91.444,99.656,91.155,99.656,91.155z"/>
	</g>
	<g>
		<path d="M63.406,101.405c0,0-0.238,0.261-0.655,0.716c-0.205,0.228-0.454,0.504-0.739,0.821c-0.15,0.157-0.31,0.324-0.479,0.5
			c-0.169,0.178-0.414,0.28-0.629,0.441c-0.446,0.297-0.952,0.606-1.519,0.859c-0.556,0.278-1.176,0.496-1.818,0.691
			c-0.325,0.086-0.655,0.172-0.99,0.26c-0.338,0.063-0.68,0.124-1.025,0.188c-0.69,0.105-1.397,0.177-2.101,0.222
			c-0.703,0.019-1.41,0.077-2.099,0.044c-0.69-0.019-1.372-0.012-2.024-0.073c-1.311-0.072-2.524-0.212-3.563-0.338
			c-0.257-0.048-0.515-0.016-0.743-0.101c-0.229-0.076-0.447-0.148-0.651-0.217c-0.408-0.136-0.763-0.254-1.055-0.352
			c-0.583-0.199-0.912-0.328-0.912-0.328s0.355-0.024,0.97-0.04c0.306-0.007,0.678-0.014,1.104-0.022
			c0.212-0.004,0.438-0.009,0.677-0.014c0.239-0.01,0.477,0.064,0.735,0.081c1.023,0.124,2.216,0.261,3.498,0.332
			c0.641,0.061,1.301,0.053,1.973,0.071c0.673,0.033,1.35-0.025,2.029-0.042c0.676-0.044,1.351-0.112,2.004-0.212
			c0.325-0.059,0.648-0.117,0.967-0.176c0.312-0.081,0.619-0.162,0.921-0.242c0.596-0.181,1.166-0.381,1.673-0.636
			c0.52-0.231,0.979-0.513,1.395-0.789c0.216-0.128,0.388-0.298,0.592-0.411c0.209-0.108,0.407-0.212,0.593-0.31
			c0.368-0.205,0.705-0.38,0.984-0.522C63.075,101.532,63.406,101.405,63.406,101.405z"/>
	</g>
	<path fill="none" stroke="#000000" stroke-width="0.3" stroke-miterlimit="10" d="M64.906,103.405"/>
	<path fill="none" stroke="#000000" stroke-width="0.3" stroke-miterlimit="10" d="M42.739,107.989"/>
	<polygon fill="#8F1426" points="52.281,40.53 58.281,29.78 59.156,34.78 63.781,30.655 65.531,43.28 62.281,45.03 61.781,35.28 
		58.156,39.28 57.031,35.155 53.531,42.53 	"/>
	<path fill="#8F1426" d="M53.031,48.405l5.25,1.75c0,0,7.125-0.25,5.75-1.5s-11-2.625-11-2.625"/>
	<path fill="#D19058" d="M46.489,107.072c0,0,5.75,3.417,13.5,1"/>
</g>
</svg>
