<?xml version="1.0" encoding="utf-8"?>
<!-- Generator: Adobe Illustrator 16.0.3, SVG Export Plug-In . SVG Version: 6.00 Build 0)  -->
<!DOCTYPE svg PUBLIC "-//W3C//DTD SVG 1.1//EN" "http://www.w3.org/Graphics/SVG/1.1/DTD/svg11.dtd">
<svg version="1.1" id="Calque_2" xmlns="http://www.w3.org/2000/svg" xmlns:xlink="http://www.w3.org/1999/xlink" x="0px" y="0px"
	 width="512.974px" height="506.974px" viewBox="0 0 512.974 506.974" enable-background="new 0 0 512.974 506.974"
	 xml:space="preserve">
<linearGradient id="SVGID_1_" gradientUnits="userSpaceOnUse" x1="112.0537" y1="308.3384" x2="402.1499" y2="308.3384">
	<stop  offset="0" style="stop-color:#84B926"/>
	<stop  offset="0.1599" style="stop-color:#69A91D"/>
	<stop  offset="0.3847" style="stop-color:#4A9713"/>
	<stop  offset="0.6039" style="stop-color:#348A0C"/>
	<stop  offset="0.8127" style="stop-color:#278207"/>
	<stop  offset="1" style="stop-color:#227F06"/>
</linearGradient>
<path fill-rule="evenodd" clip-rule="evenodd" fill="url(#SVGID_1_)" d="M114.897,221.894c0,0-5.667,50.333-1,51.667
	c1,4.5,20.25,20.833,115.75,101.333c0,0,0.083-2.332,3.917,18.334c5.167,5.667,48,2.667,46.333,0
	c2.667-2.999,2.667-16.667,2.667-16.667s108-97.667,114.666-101.667c5-1,6.334-52.667,3.334-54.667
	c-52,12.5-84.667,20.667-140.167,26.167C245.897,248.894,147.23,230.894,114.897,221.894z"/>
</svg>
