<?xml version="1.0" encoding="utf-8"?>
<!-- Generator: Adobe Illustrator 16.0.3, SVG Export Plug-In . SVG Version: 6.00 Build 0)  -->
<!DOCTYPE svg PUBLIC "-//W3C//DTD SVG 1.1//EN" "http://www.w3.org/Graphics/SVG/1.1/DTD/svg11.dtd">
<svg version="1.1" id="Calque_1" xmlns="http://www.w3.org/2000/svg" xmlns:xlink="http://www.w3.org/1999/xlink" x="0px" y="0px"
	 width="512.973px" height="506.973px" viewBox="0 0 512.973 506.973" enable-background="new 0 0 512.973 506.973"
	 xml:space="preserve">
<g id="Calque_3">
	<circle fill="#D86434" cx="255.489" cy="253.933" r="65.25"/>
</g>
<g id="Calque_1_1_">
	<g>
		<path fill="#480C02" d="M254.795,201.89c0.434-0.291,0.866-0.27,1.299,0.004c0.275,0.181,0.359,0.454,0.361,0.765
			c0.02,1.956,0.004,3.913,0.011,5.869c-0.001,2.097-0.001,4.192,0,6.288c0.002,2.303,0.159,4.607,0.086,6.912
			c-0.026,0.847,0.278,1.23,1.163,1.268c1.168,0.05,2.313,0.342,3.466,0.532c0.894,0.218,1.79,0.427,2.666,0.71
			c2.111,0.705,4.18,1.512,6.078,2.697c0.74,0.359,1.371,0.9,2.098,1.284c5.824,3.947,10.14,9.25,13.689,15.239
			c0.265,0.447,0.596,0.904,0.452,1.49c-0.252,0.474-0.637,0.675-1.171,0.568c-0.95-0.479-1.217-1.498-1.788-2.276
			c-0.268-0.364-0.497-0.757-0.761-1.124c-0.38-0.506-0.706-1.053-1.146-1.515c-2.958-4.282-6.627-7.839-10.939-10.74
			c-0.781-0.44-1.438-1.087-2.299-1.397c-0.889-0.531-1.773-1.064-2.771-1.378c-1.037-0.532-2.152-0.829-3.282-1.084
			c-3.219-1.02-6.514-1.057-9.833-0.781c-2.603,0.403-5.126,1.074-7.501,2.24c-0.806,0.357-1.589,0.762-2.37,1.172
			c-2.987,1.729-5.697,3.813-8.077,6.318c-0.163,0.206-0.372,0.364-0.564,0.539c-0.723,0.57-1.248,1.322-1.828,2.024
			c-0.745,0.77-1.4,1.612-2.029,2.477c-0.405,0.535-0.845,1.043-1.184,1.627c-0.733,1.09-1.492,2.164-2.136,3.312
			c-0.162,0.288-0.287,0.624-0.652,0.74c-0.937,0.023-1.14-0.567-1.123-1.341c-0.007-0.178,0.025-0.352,0.084-0.519
			c0.497-0.831,1.016-1.649,1.516-2.481c0.13-0.225,0.251-0.456,0.383-0.68c0.594-0.899,1.276-1.739,1.788-2.692
			c0.085-0.131,0.186-0.25,0.294-0.364c0.485-0.462,0.981-0.916,1.325-1.504c3.142-3.899,6.883-7.08,11.275-9.498
			c3.031-1.669,6.269-2.719,9.656-3.357c0.921-0.204,1.877-0.124,2.791-0.36c0.614-0.265,0.596-0.805,0.595-1.342
			c-0.001-2.447,0-4.895-0.001-7.343c0.002-1.716,0.001-3.431,0-5.146c0.001-0.782,0.001-1.564,0-2.347
			c-0.004-1.28-0.003-2.558,0-3.838C254.407,202.48,254.432,202.118,254.795,201.89z"/>
		<path fill="#300A02" d="M301.607,234.573c0.05,0.405,0.253,0.66,0.681,0.699c-0.018,0.833-0.843,1.01-1.242,1.534
			c-0.816,0.518-1.409,1.277-2.08,1.952c-2.912,2.661-4.166,6.1-4.648,9.904c-0.146,0.521-0.138,1.052-0.13,1.584
			c0.058,4.435-0.116,8.873,0.102,13.307c0.038,0.792,0.061,1.594-0.084,2.382c-0.149,0.671-0.628,1.128-1.113,1.547
			c-2.014,1.733-3.908,3.604-6.071,5.163c-0.597,0.04-1.013-0.219-1.253-0.764c0.016-0.609,0.579-0.816,0.884-1.216
			c1.527-1.457,3.169-2.785,4.762-4.169c0.619-0.538,0.943-1.126,0.935-1.95c-0.012-1.056-0.052-2.114,0.012-3.172
			c0.024-3.378,0.076-6.756-0.008-10.131c-0.12-4.852,1.288-9.157,4.292-12.953c1.322-1.283,2.531-2.698,4.161-3.633
			C301.06,234.528,301.32,234.423,301.607,234.573z"/>
		<path fill="#2D0802" d="M208.56,235.299c0.421-0.048,0.537-0.399,0.7-0.704c0.408-0.234,0.706,0.05,1.029,0.216
			c0.439,0.288,0.844,0.624,1.279,0.919c0.78,0.653,1.5,1.367,2.212,2.094c3.313,3.644,4.73,8.008,4.797,12.849
			c0.054,3.916,0.028,7.834-0.027,11.751c0.098,0.625-0.013,1.246-0.032,1.868c-0.134,1.086,0.355,1.859,1.173,2.529
			c1.403,1.147,2.753,2.356,4.138,3.527c0.485,0.41,1.039,0.78,1.133,1.494c-0.093,0.552-0.468,0.774-0.98,0.833
			c-0.482-0.033-0.843-0.314-1.154-0.64c-0.935-0.979-1.996-1.817-3-2.716c-0.79-0.749-1.76-1.29-2.467-2.137
			c-0.34-0.308-0.61-0.653-0.645-1.136c-0.047-5.116-0.01-10.231-0.019-15.347c0-0.568,0-1.136-0.166-1.687
			c-0.147-0.498-0.019-1.031-0.198-1.524c-0.241-1.725-0.864-3.329-1.542-4.917c-0.463-0.888-1.033-1.707-1.65-2.494
			c-0.486-0.714-1.143-1.27-1.748-1.873c-0.238-0.262-0.488-0.512-0.755-0.745c-0.459-0.489-1.048-0.822-1.535-1.278
			C208.842,235.942,208.464,235.762,208.56,235.299z"/>
		<path fill="#952513" d="M217.034,282.598c-4.805-3.438-9.088-7.396-12.389-12.345c-2.268-3.755-3.563-7.848-4.176-12.168
			c-0.159-1.121-0.43-2.237-0.328-3.387c0.389-0.554-0.03-1.097-0.022-1.646c0.053-4.078,0.466-8.092,2.438-11.758
			c1.158-2.155,2.828-3.848,5.102-4.847c0.793-0.348,1.63-0.524,2.126,0.517c-0.1,0.398-0.438,0.378-0.72,0.354
			c-0.995-0.085-1.729,0.363-2.345,1.08c-1.165,0.81-2.098,1.833-2.807,3.062c-1.647,2.405-2.14,5.163-2.503,7.974
			c-0.65,5.032,0.249,9.912,1.622,14.688c1.076,3.739,3.326,6.879,5.925,9.769c2.148,2.388,4.534,4.499,7.077,6.44
			c0.473,0.361,0.81,0.791,0.997,1.349C217.048,281.984,217.715,282.29,217.034,282.598z"/>
		<path fill="#861E11" d="M306.219,270.024c-3.043,4.603-6.835,8.491-11.244,11.789c-0.365,0.273-0.749,0.517-1.125,0.773
			c-0.241-0.27-0.139-0.548-0.025-0.828c0.142-0.8,0.646-1.301,1.27-1.799c3.937-3.153,7.552-6.61,10.264-10.927
			c1.829-2.91,2.899-6.072,3.498-9.436c0.34-1.904,0.6-3.813,0.764-5.737c0.17-1.359,0.261-2.716-0.069-4.066
			c-0.391-1.342-0.367-2.758-0.716-4.105c0.034-0.529-0.346-1.05-0.038-1.584c0.765-0.439,0.652,0.34,0.796,0.632
			c0.369,0.754,0.214,1.68,0.728,2.4c0.479,1.655,0.478,3.355,0.444,5.053c-0.096,4.881-0.866,9.644-2.716,14.184
			C307.537,267.629,306.833,268.81,306.219,270.024z"/>
		<path fill="#9A260D" d="M301.607,234.573c-0.215,0.092-0.427,0.186-0.642,0.278c-0.71-0.166-0.196-0.865-0.524-1.196
			c-0.786-3.054-1.83-6.015-3.065-8.916c-1.054-2.472-2.282-4.844-4.341-6.608c-3.194-2.743-6.57-5.255-10.343-7.176
			c-0.376-0.192-0.698-0.458-1.063-0.665c-0.412-0.46-0.992-0.655-1.503-0.961c-0.331-0.196-0.816-0.294-0.69-0.865
			c0.179-0.171,0.397-0.217,0.634-0.206c1.89,0.634,3.559,1.694,5.243,2.722c0.609,0.371,1.171,0.829,1.885,1.004
			c4.93,3.175,9.168,6.936,11.291,12.652c1.096,2.953,2.15,5.915,3.068,8.927C301.66,233.9,301.679,234.232,301.607,234.573z"/>
		<path fill="#C26628" d="M217.965,216.335c8.65-7.307,18.318-12.522,29.61-14.381c1.147-0.189,2.321-0.211,3.483-0.311
			c0.248-0.092,0.602-0.223,0.683,0.076c0.108,0.402-0.321,0.441-0.6,0.493c-2.563,0.472-5.141,0.898-7.647,1.616
			c-2.794,0.799-5.594,1.614-8.165,3.028c-0.441,0.326-0.943,0.506-1.475,0.616c-2.698,0.791-5.012,2.34-7.377,3.779
			c-2.5,1.52-4.928,3.148-7.238,4.951C218.621,216.684,218.489,216.667,217.965,216.335z"/>
		<path fill="#B34618" d="M287.198,211.984c-0.639,0.283-1.088-0.209-1.501-0.484c-1.762-1.177-3.702-2.003-5.565-2.978
			c-2.733-1.016-5.344-2.34-8.124-3.237c-3.247-1.048-6.517-1.983-9.923-2.419c-1.088-0.139-2.191-0.112-3.273-0.366
			c-0.607-0.143-1.284-0.147-1.877,0.248c-0.266,0.177-0.576,0.243-0.751-0.16c-0.03-0.231-0.06-0.462-0.089-0.693
			c0.24-0.65,0.801-0.466,1.266-0.454c6.573,0.169,12.828,1.718,18.855,4.31C280.112,207.425,283.756,209.52,287.198,211.984z"/>
		<path fill="#B64E1F" d="M217.965,216.335c0.632,0.222,0.944-0.32,1.329-0.605c4.037-2.986,8.219-5.738,12.734-7.959
			c0.548-0.27,1.101-0.517,1.71-0.605c0.276,0.782-0.416,0.913-0.836,1.104c-2.983,1.363-5.774,3.059-8.507,4.857
			c-2.382,1.568-4.747,3.157-6.868,5.083c-2.034,1.846-3.145,4.273-4.252,6.692c-1.125,2.457-1.899,5.046-2.711,7.619
			c-0.194,0.613-0.372,1.228-0.098,1.891c0.083,0.2,0.23,0.632-0.297,0.647c-0.303-0.155-0.606-0.31-0.909-0.464
			c-0.181-0.259-0.258-0.51-0.153-0.847c1.409-4.542,2.809-9.086,5.21-13.238C215.262,218.878,216.436,217.452,217.965,216.335z"/>
		<path fill="#A63317" d="M209.718,237.097c-0.493-0.642-1.071-0.698-1.797-0.373c-2.874,1.286-4.752,3.529-5.848,6.374
			c-1.359,3.533-2.028,7.212-1.57,11.026c0.039,0.326-0.029,0.516-0.361,0.574c-0.015-0.369-0.029-0.736-0.043-1.104
			c-0.159-1.092-0.152-2.185-0.004-3.278c0.059-4.361,1.098-8.399,3.903-11.856c0.996-1.226,2.227-2.166,3.596-2.935
			c0.3-0.168,0.6-0.338,0.966-0.227c0.778,0.67,1.557,1.34,2.334,2.01c0.983,1.746,0.069,3.455-2.021,3.784
			c-0.442-0.408-0.178-0.836,0.136-1.038C210.229,239.276,210.255,238.268,209.718,237.097z"/>
		<path fill="#AE4D1F" d="M235.089,206.688c0.418-0.701,1.217-0.739,1.858-1.005c4.564-1.895,9.336-3.03,14.205-3.802
			c0.063-0.01,0.438,0.206,0.232-0.176c-0.033-0.061-0.213-0.043-0.325-0.062c1.03-0.354,2.1-0.141,3.15-0.21
			c0.311-0.021,0.469,0.203,0.586,0.457c-0.031,0.312-0.062,0.624-0.092,0.936c-0.137,0.325-0.029,1.199-0.712,0.356
			c-0.633-0.78-1.488-0.531-2.229-0.451c-3.464,0.373-6.863,1.089-10.197,2.118c-1.74,0.537-3.422,1.212-5.108,1.888
			C235.998,206.92,235.529,207.143,235.089,206.688z"/>
		<path fill="#97220D" d="M310.32,247.136c-0.368,0.032-0.376,0.034-0.45-0.33c-0.199-0.986-0.262-2.018-0.933-2.848
			c-0.045-0.029-0.09-0.058-0.137-0.086c-0.627-1.49-1.352-2.934-2.368-4.197c-0.777-0.965-1.671-1.82-2.855-2.291
			c-0.772-0.532-1.666-0.569-2.556-0.633c-0.034-0.042-0.068-0.083-0.103-0.126c0.348-0.559,0.909-0.906,1.369-1.354
			c2.524,0.802,4.192,2.634,5.585,4.747C309.293,242.172,309.911,244.624,310.32,247.136z"/>
		<path fill="#952513" d="M200.094,250.316c0.002,1.094,0.003,2.186,0.004,3.278C199.826,252.502,199.815,251.41,200.094,250.316z"
			/>
		<path fill="#17181A" d="M266.202,308.989"/>
		<path fill="#17181A" d="M292.803,304.873"/>
		<path fill="#1E1B1C" d="M220.457,284.424c-0.149-0.077-0.297-0.153-0.446-0.229c-0.627-0.426-1.368-0.645-1.972-1.115
			c-1.106-0.861-1.36-1.961-0.527-3.063c0.472-0.624,0.725-1.568,1.749-1.63c0.231,0.079,0.346,0.272,0.457,0.471
			c0.613,1.104,0.798,1.142,1.829,0.365c0.3-0.227,0.582-0.477,0.856-0.734c1.395-1.313,1.478-1.909,0.486-3.491
			c0.046-0.577,0.381-0.922,0.927-0.989c0.526-0.065,0.817,0.33,1.075,0.719c0.189,0.288,0.337,0.603,0.422,0.934
			c0.169,0.65,0.547,1.052,1.22,1.203c0.705,0.158,1.141,0.729,1.655,1.176c1.149,1.015,1.94,2.229,2.105,3.789
			c0.068,0.525-0.007,1.158,0.83,1.114c2.23,0.355,3.25,2.001,3.787,3.898c0.325,1.147,0.652,1.855,1.957,1.999
			c0.954,0.104,1.535,0.922,1.935,1.769c0.285,0.604,0.638,0.83,1.334,0.656c0.477-0.119,1.142-0.339,1.339,0.489
			c-1.606,0.3-1.962,1.615-2.284,2.901c-0.319,1.278-0.05,2.497,0.68,3.593c0.317,0.476,0.706,0.977,1.358,0.888
			c0.641-0.087,0.707-0.707,0.894-1.203c0.265-0.705,0.146-1.431,0.188-2.148c0.029-0.484-0.06-1.108,0.593-1.196
			c0.765-0.104,0.724,0.635,0.898,1.098c0.134,0.358,0.058,0.756,0.097,1.134c0.132,1.279,0.496,2.403,1.953,2.744
			c0.093,0.12,0.034-0.071,0.086,0.067c0.519,1.364,0.273,2.83,0.553,4.229c0.003,0.018-0.12,0.032-0.199,0.01
			c-2.022-1.079-4.369-1.277-6.396-2.118c-2.157-0.897-4.231-2.212-6.322-3.38c-1.435-0.801-2.136-2.469-3.274-3.547
			c-1.122-1.065-2.828-1.563-3.823-2.916c-0.492-0.671-0.96-1.368-1.234-2.167c-0.225-0.656-0.527-1.257-1.128-1.654
			c-0.443-0.563-1.139-0.891-1.44-1.589c-0.36-0.837-0.132-1.354,0.757-1.472c0.713-0.093,1.427-0.198,2.145-0.265
			c1.207-0.112,2.126-0.802,2.878-1.664c0.792-0.912,0.781-1.971-0.038-3.022c-1.744-2.24-2.375-2.3-4.242-0.273
			c-1.014,1.102-1.798,2.322-2.078,3.854C221.914,284.661,221.435,284.82,220.457,284.424z"/>
		<path fill="#741209" d="M263.413,304.071c-0.383,0.392,0.043,1.024-0.415,1.395c-0.429,0.351-0.914,0.611-1.384,0.898
			c-0.736,0.302-1.504,0.455-2.301,0.443c-0.975-0.067-1.946,0.055-2.92,0.025c-0.834-0.024-1.328-0.294-1.114-1.233
			c0.28-0.449,0.735-0.315,1.136-0.313c0.951,0.006,1.903,0.019,2.855,0.004c1.908-0.03,2.839-0.782,3.246-2.691
			c0.285-1.34,0.467-2.701,0.651-4.06c0.288-2.112,0.558-4.226,0.735-6.351c0.027-0.328,0.163-0.773-0.192-0.938
			c-0.39-0.181-0.54,0.305-0.786,0.508c-0.488,0.405-0.759,1.232-1.653,0.848c-0.525-0.738-0.048-1.488,0.026-2.212
			c0.165-1.575,0.276-3.164,0.695-4.704c3.541-4.021,7.828-7.194,12.027-10.457c2.038-1.582,4.395-2.569,6.98-2.93
			c0.535-0.073,1.113-0.175,1.438,0.384c0.354,0.603-0.16,0.982-0.49,1.381c-2.636,3.174-5.801,5.787-8.905,8.471
			c-1.864,1.612-3.836,3.104-5.589,4.846c-0.357,0.355-0.676,0.723-0.764,1.241c-0.862,3.586-1.452,7.226-2.141,10.845
			c-0.214,1.121-0.43,2.243-0.612,3.371C263.866,303.289,263.803,303.753,263.413,304.071z"/>
		<path fill="#211F1F" d="M286.768,288.088c-0.504,0.354-0.832,0.798-1.077,1.396c-0.92,2.247-2.288,4.111-4.719,4.927
			c-0.49,0.164-0.677,0.602-0.903,0.979c-1.36,2.249-3.231,3.802-5.851,4.333c-0.456,0.093-0.723,0.39-1.019,0.676
			c-1.281,1.232-2.742,2.041-4.586,1.862c-0.769-0.073-1.398,0.158-1.999,0.614c-0.605,0.46-1.283,0.801-2.026,0.996
			c-0.427-0.487-0.494-0.57-0.039-1.129c0.595-0.728,0.698-1.378,0.289-2.258c-0.285-0.619-0.381-1.404,0.31-1.966
			c0.535,0.027,1.026-0.097,1.172-0.673c0.327-1.295,0.562-2.604,0.325-3.949c-0.07-0.396-0.32-0.679-0.564-0.969
			c-0.145-0.546,0.008-0.938,0.574-1.113c0.116-0.008,0.229,0.013,0.335,0.058c0.793,0.503,0.885,1.313,0.927,2.221
			c-0.008-1.069,0.396-1.815,1.286-2.284c0.1-0.05,0.204-0.086,0.311-0.113c1.099-0.213,1.84,0.287,2.32,1.22
			c0.722,1.401,1.218,2.853,0.915,4.477c-0.085,0.46-0.267,1.009,0.3,1.328c0.399,0.225,0.739,0.025,1.014-0.268
			c0.489-0.521,0.297-1.019-0.048-1.539c-0.57-0.855-1.441-1.612-1.047-2.829c0.567-0.229,0.656,0.288,0.894,0.575
			c0.442,0.538,0.927,1.096,1.693,0.905c0.858-0.212,1.306-0.897,1.415-1.741c0.17-1.315-0.401-2.354-1.393-3.159
			c-0.379-0.308-0.837-0.514-1.347-0.151c-0.729,0.519-1.169,1.164-1.074,2.102c0.05,0.496,0.4,1.038-0.192,1.453
			c-1.024-0.915-1.237-2.387-0.482-3.429c0.221-0.306,0.499-0.565,0.73-0.864c0.119-0.136,0.262-0.241,0.423-0.32
			c1.801-0.489,3.128,0.196,4.316,2.231c0.389,0.667,0.582,1.395,0.727,2.15c0.15,0.782,0.578,0.9,1.197,0.389
			c1.054-0.871,0.967-1.404-0.278-1.969c-1.482-0.673-2.451-1.857-3.247-3.248c-0.981-1.709,2.181-5.739,3.916-5.536
			c1.438,0.17,3.543,2.086,4.005,3.717c0.128,0.452-0.092,1.248,0.7,1.215c0.669-0.026,0.994-0.641,1.223-1.224
			c0.228-0.579-0.071-0.944-0.554-1.208c-0.371-0.201-0.807-0.247-1.17-0.454c-0.54-0.309-1.231-0.51-1.167-1.351
			c0.958-0.159,1.809,0.368,2.738,0.432c0.788,0.054,1.672,0.396,2.193-0.428c0.499-0.785,0.161-1.642-0.265-2.373
			c-0.532-0.916-1.116-1.81-2.019-2.433c-0.557-0.385-1.079-0.427-1.692-0.08c-1.363,0.768-1.889,1.759-1.675,3.365
			c0.04,0.307,0.098,0.601-0.118,0.867c-0.35,0.139-0.534-0.089-0.718-0.318c-0.702-1.07-0.404-2.085,0.166-3.087
			c0.052-0.105,0.117-0.2,0.192-0.288c0.366-0.388,0.743-0.762,1.126-1.131c1.382-1.33,2.852-1.308,4.164,0.101
			c0.7,0.75,1.363,1.555,1.782,2.494c0.446,0.999,0.921,1.979,1.485,2.913c-0.076,0.075-0.152,0.149-0.229,0.223
			C288.963,285.398,288.12,286.998,286.768,288.088z"/>
		<path fill="#8E2314" d="M255.446,305.455c-0.114,0.927,0.358,1.156,1.203,1.164c0.888,0.008,1.805-0.241,2.664,0.188
			c-3.616,0.582-7.196,0.349-10.75-0.479c-0.55-0.128-0.852-0.423-0.896-1.012c-0.031-0.413-0.159-0.818-0.243-1.228
			c-0.177-0.196-0.366-0.396-0.416-0.663c-0.523-2.802-1.177-5.581-1.398-8.434c0.346-0.53,0.297-1.165,0.458-1.742
			c0.153-0.551,0.331-1.128,0.999-1.265c0.605-0.125,0.993,0.259,1.355,0.668c1.271,1.439,2.014,3.08,2.116,5.031
			c0.047,0.895,0.153,1.803,0.392,2.681c0.065,0.441,0.35,0.578,0.766,0.667c0.947,0.204,1.907,0.308,2.865,0.417
			c0.418,0.047,0.824,0.066,1.085,0.464C255.922,303.113,256.184,304.313,255.446,305.455z"/>
		<path fill="#200804" d="M273.735,289.68c-0.079,0.078-0.158,0.155-0.237,0.232c-1.247,0.929-2.605,1.635-4.108,2.053l-0.007,0.005
			c-0.835,0.37-1.671,0.605-2.506,0.001l-0.009-0.007c-0.697-0.724-0.791-2.012-0.121-2.966c0.449-0.638,0.973-1.252,1.798-1.452
			c0.571,0.254,0.296,0.713,0.217,1.076c-0.161,0.739,0.177,0.985,0.841,0.981c0.666-0.003,1.264-0.235,1.843-0.544
			c1.607-0.856,2.92-2.061,4.059-3.463c1.104-1.358,2.125-2.784,3.396-4.006c0.541-0.521,0.987-1.148,1.195-2.006
			c-0.855-0.091-1.351,0.507-1.963,0.799c-0.46,0.22-0.834,0.722-1.446,0.424c-0.212-0.521,0.202-0.948,0.211-1.438
			c0.906-1.332,2.247-2.214,3.426-3.259c1.468-1.302,2.95-2.591,4.479-3.821c0.304-0.243,0.563-0.656,1.064-0.434
			c0.376,0.225,0.752,0.451,1.128,0.678c0.64-0.186,0.876,0.464,1.34,0.643c0.091,0.053,0.174,0.115,0.254,0.183
			c0.444,0.428,0.872,0.873,1.328,1.288c0.55,0.619,1.273,1.041,1.855,1.622c0.544,0.535,0.94,1.197,1.496,1.724
			c0.969,1.159,1.207,2.468,0.801,3.908c-0.072,0.228-0.145,0.456-0.218,0.686c-0.887,0.73-1.83,1.358-2.976,1.612
			c-0.114-0.652,0.446-0.77,0.823-1.012c0.692-0.445,1.396-0.871,1.578-1.768c-0.114-1.241-0.469-2.358-1.439-3.237
			c-1.407-1.275-2.643-2.733-4.117-3.946c-0.69-0.566-1.112-0.518-1.422,0.343c-0.183,0.51-0.521,0.93-0.915,1.295
			c-1.965,1.823-3.541,3.953-4.997,6.19c-0.871,1.34-2.229,2.28-3.111,3.625c-0.643,0.98-1.106,2.07-1.976,2.912
			C274.825,289.06,274.339,289.441,273.735,289.68z"/>
		<path fill="#1C0907" d="M228.011,278.25c-0.695-0.492-1.248-1.209-2.239-1.2c-0.431,0.004-0.553-0.467-0.683-0.82
			c-0.117-0.315-0.16-0.662-0.298-0.968c-0.58-1.297-0.917-1.331-1.814-0.21c-0.024,0.39-0.32,0.61-0.542,0.876
			c-0.464,0.454-0.922,0.912-1.369,1.384c-0.575,0.394-0.847,1.23-1.725,1.18c-0.851,0.521-1.407,1.336-1.803,2.185
			c-0.495,1.058-0.056,1.894,1.088,2.602c0.471,0.291,1.085,0.37,1.385,0.919c-1.147-0.244-2.083-0.882-2.977-1.599
			c0.237-0.328-0.215-0.442-0.218-0.695c-0.366-1.024-0.296-2.013,0.235-2.965c0.262-0.688,0.68-1.264,1.247-1.731
			c0.251-0.321,0.529-0.621,0.815-0.911c0.251-0.234,0.493-0.479,0.741-0.718c0.105-0.104,0.221-0.194,0.342-0.279
			c0.292-0.177,0.539-0.409,0.781-0.649c0.323-0.31,0.646-0.62,0.952-0.946c0.63-0.409,1.061-1.143,1.919-1.179
			c0.403-0.16,0.827-0.294,0.983-0.771c0.382-0.167,0.669,0.04,0.928,0.267c2.319,2.024,4.704,3.976,6.98,6.053
			c0.145,0.171,0.259,0.363,0.347,0.57c0.108,0.473,0.531,0.896,0.237,1.435c-0.543,0.215-0.805-0.231-1.149-0.484
			c-1.09-1.044-2.214-2.036-3.71-2.616C228.497,278.133,228.497,278.133,228.011,278.25z"/>
		<path fill="#160F0F" d="M277.156,279.377c0.094,0.543-0.147,0.977-0.451,1.392c0.156,0.416-0.142,0.643-0.392,0.859
			c-2.243,1.938-4.498,3.863-6.791,5.741c-0.231,0.188-0.469,0.409-0.814,0.26c-2.068,1.584-2.371,2.278-1.84,4.334
			c-0.52,0.094-0.613,0.498-0.676,0.925c0.065,0.091,0.172,0.183,0.166,0.288c-0.092,1.859-0.293,3.699-1.093,5.416
			c-0.329,0.8-0.437,1.598,0.156,2.32c0.42,0.513,0.327,0.917-0.073,1.399c-0.367,0.445-1.035,0.787-0.76,1.56
			c-0.347,0.333-0.775,0.179-1.176,0.198c0.322-3.072,1.034-6.076,1.589-9.107c0.313-1.707,0.646-3.411,0.946-5.121
			c0.094-0.526,0.204-1.036,0.476-1.502c1.059-1.459,2.573-2.439,3.901-3.604c1.842-1.619,3.75-3.165,5.595-4.783
			C276.274,279.641,276.544,279.137,277.156,279.377z"/>
		<path fill="#1B1615" d="M293.615,281.448c-0.044,1.025-0.843,1.443-1.557,1.926c-0.399,0.269-0.941,0.33-1.184,0.825
			c-0.071,0.001-0.142,0.002-0.212,0.002c-0.791-0.414-1.165-1.078-1.429-1.934c-0.443-1.437-1.388-2.621-2.479-3.609
			c-1.088-0.983-2.158-0.835-3.227,0.192c-0.437,0.42-0.892,0.82-1.339,1.229c-0.029-1.157,1.536-2.802,2.87-2.79
			c0.941,0.008,1.057-0.287,0.943-1.105c-0.111-0.772,0.233-1.44,1.013-1.722c0.598-0.216,1.029,0.053,1.221,0.67
			c-0.73,1.896-0.587,2.465,0.872,3.475c0.907,0.627,1.063,0.566,1.254-0.496c0.041-0.225,0.081-0.444,0.273-0.599
			c1.529,0.421,2.144,1.655,2.66,2.981C293.417,280.806,293.33,281.189,293.615,281.448z"/>
		<path fill="#121212" d="M233.265,280.079c-0.146-0.48-0.292-0.964-0.438-1.445c0.473-0.121,0.804,0.153,1.122,0.426
			c3.611,3.091,7.242,6.159,10.834,9.277c0.79,2.125,1.239,4.307,1.091,6.586c0.488,2.756,0.979,5.512,1.461,8.269
			c0.052,0.296,0.061,0.599,0.09,0.898c-0.383-0.046-0.806,0.112-1.133-0.22c-0.53-1.336-0.438-2.742-0.458-4.137
			c-0.345-0.316-0.378-0.769-0.507-1.179c-0.315-2.055-0.76-4.085-1.107-6.132c-0.079-0.216-0.094-0.441-0.104-0.668
			c-0.033-0.268-0.221-0.479-0.281-0.737c0.038-1.299-0.584-2.226-1.643-2.906c-2.729-2.276-5.415-4.604-8.129-6.898
			C233.715,280.918,233.202,280.686,233.265,280.079z"/>
		<path fill="#2F2B2C" d="M220.457,284.424c0.877,0.105,1.238-0.224,1.412-1.157c0.443-2.378,1.974-4.03,3.966-5.296
			c0.427-0.271,0.82-0.115,1.163,0.144c0.333,0.25,0.619,0.561,0.922,0.848c2.746,2.609,1.359,4.646-1.42,5.904
			c-0.823,0.372-1.767,0.396-2.674,0.476c-0.355,0.03-0.812-0.166-1.01,0.302c-0.18,0.421,0.229,0.685,0.356,1.026
			c0.206,0.552,0.991,0.709,0.944,1.416C222.462,287.299,220.924,286.396,220.457,284.424z"/>
		<path fill="#2D2A2A" d="M286.768,288.088c1.099-1.345,1.672-3.214,3.665-3.664C289.958,286.393,288.421,287.299,286.768,288.088z"
			/>
		<path fill="#8E2314" d="M261.614,306.364c0.372-0.438,0.621-1.062,1.384-0.899C262.988,306.46,262.196,306.25,261.614,306.364z"/>
		<path fill="#9B2C0F" d="M281.513,240.525c0.575,0.294,0.763,0.912,1.142,1.371c-0.516,0.66-0.814-0.016-1.063-0.245
			c-1.256-1.158-2.434-2.399-3.647-3.601c-0.405-0.401-0.824-0.786-1.314-1.084c-0.494-0.301-0.616-0.2-0.782,0.404
			c-0.684,2.485-1.047,5.044-1.762,7.516c-0.265,0.912-0.719,1.768-0.271,2.739c0.064,0.142-0.04,0.292-0.144,0.412
			c-0.258,0.245-0.582,0.349-0.914,0.427c-2.503,0.58-5.041,0.98-7.569,1.425c-0.336,0.06-0.677,0.084-0.997-0.081
			c-0.499-0.437-0.258-0.982-0.214-1.495c0.236-2.781,1.453-5.271,2.396-7.833c0.866-2.349,1.323-4.757,1.492-7.234
			c0.038-0.571,0.087-1.139,0.202-1.699c0.269-1.303,0.987-1.717,2.239-1.21c1.062,0.43,2.022,1.063,2.93,1.757
			C276.393,234.512,279.142,237.333,281.513,240.525z"/>
		<path fill="#9A2C0B" d="M235.089,206.688c0.811,0.103,1.48-0.336,2.16-0.636c3.881-1.719,7.997-2.599,12.125-3.42
			c1.107-0.221,2.263-0.201,3.397-0.279c0.63-0.043,1.231-0.008,1.514,0.718c0.056,0.141,0.144,0.099,0.419-0.245
			c0,1.285,0,2.571,0,3.856c-0.514-0.163-0.099,0.354-0.304,0.419c-0.609,1.208-1.578,1.812-2.941,1.765
			c-5.257-0.182-10.092,1.447-14.817,3.496c-3.528,1.53-6.835,3.441-9.995,5.654c-4.603,3.224-7.904,7.382-9.799,12.673
			c-0.514,1.432-0.962,2.891-1.572,4.286c-0.86,1.966-1.681,2.2-3.521,1.07c-0.133-0.082-0.263-0.146-0.423-0.107
			c-0.386-0.292-0.773-0.585-1.16-0.878c-0.425-3.365,1.33-6.192,2.345-9.184c0.705-2.079,1.719-4.058,2.995-5.867
			c1.834-2.598,4.438-4.345,7.025-6.057c2.588-1.712,5.128-3.52,7.948-4.861c0.821-0.39,1.635-0.796,2.447-1.205
			c0.331-0.166,0.736-0.259,0.81-0.72C234.188,207.006,234.638,206.847,235.089,206.688z"/>
		<path fill="#B03815" d="M281.513,240.525c-1.118-1.17-2.264-2.316-3.347-3.517c-2.254-2.494-4.808-4.614-7.75-6.239
			c-1.258-0.694-1.779-0.421-1.962,0.976c-0.33,2.51-0.425,5.066-1.212,7.49c-0.713,2.195-1.654,4.315-2.355,6.513
			c-0.399,1.25-0.521,2.589-0.768,3.889c-1.24,0.918-2.629,0.932-4.063,0.669c-0.59-0.436-0.534-1.048-0.435-1.66
			c0.421-2.631,0.859-5.25,0.992-7.924c0.144-2.913,1.16-5.568,2.963-7.899c0.559-0.722,1.049-1.491,1.394-2.351
			c0.742-1.852,0.894-1.938,2.861-1.93c1.037-0.014,1.715,0.884,2.679,1.055c3.397,2.019,6.099,4.825,8.69,7.742
			C280.069,238.317,281.034,239.251,281.513,240.525z"/>
		<path fill="#D9804B" d="M225.053,243.798c-0.005,0.132-0.011,0.263-0.017,0.395c-0.335,0.401-0.157,1.681-1.275,0.748
			c0.494-1.763-0.356-2.999-1.371-4.382c-3.95-5.39-3.033-10.992,0.722-15.83c0.818-1.054,1.783-1.96,2.661-2.954
			c5.336-4.042,11.334-6.595,17.878-7.898c2.832-0.564,5.679-1.035,8.588-0.823c0.594,0.043,0.843-0.392,1.151-0.79
			c0.255-0.329,0.314-1.045,1.041-0.666c0.197,0.895,0.059,1.799,0.086,2.698c-0.64,2.179-1.108,2.518-3.313,2.387
			c-6.575-0.388-12.742,1.303-18.744,3.746c-2.512,1.021-4.836,2.355-6.708,4.406c-3.886,4.256-4.188,9.464-1.066,13.897
			C225.918,240.479,226.027,242.03,225.053,243.798z"/>
		<path fill="#A13410" d="M256.183,202.587c4.197-1.017,8.18,0.278,12.161,1.238c3.733,0.9,7.298,2.328,10.758,4.004
			c0.381,0.185,0.729,0.396,1.029,0.692c-0.229,0-0.457,0-0.686,0.001c-0.518,0.389-0.941,0-1.368-0.191
			c-4.405-1.97-8.919-3.651-13.655-4.609c-2.027-0.41-4.062-0.969-6.177-0.81c-0.687,0.052-1.332,0.113-1.269,1.052
			c0.011,0.363,0.011,0.727-0.01,1.09c-0.057,0.295-0.047,0.594-0.046,0.892c0.173,1.287,0.546,1.747,1.759,2.046
			c1.656,0.408,3.334,0.729,5,1.105c2.165,0.489,4.199,1.337,6.184,2.289c1.709,0.82,2.908,2.218,3.612,3.959
			c0.924,2.29,1.709,4.644,2.479,6.979c0.663,2.009,1.44,3.994,1.994,6.044c0.07,0.257,0.199,0.519,0.16,0.779
			c-0.249,1.653,0.688,2.791,1.614,3.979c1.99,2.55,3.832,5.209,5.409,8.041c0.151,0.27,0.262,0.554,0.14,0.87
			c-0.565,0.335-0.715-0.18-0.9-0.486c-1.915-3.167-4.174-6.071-6.693-8.769c-1.64-1.753-3.546-3.22-5.333-4.813
			c-0.871-0.776-1.888-1.436-2.308-2.617c-0.002-1.304,0.698-2.396,1.132-3.557c1.374-3.681-0.021-7.374-3.502-9.15
			c-2.745-1.401-5.751-1.939-8.693-2.683c-1.12-0.283-2.141-0.619-2.396-1.929c0.1,0.125-0.17-0.025-0.05-0.105
			c0.038-0.024-0.036-0.119-0.021-0.033c0.044,0.291,0.107,0.585-0.328,0.62C256.179,206.538,256.18,204.563,256.183,202.587z"/>
		<path fill="#EC6A44" d="M228.422,241.406c0.24-0.636,0.728-1.086,1.168-1.573c1.374-0.989,2.087-0.887,2.869,0.653
			c1.152,2.269,3.003,3.527,5.385,4.183c1.522,0.421,2.989,0.368,4.45-0.229c1.755-0.714,3.466-1.533,5.263-2.143
			c1.752-0.356,3.202-1.313,4.64-2.305c0.423-0.292,0.792-0.735,1.396-0.663c0.41,0.559-0.054,0.931-0.33,1.29
			c-1.016,1.326-2.21,2.498-3.483,3.561c-1.085,0.906-1.992,1.961-2.92,3.003c-0.372,0.417-0.694,0.91-0.562,1.538
			c0.155,0.56,0.028,0.956-0.613,1.053c-0.998,0.068-1.956-0.2-2.921-0.37c-3.246-0.571-6.479-1.201-9.693-1.933
			c-0.475-0.108-0.979-0.166-1.353-0.534c0.125-1.484-0.749-2.624-1.335-3.865c-0.324-0.685-0.702-1.261-1.586-1.236
			C228.579,241.843,228.345,241.725,228.422,241.406z"/>
		<path fill="#F9D8B5" d="M250.868,223.602c-7.686,1.386-13.835,5.409-19.08,11.035c-0.536,0.575-0.968,1.234-1.547,1.765
			c-0.498-0.155-0.317-0.541-0.247-0.837c0.213-0.904,0.021-1.705-0.409-2.518c-1.588-3.005-0.593-5.882,2.409-7.469
			c3.177-1.679,6.435-2.396,10.011-1.562c1.697,0.396,3.384-0.329,5.085-0.462c0.87-0.067,1.722-0.313,2.587-0.425
			C250.13,223.071,250.694,222.893,250.868,223.602z"/>
		<path fill="#F5C998" d="M233.981,234.818c2.344-2.632,5.082-4.762,8.186-6.426c0.211,0.396,0.25,0.42,0.044,0.734
			c-0.491,0.754-0.218,0.932,0.555,0.822c1.887-0.267,3.703,0.031,5.501,0.627c2.768,0.917,3.605,3.22,1.961,5.628
			c-1.739,2.545-4.36,3.691-7.223,4.418c-0.851,0.216-1.719,0.295-2.598,0.281c-2.426-0.039-4.447-1.543-5.002-3.909
			C235.181,236.041,234.799,235.321,233.981,234.818z"/>
		<path fill="#3D1507" d="M231.668,246.698c4.666,1.148,9.371,2.094,14.128,2.768c2.568-0.272,5.053,0.543,7.598,0.577
			c1.202,0.393,2.401,0.119,3.606,0.016c1.003-0.086,2.021-0.395,3.013,0.075c1.396,0.054,2.736-0.332,4.105-0.496
			c3.224-0.48,6.429-1.066,9.604-1.803c0.27-0.372,0.689-0.445,1.094-0.534c2.848-0.629,5.689-1.275,8.537-1.902
			c0.52-0.115,1.039-0.22,1.57-0.069c0.469,0.076,0.786-0.223,1.128-0.457c0.256-0.053,0.491-0.172,0.744-0.233
			c0.164-0.039,0.329-0.05,0.496-0.037c0.179,0.021,0.343,0.08,0.495,0.177c0.227,0.209,0.487,0.403,0.365,0.776
			c-0.329,0.433-0.836,0.502-1.31,0.621c-6.817,1.713-13.658,3.326-20.606,4.436c-0.636,0.103-1.295,0.038-1.91,0.272
			c-1.151,0.325-2.363,0.21-3.521,0.495c-3.721,0.468-7.442,0.522-11.161-0.022c-2.774-0.362-5.547-0.722-8.3-1.245
			c-2.567-0.489-5.124-1.016-7.667-1.615c-3.208-0.625-6.351-1.534-9.529-2.287c-1.43-0.339-1.35-0.287-1.358,1.199
			c-0.013,2.349,0.548,4.68,0.197,7.034c-0.185,0.408-0.438,0.777-0.62,1.193c-0.441,1.008-0.855,1.01-1.519,0.056
			c-0.25-0.916-0.364-1.849-0.364-2.798c0.001-2.339-0.232-4.667-0.388-6.998c-0.047-0.701-0.206-1.463,0.606-1.901
			c1.143,0.007,2.259,0.104,3.155,0.94c0.907,0.567,0.741-0.565,1.177-0.743c-0.147,0.769,0.174,1.214,0.938,1.353
			c0.114-0.101,0.246-0.23,0.39-0.213C228.188,245.564,230.028,245.748,231.668,246.698z"/>
		<path fill="#8B240C" d="M284.924,245.33c-2.5,0.833-5.105,1.22-7.66,1.821c-1.169,0.274-2.326,0.638-3.541,0.684
			c-0.691-0.726-0.66-1.504-0.237-2.36c0.733-1.484,0.808-3.139,1.141-4.725c0.164-0.781,0.294-1.563,0.698-2.267
			c0.238-0.416,0.264-0.86,0.205-1.325c-0.037-0.304-0.386-0.665,0.076-0.899c0.348-0.175,0.674,0.035,0.957,0.216
			c1.683,1.08,2.861,2.706,4.34,4.006c0.562,0.494,0.873,1.312,1.751,1.416C283.411,243.041,284.167,244.185,284.924,245.33z"/>
		<path fill="#F3C491" d="M250.868,223.602c-1.228-0.513-2.34,0.258-3.521,0.333c-2.312,0.148-4.535,0.797-6.956,0.234
			c-2.206-0.513-4.521-0.067-6.627,1.014c-1.443,0.74-2.978,1.287-3.893,2.807c-0.79,1.31-1.089,2.69-0.361,3.992
			c0.803,1.436,1.322,2.805,0.731,4.42c-0.331,0.572-0.748,1.066-1.309,1.428c-0.119-0.101-0.256-0.242-0.217-0.379
			c0.378-1.337-0.355-2.32-1.012-3.343c-1.718-2.68-1.525-7.104,2.086-9.419c3.33-2.136,6.988-3.097,10.885-3.294
			c2.169-0.11,4.336,0.008,6.467,0.439c1.768,0.357,3.563,0.159,5.339,0.363c0.975,0.112,1.383-0.347,1.465-1.33
			c0.039-0.453,0.034-0.911-0.018-1.366c0.042-0.53,0.023-1.063,0.057-1.594c0.043-0.21,0.137-0.39,0.317-0.518
			c0.158-0.034,0.266,0.025,0.322,0.178c0.037,1.615-0.022,3.232,0.031,4.847c0.02,0.618-0.19,0.904-0.791,0.925
			C252.865,223.426,251.867,223.513,250.868,223.602z"/>
		<path fill="#E59260" d="M225.053,243.798c0.139-0.82,0.298-1.638,0.411-2.462c0.128-0.942-0.546-1.538-1.028-2.206
			c-2.195-3.032-2.88-6.459-1.75-9.939c1.071-3.298,3.428-5.786,6.484-7.534c5.093-2.916,10.653-4.302,16.4-5.176
			c2.24-0.34,4.433-0.403,6.657-0.079c0.774,0.113,1.2-0.394,1.537-0.953c0.191-0.316,0.222-0.728,0.523-0.996
			c0.105,0.08,0.174,0.182,0.207,0.31c0.051,0.504,0.042,1.007,0.007,1.512c-0.775,1.972-1.115,2.21-3.155,1.753
			c-1.951-0.438-3.894-0.159-5.79,0.106c-4.179,0.587-8.366,1.26-12.32,2.825c-2.227,0.883-4.379,1.923-6.191,3.577
			c-3.187,2.904-3.518,7.261-1.677,10.764c0.301,0.575,0.66,1.112,1.041,1.635c0.853,1.171,1.089,2.401,0.397,3.742
			c-0.116,0.226-0.247,0.477-0.204,0.758C226.119,242.244,225.757,243.134,225.053,243.798z"/>
		<path fill="#C66732" d="M254.297,211.495c-0.647,1.685-1.81,1.873-3.584,1.925c-5.597,0.168-11.017,1.405-16.181,3.703
			c-3.035,1.351-5.88,2.988-8.587,4.892c-3.1,2.593-5.231,5.85-6.499,9.665c-0.609,1.832-0.564,3.726-0.24,5.622
			c0.096,0.563,0.429,1.184-0.186,1.682c-0.573-0.173-0.649-0.695-0.768-1.155c-0.247-0.948-0.359-1.919-0.446-2.894
			c0.5-5.56,2.833-10.112,7.166-13.727c5.253-4.383,11.324-7.005,17.817-8.837c2.806-0.792,5.656-1.115,8.57-1.037
			c1.694,0.044,2.502-0.821,2.598-2.586c0.012-0.31-0.003-0.618,0.047-0.925c0.057-0.181,0.119-0.358,0.275-0.48
			c0.807,0.365,0.096,1.127,0.423,1.62c0,1.749,0.001,3.5,0.002,5.25c-0.599-0.389-0.185-0.979-0.278-1.467
			c-0.068-0.361-0.009-0.747-0.015-1.12c-0.002-0.141,0.027-0.281-0.01-0.419C254.374,211.303,254.403,211.423,254.297,211.495z"/>
		<path fill="#CB6632" d="M256.178,208.514c0.215-0.253,0.148-0.564,0.183-0.857c0.009-0.079,0.081-0.152,0.124-0.228
			c0.035,0.136,0.07,0.272,0.105,0.409c0.237,0.304,0.196,0.686,0.285,1.031c0.068,0.633,0.135,1.248,0.354,1.875
			c0.449,1.294,1.279,1.93,2.59,2.25c1.849,0.451,3.534,1.38,5.244,2.187c1.922,0.907,2.553,3.178,1.64,5.187
			c-0.299,0.659-0.732,1.242-1.083,1.872c-0.401,0.72-0.307,1.305,0.366,1.781c1.019,0.721,1.995,1.506,3.124,2.069
			c0.432,0.215,1.073,0.397,0.73,1.149c-1.885-1.13-3.934-1.894-5.968-2.691c-0.491-0.527-1.212-0.758-1.667-1.349
			c-0.453-0.585-0.629-1.153-0.42-1.9c0.574-2.048,0.357-2.605-1.348-3.889c-0.429-0.321-0.871-0.621-1.358-0.838
			c-1.442-0.644-2.314-1.686-2.425-3.306c-0.019-0.261-0.124-0.516-0.179-0.777c-0.024-0.29,0.026-0.581-0.015-0.802
			c-0.015,0.493,0.113,1.04,0.162,1.59c0.049,0.555,0.408,1.281-0.443,1.619C256.179,212.768,256.179,210.641,256.178,208.514z"/>
		<path fill="#EE8D5F" d="M247.675,242.586c-2.155,0.814-4.187,1.956-6.421,2.547c-3.029,0.801-7.163-1.025-8.704-3.756
			c-0.019-0.033-0.035-0.067-0.053-0.101c-1.032-1.892-1.032-1.892-2.906-1.443c0.527-0.972,1.284-1.759,2.044-2.543
			c1.352-0.754,1.977-0.556,2.666,0.89c0.327,0.686,0.632,1.375,1.11,1.981c1.616,2.051,3.762,2.583,6.22,2.169
			c2.233-0.377,4.27-1.336,6.32-2.241c0.958-0.317,1.668-1.083,2.599-1.451c0.742-0.19,1.302-0.707,1.943-1.08
			c0.345-0.2,0.661-0.523,1.119-0.283c0.226,0.619-0.221,0.995-0.544,1.379C251.594,240.404,249.868,241.819,247.675,242.586z"/>
		<path fill="#BD5524" d="M269.84,227.238c-0.025-0.527-0.459-0.664-0.828-0.839c-1.244-0.589-2.335-1.416-3.44-2.213
			c-0.632-0.458-0.955-1.014-0.413-1.844c0.304-0.467,0.543-0.995,0.873-1.456c1.446-2.016,0.675-5.063-2.023-5.839
			c-1.921-0.554-3.725-1.485-5.611-2.178c-1.539-0.566-1.748-2.328-1.805-3.891c0.49-0.063,0.656,0.333,0.836,0.643
			c0.451,0.782,1.121,1.221,1.987,1.388c1.646,0.317,3.203,0.952,4.831,1.335c0.072,0.018,0.146,0.039,0.219,0.063
			c5.283,1.683,6.341,4.916,4.477,9.701c-0.165,0.423-0.389,0.824-0.597,1.229c-0.652,0.899-0.081,1.493,0.549,2.028
			c0.897,0.762,1.943,1.338,2.796,2.155c0.238,0.229,0.82,0.498,0.165,0.928C271.183,228.045,270.511,227.642,269.84,227.238z"/>
		<path fill="#E79E64" d="M226.604,241.435c-0.023-0.03-0.073-0.069-0.067-0.089c0.745-2.125-0.202-3.736-1.275-5.543
			c-3.038-5.117-1.133-10.643,4.245-13.545c3.877-2.092,8.055-3.061,12.306-3.937c2.125-0.438,4.271-0.583,6.407-0.856
			c1.167-0.149,2.375-0.108,3.501,0.257c1.17,0.38,1.907,0.106,2.297-1.071c0.045-0.135,0.179-0.239,0.271-0.358
			c0.335,0.379,0.27,0.764,0.014,1.15c-0.003,0.151-0.007,0.301-0.011,0.453c-0.143,0.191-0.143,0.428-0.203,0.645
			c-0.318,1.133-0.874,1.562-1.995,1.344c-5.932-1.152-11.684-0.033-17.346,1.541c-2.542,0.708-5.004,1.829-6.97,3.756
			c-3.101,3.039-3.022,6.219-1.238,10.029c0.048,0.102,0.108,0.205,0.183,0.29c1.521,1.724,1.437,3.492,0.151,5.295
			C226.901,241.058,226.795,241.265,226.604,241.435z"/>
		<path fill="#F2B97A" d="M233.981,234.818c0.97-0.024,1.441,0.295,1.626,1.406c0.525,3.16,2.878,4.826,6.373,4.235
			c2.703-0.457,5.223-1.434,7.166-3.458c0.881-0.918,1.89-1.996,1.619-3.366c-0.296-1.495-1.344-2.393-2.946-2.82
			c-1.839-0.489-3.624-0.785-5.499-0.379c-0.335,0.072-0.703,0.079-0.924-0.271c-0.241-0.378,0.131-0.614,0.222-0.92
			c0.106-0.358,0.794-0.309,0.549-0.854c0.68-0.519,1.433-0.898,2.241-1.17c0.237-0.092,0.424,0.055,0.395,0.238
			c-0.172,1.058,0.496,1.014,1.222,1.037c1.627,0.052,3.26,0.139,4.802,0.741c2.072,0.809,2.927,2.528,2.279,4.663
			c-0.353,1.165-0.88,2.257-1.754,3.145c-2.691,2.767-6.082,4.039-9.812,4.584c-2.325,0.341-4.262-0.365-5.807-2.135
			c-1.084-1.241-1.555-2.808-2.257-4.252C233.644,235.101,233.813,234.959,233.981,234.818z"/>
		<path fill="#ECAC78" d="M226.875,240.795c0.03-0.147,0.028-0.312,0.094-0.442c0.817-1.616,0.549-2.972-0.445-4.548
			c-2.127-3.376-2.315-6.847,0.002-9.874c1.565-2.043,3.8-3.102,6.066-4.125c3.729-1.682,7.728-2.086,11.722-2.557
			c2.7-0.319,5.373-0.397,8.021,0.318c0.633,0.17,1.015-0.098,1.313-0.607c0.209-0.358,0.429-0.711,0.645-1.065
			c-0.001,0.533-0.001,1.066-0.002,1.599c-0.02,0.033-0.049,0.062-0.058,0.098c-0.638,2.554-0.623,2.51-3.2,1.62
			c-1.858-0.642-3.79-0.63-5.743-0.436c-3.324,0.33-6.683,0.339-9.92,1.334c-2.234,0.687-4.294,1.679-6.234,3
			c-2.987,2.035-3.106,5.6-1.9,8.349c0.045,0.104,0.095,0.21,0.164,0.299c0.969,1.269,1.625,2.635,1.365,4.294
			C228.335,239.106,227.625,239.963,226.875,240.795z"/>
		<path fill="#DB7C43" d="M247.675,242.586c1.604-0.983,3.2-1.963,4.458-3.412c0.519-0.598,1.076-1.156,1.473-1.847
			c-0.072-0.68,0.412-1.119,0.723-1.625c0.875-1.428,1.758-2.854,2.109-4.521c0.331-1.567-0.212-2.739-1.598-3.553
			c-0.164-0.097-0.338-0.174-0.5-0.275c-0.477-0.299-1.118-0.555-0.971-1.247c0.145-0.686,0.814-0.866,1.419-0.968
			c1.896-0.32,3.769-0.147,5.64,0.275c0.605,0.137,1.197,0.504,1.863,0.284c1.125,0.22,2.182,0.625,3.2,1.142
			c-0.102,0.595-0.528,0.411-0.88,0.351c-1.084-0.185-2.18-0.286-3.272-0.391c-0.998-0.096-1.249,0.165-1.063,1.154
			c0.22,1.175-0.273,2.151-0.709,3.159c-0.316,0.731-0.607,1.473-1.028,2.151c-1.099,2.05-2.622,3.799-3.995,5.654
			c-0.215,0.29-0.461,0.632-0.931,0.468C251.773,240.711,249.986,242.135,247.675,242.586z"/>
		<path fill="#F1B87D" d="M228.763,238.053c-0.148-1.904-1.566-3.288-2.096-4.998c-1.41-4.545-0.289-6.922,3.788-9.275
			c3.727-2.15,7.811-3.044,12.095-3.156c1.318-0.035,2.63-0.338,3.948-0.37c1.736-0.042,3.492,0.005,5.114,0.765
			c1.622,0.759,1.608,0.776,2.269-0.853c0.097-0.24,0.271-0.449,0.409-0.672c0.001,0.458,0.006,0.915,0.004,1.372
			c-0.01,1.381-0.743,1.858-2.1,1.804c-3.94-0.158-7.82-1.133-11.782-0.877c-3.81,0.244-7.394,1.208-10.625,3.357
			c-3.13,2.082-3.487,6.275-1.666,8.866c0.861,1.225,1.238,2.394,0.81,3.814C228.876,237.905,228.82,237.979,228.763,238.053z"/>
		<path fill="#E79956" d="M262.292,225.698c-1.189,0.341-2.275-0.263-3.414-0.392c-1.571-0.176-3.098-0.118-4.61,0.338
			c-0.333,0.101-0.713,0.215-0.711,0.618c0.001,0.332,0.357,0.455,0.623,0.603c0.787,0.438,1.659,0.713,2.194,1.556
			c0.852,1.341,0.67,2.695,0.107,4.017c-0.742,1.748-1.635,3.425-2.875,4.89c-1.061,0.398-1.821,1.354-2.964,1.6
			c-0.168-0.6,0.315-0.892,0.611-1.259c1.172-1.458,2.305-2.939,2.868-4.764c0.764-2.475-0.167-4.099-2.704-4.644
			c-1.042-0.223-2.107-0.306-3.168-0.417c-0.46-0.047-0.99-0.104-1.065-0.665c-0.071-0.526,0.383-0.8,0.792-1.01
			c1.272-0.655,2.683-0.799,4.061-1.063c0.15-0.029,0.001,0.09,0.094-0.003c0.109-0.108-0.16-0.024-0.137-0.146
			c3.262-0.552,6.472-0.313,9.641,0.613C261.848,225.633,262.071,225.657,262.292,225.698z"/>
		<path fill="#C45024" d="M270.51,229.598c-0.946,0.143-1.604-0.699-2.5-0.731c-0.422-0.192-0.885-0.148-1.326-0.206
			c-0.565-0.073-1.056,0.12-1.299,0.699c-0.568,1.355-1.553,2.434-2.479,3.526c-2.414,2.85-3.899,6.217-5.548,9.506
			c-1.122,2.236-1.349,4.635-1.624,7.046c-0.055,0.474,0.063,1.195-0.846,0.95c-0.66-0.37-0.574-0.991-0.572-1.606
			c0.014-3.718,0.99-7.196,2.573-10.53c0.099-0.206,0.183-0.419,0.251-0.636c0.386-1.105,1.121-2.009,1.723-2.993
			c1.115-1.901,2.389-3.708,3.438-5.645c0.953-1.761,1.603-2.066,4.064-1.537c0.678,0.146,1.146,0.759,1.868,0.769
			C269.116,228.47,269.735,229.162,270.51,229.598z"/>
		<path fill="#EDAD68" d="M251.993,224.958c0.294,0.025,0.588,0.052,1.214,0.105c-1.971,0.405-3.687,0.502-5.156,1.442
			c-0.283,0.182-0.737,0.306-0.648,0.69c0.094,0.407,0.561,0.281,0.89,0.301c1.248,0.071,2.494,0.2,3.705,0.503
			c2.25,0.563,3.236,2.382,2.607,4.627c-0.589,2.106-1.833,3.813-3.22,5.44c-0.246,0.289-0.495,0.572-0.743,0.859
			c-0.9,0.344-1.521,1.201-2.516,1.37c-0.136-0.535,0.317-0.726,0.607-0.986c0.844-0.759,1.678-1.527,2.364-2.439
			c0.721-0.847,1.227-1.822,1.594-2.859c0.794-2.241-0.162-4.017-2.572-4.641c-1.498-0.388-3.044-0.534-4.602-0.51
			c-0.44,0.008-0.969,0.18-1.296-0.216c-0.4-0.486,0.322-0.673,0.372-1.049c0.015-0.115-0.12-0.25-0.186-0.375
			C246.781,225.946,249.336,225.283,251.993,224.958z"/>
		<path fill="#DA7C42" d="M256.592,212.632c0.073,0.086,0.205,0.166,0.214,0.258c0.201,2.092,1.62,3.104,3.347,3.912
			c0.604,0.282,1.158,0.741,1.623,1.228c0.809,0.846,0.988,1.942,0.475,2.951c-0.628,1.236,0.012,1.914,0.83,2.596
			c0.319,0.266,0.715,0.447,1.004,0.738c0.195,0.196-0.116,0.169-0.212,0.233c-0.844-0.225-1.688-0.449-2.532-0.673
			c-0.619-0.362-1.333-0.456-1.995-0.698c-1.081-0.396-1.744-1.088-2.038-2.245C256.616,218.197,256.102,215.461,256.592,212.632z"
			/>
		<path fill="#F2A677" d="M251.097,236.872c-0.654,1.434-1.844,2.401-2.971,3.425c-3.033,1.509-6.063,3.073-9.629,2.317
			c-2.104-0.447-3.463-1.848-4.288-3.751c-0.771-1.78-0.798-1.853-2.575-1.573c0.539-0.749,1.15-1.433,1.84-2.046
			c0.478,0.427,0.962,0.819,1.167,1.493c1.09,3.577,4.104,5.293,8.027,4.368C245.828,240.358,248.753,239.209,251.097,236.872z"/>
		<path fill="#D06933" d="M268.234,228.209c-0.811,0.253-1.371-0.431-2.095-0.57c-1.949-0.375-2.451-0.211-3.438,1.407
			c-1.18,1.933-2.399,3.843-3.603,5.762c-0.408-0.471-0.615-1.056-0.91-1.594c0.492-1.068,1-2.128,1.47-3.206
			c0.306-0.702,0.476-1.409,0.202-2.203c-0.373-1.07-0.002-1.556,1.205-1.422c1.196,0.131,2.421,0.125,3.587,0.491
			c0.287,0.09,0.571,0.254,0.84-0.036C266.497,227.113,267.342,227.708,268.234,228.209z"/>
		<path fill="#CC512D" d="M231.668,246.698c-1.898-0.385-3.796-0.768-5.695-1.152c0.419-1.616,1.515-2.83,2.448-4.14
			c1.664-0.227,2.062,1.05,2.599,2.175c0.195,0.407,0.392,0.827,0.663,1.183C232.191,245.433,232.242,246.057,231.668,246.698z"/>
		<path fill="#AF4425" d="M271.855,228.448c-0.024-0.956-0.996-1.039-1.489-1.561c-0.504-0.536-1.271-0.821-1.811-1.333
			c-0.597-0.57-1.395-1.194-0.541-2.17c0.815,0.625,1.803,1.06,2.284,2.057c1.6,2.053,3.751,3.526,5.665,5.234
			c2.143,1.912,3.943,4.079,5.617,6.367c1.049,1.434,2.172,2.83,2.943,4.455c0.12,0.253,0.418,0.422,0.633,0.631
			c0.937,0.681,1.266,1.721,1.616,2.747c-0.24,0.316-0.479,0.229-0.72-0.001c-3.323-6.335-7.765-11.717-13.579-15.929
			C272.26,228.79,272.061,228.614,271.855,228.448z"/>
		<path fill="#E0995B" d="M256.592,212.632c-0.254,3.005,0.604,5.857,1.202,8.744c0.132,0.64,0.596,1.051,1.214,1.255
			c0.86,0.283,1.607,0.848,2.519,0.999c0.026,0.004,0.046,0.043,0.067,0.065c-0.084,0.059-0.17,0.119-0.254,0.178
			c-1.537-0.164-3.072-0.357-4.614-0.48c-0.638-0.051-0.597-0.433-0.595-0.861c0.018-2.546,0.033-5.092,0.048-7.637
			c0.393-1.323,0.013-2.697,0.413-4.031C256.592,211.454,256.592,212.042,256.592,212.632z"/>
		<path fill="#E79E64" d="M254.297,211.495c0.059-0.358-0.101-0.745,0.155-1.121c0.222,1.3-0.117,2.593,0.252,3.836
			c0.016,2.767,0.017,5.534,0.062,8.3c0.011,0.692-0.174,1.018-0.903,0.828c0.542-0.178,0.715-0.531,0.695-1.112
			c-0.055-1.591-0.039-3.187-0.052-4.78c-0.266-0.895,0.089-1.835-0.199-2.729c-0.007-0.088-0.015-0.176-0.021-0.265
			C254.29,213.467,254.293,212.481,254.297,211.495z"/>
		<path fill="#B4501C" d="M254.702,208.961c-0.389-0.46,0.064-1.133-0.398-1.575c-0.154-0.151-0.132-0.309-0.016-0.47
			c0.063-0.216-0.125-0.483,0.134-0.659c0.094,0.142,0.187,0.283,0.281,0.424C254.703,207.441,254.702,208.201,254.702,208.961z"/>
		<path fill="#7D200F" d="M277.156,279.377c-1.397,0.838-2.51,2.033-3.771,3.044c-2.375,1.903-4.647,3.938-6.962,5.918
			c-0.013-0.486,0.353-0.738,0.648-1.025c2.399-2.326,5.062-4.348,7.575-6.542c2.638-2.3,5.185-4.687,7.456-7.355
			c0.148-0.175,0.323-0.353,0.165-0.601c-0.196-0.304-0.518-0.302-0.82-0.26c-2.215,0.308-4.3,1.018-6.167,2.235
			c-2.736,1.785-5.202,3.932-7.674,6.058c-1.692,1.455-3.53,2.764-4.896,4.575c-0.072,0.098-0.277,0.096-0.422,0.141
			c-0.621-1.285-0.198-3.825,0.852-4.714c3.365-2.851,6.701-5.733,10.115-8.523c3.276-2.636,6.418-5.434,9.68-8.087
			c0.586-0.478,1.151-0.979,1.73-1.463c0.779-0.651,1.566-1.287,1.714-2.429c0.071-0.557,0.572-0.966,0.865-1.45
			c0.222-0.366,0.353-0.751,0.317-1.185c0.023-0.459-0.089-0.936,0.192-1.355c0.598-0.534,0.917,0.216,1.475,0.338
			c0.269-0.812,0.047-1.646,0.16-2.446c0.183-2.794,0.304-5.589,0.542-8.377c0.045-0.525,0.11-1.059-0.104-1.568
			c-0.038-2.461-0.162-4.906-0.502-7.358c-0.397-2.875-1.199-5.544-2.725-8.007c-0.257-0.417-0.467-0.867-0.697-1.302
			c-1.073-1.448-2.189-2.861-3.365-4.229c-0.285-0.333-0.665-0.654-0.396-1.182c0.394-0.171,0.659,0.08,0.911,0.301
			c4.444,3.902,7.776,8.533,9.318,14.324c0.196,0.735,0.375,1.475,0.635,2.193c0.269,0.738,0.72,0.874,1.282,0.351
			c0.893-0.828,1.929-1.491,2.736-2.412c0.574-0.61,1.23-1.125,1.876-1.653c0.301-0.27,0.606-0.532,0.896-0.815
			c0.382-0.198,0.283-0.917,0.912-0.848c0.472,0.311-0.043,0.835,0.256,1.183c-1.474,0.937-2.604,2.265-3.896,3.408
			c-0.806,0.476-1.212,1.335-1.866,1.957c-1.466,1.909-2.749,3.915-3.168,6.34c-0.198,1.149-0.188,2.305-0.176,3.476
			c0.049,4.438,0.27,8.871,0.372,13.308c0.048,2.057-0.857,3.33-2.33,4.499c-1.15,0.913-2.338,1.814-3.121,3.109
			c-0.305,0.304-0.609,0.605-0.914,0.909C282.936,274.331,279.953,276.746,277.156,279.377z"/>
		<path fill="#802413" d="M291.556,276.476c-0.604-0.554-1.367-0.936-1.812-1.663c-0.383-0.539-0.837-1.001-1.401-1.353l0.014,0.009
			c-0.116-0.1,0.021,0.032-0.083-0.077c-0.337-0.348-1.1-0.616-0.536-1.229c0.528-0.575,1.02-0.07,1.433,0.342
			c0.878,0.871,1.438,0.97,2.533,0.46c2.052-0.961,2.864-2.661,2.347-4.917c-0.128-0.556-0.144-1.128-0.21-1.691
			c0.002-5.471,0.001-10.941,0.014-16.412c0.002-0.559-0.123-1.144,0.195-1.671c0.402,0.278,0.412,0.717,0.409,1.129
			c-0.031,3.979,0.203,7.966-0.232,11.663c0.086-0.59,0.082-1.466,0.217-2.327c0.079-0.509,0.288-0.972,0.815-1.146
			c0.523-0.174,0.848,0.195,1.162,0.535c1.399,1.516,2.068,1.529,3.52,0.078c0.403-0.405,0.733-0.873,1.107-1.302
			c1.369-1.319,2.24-2.932,2.829-4.724c0.125-0.382,0.117-0.954,0.778-0.909c0.393,0.463,0.287,0.999,0.212,1.522
			c-0.29,2.036-0.695,4.053-1.5,5.949c-1.143,2.689-1.789,5.562-3.148,8.173c-1.088,2.09-2.239,4.139-3.561,6.085
			c-0.741,1.091-1.823,1.831-3.058,2.291C292.843,275.574,292.151,275.931,291.556,276.476z"/>
		<path fill="#9B351F" d="M301.394,256.986c-0.582,0.948-1.271,1.791-2.228,2.393c-1.126,0.707-1.937,0.548-2.701-0.541
			c-0.088-0.125-0.185-0.243-0.269-0.369c-0.206-0.309-0.364-0.774-0.811-0.673c-0.459,0.104-0.541,0.592-0.612,1.005
			c-0.192,1.111-0.369,2.226-0.724,3.343c0-4.624,0-9.246,0-13.869c0.405-3.871,1.848-7.233,4.825-9.842
			c0.138,0.126,0.172,0.286,0.15,0.463c-0.037,0.167-0.118,0.313-0.223,0.446c-0.734,0.662-1.016,1.583-1.378,2.454
			c-0.274,0.656-0.341,1.226,0.688,1.088c0.155-0.02,0.288,0.076,0.377,0.212c0.06,0.591-0.353,0.984-0.611,1.436
			c-1.376,2.406-1.576,4.885-0.438,7.429c0.34,0.762,0.753,1.563,1.735,1.621c1.012,0.061,1.708-0.52,2.229-1.337
			c0.409-0.641,0.766-1.311,1.126-1.979c0.155-0.29,0.239-0.801,0.799-0.54c0.321,0.448,0.225,0.94,0.151,1.429
			C303.167,253.234,302.637,255.238,301.394,256.986z"/>
		<path fill="#93311D" d="M293.84,266.357c0.071,0.026,0.177,0.029,0.21,0.078c1.699,2.603,0.031,6.608-3.021,7.202
			c-0.72,0.141-1.47,0.113-1.945-0.604c-0.285-0.433-0.559-1.165-1.133-0.754c-0.632,0.453,0.366,0.742,0.406,1.189
			c-0.604-0.097-0.865-0.689-1.365-0.936c1.436-1.581,3.142-2.863,4.718-4.288C292.414,267.608,293.129,266.986,293.84,266.357z"/>
		<path fill="#89260E" d="M286.78,270.949c0.386-1.586,1.732-2.416,2.851-3.323c1.459-1.182,2.231-2.39,2.221-4.396
			c-0.024-4.364-0.138-8.731-0.36-13.08c-0.194-3.807,1.023-6.947,3.213-9.87c0.131-0.176,0.342-0.291,0.518-0.436
			c0.293,0.576-0.191,0.932-0.42,1.324c-1.768,3.025-2.507,6.267-2.354,9.775c0.126,2.889,0.028,5.787,0.026,8.682
			c-0.001,0.648,0.02,1.291,0.201,1.918c0.012,1.17-0.001,2.341,0.046,3.511c0.023,0.587-0.189,1.004-0.623,1.371
			C290.319,267.925,288.551,269.439,286.78,270.949z"/>
		<path fill="#933723" d="M292.674,261.542c-0.4-0.554-0.43-1.189-0.429-1.843c0.003-2.848,0.141-5.704-0.051-8.539
			c-0.172-2.57,0.14-5.004,0.986-7.41c0.494-1.404,1.426-2.57,2.039-3.906c0.561-0.594,0.925-1.415,1.849-1.586
			c-3.167,3.934-4.529,8.43-4.378,13.464C292.789,254.993,292.687,258.269,292.674,261.542z"/>
		<path fill="#97220D" d="M298.876,238.914c0-0.16-0.001-0.32-0.001-0.481c0.607-0.685,1.153-1.44,2.043-1.806l0.022,0.024
			c0.133,0.211,0.025,0.387-0.077,0.565c-0.084,0.128-0.185,0.243-0.291,0.352C299.952,237.948,299.749,238.851,298.876,238.914z"/>
		<path fill="#CD5030" d="M218.176,234.81c0.242,1.386,0.155,2.845,0.915,4.116c0.342,0.157,0.465,0.477,0.572,0.799
			c0.321,0.967,0.731,1.89,1.229,2.781c0.291,0.523,0.562,1.096,0.037,1.659c-0.886,0.25-0.421,0.961-0.397,1.416
			c0.178,3.421,0.426,6.839,0.651,10.257c0.169,2.365,1.248,4.182,3.268,5.438c0.189,0.118,0.305,0.334,0.479,0.48
			c2.187,1.758,4.318,3.583,6.493,5.358c1.812,1.565,3.643,3.108,5.484,4.639c0.644,0.536,1.252,1.111,1.762,1.779
			c0.165,0.216,0.293,0.487,0.125,0.74c-0.175,0.262-0.475,0.188-0.734,0.135c-0.412-0.084-0.796-0.26-1.177-0.428
			c-3.131-1.382-6.15-2.985-9.133-4.656c-2.85-1.595-4.678-4.168-6.402-6.827c-0.507-0.781-0.933-1.621-1.589-2.325
			c-0.489,0.391-0.411,0.941-0.604,1.377c-0.193,0.438-0.282,0.983-0.956,0.921c-0.025-3.718-0.123-7.438-0.059-11.155
			c0.086-5.119-1.409-9.632-4.793-13.495c0.06-0.555,0.392-0.244,0.64-0.204c2.037,1.32,2.35,1.185,2.459-1.213
			c0.037-0.804,0.167-1.585,0.333-2.357c0.094-0.436,0.076-1.038,0.729-1.163C218.435,233.279,217.78,234.227,218.176,234.81z"/>
		<path fill="#BF4529" d="M218.197,262.469c0.748-0.476,0.646-1.328,0.883-2.026c0.12-0.357,0.119-0.814,0.585-0.877
			c0.419-0.055,0.536,0.355,0.696,0.653c1.25,2.313,2.8,4.433,4.477,6.433c0.831,0.989,1.999,1.776,3.15,2.406
			c3.157,1.726,6.31,3.471,9.64,4.86c0.312,0.129,0.61,0.295,1.095,0.246c-0.991-1.441-2.386-2.348-3.595-3.444
			c-1.29-1.167-2.753-2.136-3.922-3.44c-0.124-0.596-0.662-0.886-0.981-1.338c-0.312-0.441-0.836-0.796-0.624-1.462
			c0.43-0.23,0.743,0.015,1.004,0.294c1.148,1.225,2.5,2.227,3.696,3.396c0.479,0.526,0.947,1.066,1.567,1.441
			c0.211,0.153,0.405,0.326,0.593,0.507c1.88,2.056,3.963,3.874,6.322,5.366c1.936,1.324,3.645,2.932,5.469,4.395
			c0.352,0.282,0.643,0.646,0.655,1.146c-0.31,0.596-0.693,0.275-1.023,0.053c-0.631-0.426-1.2-0.931-1.52-1.25
			c0.291,0.247,0.789,0.724,1.249,1.238c0.201,0.225,0.451,0.511,0.268,0.808c-0.217,0.353-0.61,0.257-0.93,0.123
			c-1.123-0.469-2.194-1.047-3.272-1.61c-3.904-2.042-7.576-4.507-11.56-6.396c-1.409-0.666-2.737-1.473-4.142-2.146
			c-3.148-1.508-5.815-3.638-7.56-6.698c-0.646-1.132-1.385-0.784-2.225-0.619C218.194,263.842,218.195,263.156,218.197,262.469z"/>
		<path fill="#BA4428" d="M218.192,264.529c0.177-0.143,0.378-0.263,0.526-0.431c0.618-0.697,1.122-0.521,1.51,0.209
			c0.852,1.601,2.057,2.9,3.344,4.152c1.524,1.483,3.352,2.452,5.221,3.403c2.867,1.458,5.719,2.952,8.511,4.546
			c3.382,1.93,6.743,3.888,10.271,5.535c0.084-0.093,0.168-0.186,0.251-0.279c-0.978-0.772-1.958-1.547-2.937-2.319
			c0.141-0.149,0.283-0.301,0.424-0.451c1.093,0.295,1.758,1.26,2.667,1.843c0.253,0.161,0.401,0.647,0.829,0.266
			c0.717,0.061,0.719,0.516,0.582,1.047c-0.644,0.116-0.831,0.444-0.729,1.125c0.117,0.782,0.492,1.595,0.021,2.395
			c-0.581,0.392-1.032,0.015-1.435-0.304c-3.046-2.403-6.391-4.389-9.468-6.747c-1.742-1.334-3.694-2.248-5.709-3.056
			c-0.266-0.107-0.549-0.289-0.919-0.048c0.19,0.76,0.748,1.275,1.24,1.837c0.439,0.502,0.43,0.512,0.182,1.012
			c-2.251-1.917-4.5-3.836-6.755-5.75c-0.316-0.269-0.659-0.507-0.989-0.76c-1.908-1.668-3.785-3.373-5.738-4.987
			C218.334,266.139,217.98,265.482,218.192,264.529z"/>
		<path fill="#B43D15" d="M213.838,237.784c-0.169-0.052-0.345-0.208-0.494,0.034c-0.672-0.627-1.344-1.254-2.016-1.881
			c0.47-0.353,0.772,0.113,1.122,0.255c1.144,0.466,1.686,0.315,2.224-0.788c1.018-2.089,1.593-4.35,2.513-6.484
			c1.71-3.964,4.251-7.212,7.621-9.909c4.935-3.947,10.478-6.732,16.391-8.806c2.938-1.03,5.987-1.753,9.139-1.664
			c1.602,0.046,3.034-0.106,3.95-1.626c0.004,0.157,0.01,0.313,0.016,0.47c-0.004,0.15-0.007,0.301-0.011,0.452
			c-0.291,1.24-1.152,1.747-2.343,1.729c-8.385-0.125-15.632,3.267-22.611,7.392c-3.123,1.845-6.002,4.064-8.162,7.037
			c-2.715,3.737-4.279,7.938-4.711,12.547c-0.025,0.268-0.072,0.528-0.12,0.789c-0.198,1.073-0.683,1.322-1.692,0.862
			C214.377,238.066,214.085,237.969,213.838,237.784z"/>
		<path fill="#C8592D" d="M211.588,237.976c0.651,0.564,1.326,1.105,1.731,1.894c0.48,1.29,0.362,1.584-0.914,2.179
			c-0.482,0.224-0.967,0.44-1.391,0.767c-1.321,1.02-1.731,2.721-0.905,4.166c0.986,1.727,2.434,2.767,4.519,2.726
			c1.448-0.028,2.139,0.671,2.177,2.131c0.032,1.209-0.101,2.424,0.112,3.631c-0.001,2.256,0.002,4.51-0.001,6.764
			c-0.128,0.472-0.343,0.304-0.503,0.039c-0.267-0.442-0.25-0.957-0.212-1.443c0.155-1.998-0.345-3.917-0.688-5.854
			c-0.13-0.734-0.408-1.428-1.188-1.68c-2.442-0.787-4.123-2.477-5.504-4.539c-1.419-2.819-1.062-4.938,1.187-7.083
			c0.359-0.342,0.735-0.661,1.146-0.935c0.718-0.479,0.92-1.037,0.438-1.832C211.452,238.674,210.871,238.277,211.588,237.976z"/>
		<path fill="#D8783B" d="M216.775,255.149c-0.409-0.946-0.156-1.94-0.188-2.91c-0.057-1.744-0.508-2.129-2.209-2.13
			c-2.129-0.003-3.627-1.169-4.644-2.953c-0.802-1.407-0.545-2.758,0.391-4.037c0.472-0.646,1.124-1.077,1.832-1.27
			c1.092-0.296,1.578-0.857,1.363-1.98c0.689,0.738,1.301,1.528,1.652,2.492c0.164,0.47,0.373,0.96-0.131,1.351
			c-0.459,0.358-0.86,0.015-1.265-0.165c-1.056-0.466-1.854-0.315-2.434,0.464c-0.548,0.733-0.484,1.717,0.186,2.514
			c0.367,0.438,0.78,0.831,1.308,1.082c0.716,0.341,1.29,0.226,1.8-0.425c1.108-1.409,1.365-1.378,2.178,0.155
			c0.279,0.438,0.167,0.94,0.233,1.414C216.918,250.884,217.056,253.019,216.775,255.149z"/>
		<path fill="#B93D12" d="M211.588,237.976c-0.299,0.462,0.214,0.561,0.377,0.797c0.634,0.911,0.558,1.43-0.351,2.082
			c-0.368,0.263-0.753,0.509-1.084,0.813c-2.401,2.214-2.731,3.757-1.495,6.87c0.54,1.211,1.225,2.382,1.025,3.793
			c-0.587,0.452-0.968-0.063-1.381-0.32c-0.479-0.3-0.897-0.684-1.25-1.132c-0.72-1.153-0.854-2.49-1.184-3.767
			c-0.008-1.84,0.244-3.623,1.296-5.189c0.296-0.442,0.541-1.042,1.268-0.941c2.04-0.945,2.44-1.651,2.084-3.673
			C211.125,237.531,211.357,237.753,211.588,237.976z"/>
		<path fill="#E3994E" d="M216.612,247.336c-0.367,0.73-0.307-0.072-0.34-0.124c-0.202-0.313-0.302-0.785-0.727-0.801
			c-0.372-0.013-0.493,0.416-0.666,0.708c-0.724,1.233-1.378,1.415-2.617,0.736c-1.631-0.895-2.329-2.615-1.568-3.863
			c0.702-1.151,1.72-1.443,2.913-0.833c1.213,0.621,1.285,0.579,1.363-0.799C215.882,243.899,216.44,245.555,216.612,247.336z"/>
		<path fill="#E4884C" d="M223.848,272.524c-0.583,0.466-1.166,0.934-1.748,1.398c-0.238,0.133-0.496,0.248-0.761,0.155
			c-1.892-0.662-3.217-1.987-4.103-3.73c-0.354-0.696,0.105-1.361,0.89-1.524c0.653-0.138,1.279-0.002,1.875,0.287
			C221.381,270.137,222.632,271.309,223.848,272.524z"/>
		<path fill="#D46C3C" d="M220,269.11c-0.522,0.183-1.045-0.031-1.568-0.005c-0.927,0.05-1.33,0.581-0.826,1.314
			c1.115,1.624,2.373,3.138,4.494,3.503c-0.236,0.39-0.607,0.634-0.964,0.891c-0.322,0.13-0.609,0.006-0.853-0.175
			c-1.49-1.105-3.022-2.174-4.155-3.672c-1.205-1.591-0.897-2.979,0.792-3.868c0.232-0.123,0.474-0.263,0.726-0.032
			C218.328,267.866,219.382,268.236,220,269.11z"/>
		<path fill="#BF502C" d="M217.646,267.066c-2.356,1.239-2.552,2.44-0.714,4.341c1.263,1.307,2.71,2.383,4.204,3.405
			c-0.21,0.35-0.487,0.615-0.895,0.715c-1.571-1.251-3.156-2.484-4.516-3.975c-0.541-0.593-1.056-1.21-1.246-2.009
			c-0.375-1.575,0.286-2.626,2.158-3.501c0.215-0.001,0.297,0.148,0.359,0.32C217.212,266.597,217.428,266.832,217.646,267.066z"/>
		<path fill="#A53A1F" d="M216.996,266.363c-0.071-0.071-0.142-0.141-0.213-0.213c-0.538-1.235-0.704-2.471,0-3.707
			c-0.002-2.433-0.005-4.862-0.007-7.294c0.023-2.133,0.046-4.265,0.069-6.398c0.241,0.423,0.17,0.889,0.17,1.336
			C217.015,255.512,217.003,260.938,216.996,266.363z"/>
		<path fill="#701109" d="M217.457,278.912c-0.441,0.948-0.729,1.929-0.641,2.991c-0.306-1.088-1.321-1.518-2.091-2.122
			c-4.182-3.285-7.817-7.049-10.417-11.721c-1.074-1.93-1.792-4.011-2.234-6.189c-0.619-3.046-1.285-6.1-1.238-9.213
			c0.05-3.339,0.404-6.664,1.805-9.775c0.281-0.625,0.564-1.242,1.132-1.668c0.191-0.205,0.295-0.601,0.684-0.416
			c0.261,0.125,0.283,0.429,0.292,0.697c0.013,0.425-0.111,0.826-0.249,1.218c-1.03,2.938-1.533,5.936-1.088,9.049
			c0.048,0.342,0.021,0.683-0.158,0.991c-0.551,0.352-0.619-0.14-0.735-0.453c-0.267-0.726-0.251-1.496-0.322-2.243
			c-0.541,7.649,0.412,14.893,5.772,20.927c-0.186-0.611-0.506-1.17-0.749-1.762c-0.261-0.633-0.558-1.252-0.795-1.896
			c-1.141-3.078-1.887-6.267-2.582-9.468c-0.073-0.336-0.139-0.675,0.027-1.006c0.563-0.341,0.712,0.185,0.899,0.481
			c0.365,0.576,0.771,1.111,1.266,1.577c0.772,1.543,1.112,3.236,1.609,4.867c1.274,4.188,3.375,7.889,6.181,11.225
			c0.772,0.919,1.692,1.643,2.638,2.344C217.01,277.754,217.413,278.208,217.457,278.912z"/>
		<path fill="#7A0A05" d="M203.087,252.873c-0.076-0.826-0.171-1.65-0.224-2.478c-0.172-2.648,0.339-5.192,1.203-7.681
			c0.137-0.393,0.297-0.785,0.368-1.191c0.143-0.819-0.272-0.562-0.66-0.309c0.603-1.281,1.483-2.306,2.746-2.977
			c0.568-0.292,1.134-1.083,1.782-0.34c0.551,0.632-0.076,1.217-0.463,1.7c-2.448,3.041-3.084,6.535-2.635,10.31
			c0.04,0.34,0.12,0.675,0.066,1.021c-0.011,2.23,0.294,4.429,0.68,6.617c0.089,0.507,0.311,1.034-0.119,1.503
			c-0.957-0.483-1.215-1.525-1.826-2.285C203.112,255.604,202.651,254.343,203.087,252.873z"/>
		<path fill="#9A1909" d="M204.918,250.822c-0.34-2.193-0.368-4.376,0.161-6.552c0.448-1.845,1.269-3.49,2.503-4.933
			c0.172-0.201,0.306-0.434,0.458-0.652c0.126-0.184,0.318-0.359,0.168-0.609c-0.182-0.305-0.441-0.204-0.704-0.118
			c-0.324,0.105-0.656,0.188-0.985,0.279c0.78-1.184,1.863-1.516,3.198-1.14c1.194,1.253,1.165,1.832-0.129,2.826
			c-0.358,0.274-0.748,0.537-0.778,1.058c-1.311,1.219-1.943,2.745-2.072,4.509c-0.042,0.563-0.144,1.121-0.219,1.68
			c0.409,2.33,0.533,4.678,0.449,7.037c-0.475,0.699-0.675,0.065-0.857-0.218C205.491,253.022,205.152,251.939,204.918,250.822z"/>
		<path fill="#680D09" d="M300.464,237.33c0.081-0.082,0.163-0.164,0.245-0.245c0.906-0.645,1.732-0.395,2.632,0.103
			c0.703,0.389,1.332,0.857,1.973,1.323c1.474,1.156,2.342,2.744,3.13,4.391c0.029,0.246,0.015,0.478-0.204,0.645
			c-0.659-0.054-0.81-0.638-1.068-1.073c-0.974-1.636-2.238-2.976-3.885-3.939c-0.386-0.225-0.761-0.517-1.259-0.418
			c-0.08,0.27,0.129,0.342,0.28,0.422c2.07,1.09,3.389,2.801,4.024,5.019c0.882,3.067,1.088,6.194,0.831,9.379
			c-0.184,2.276-0.516,4.533-0.736,6.8c-0.303,3.132-1.239,6.079-2.287,9.038c3.044-3.485,3.917-7.762,4.595-12.107
			c0.513-3.288,0.672-6.578-0.041-9.864c-0.088-0.412-0.128-0.833,0.146-1.21c0.099-0.099,0.208-0.11,0.325-0.034
			c0.229,1.372,0.459,2.743,0.688,4.115c0.186,1.447,0.186,2.896,0,4.343c-0.328,6.956-2.078,13.392-6.769,18.787
			c-2.523,2.903-5.228,5.61-8.366,7.845c-0.504,0.358-0.24,0.944-0.649,1.253c0.065-1.422-0.309-2.713-1.154-3.862
			c-0.098-0.675,0.283-1.066,0.808-1.378c4.89-2.899,7.798-7.347,9.295-12.654c1.299-4.605,2.52-9.263,2.757-14.099
			c0.111-2.28-0.144-4.489-0.917-6.63c-0.604-1.675-1.755-2.827-3.454-3.408c-0.071-0.025-0.145-0.05-0.215-0.078
			C299.57,239.172,299.436,238.719,300.464,237.33z"/>
		<path fill="#751007" d="M309.852,254.016c0-1.447,0-2.896,0-4.343C310.216,251.121,310.215,252.569,309.852,254.016z"/>
		<path fill="#751007" d="M309.165,245.558c-0.075,0-0.151,0-0.227,0c-0.64-0.548-0.909-1.221-0.688-2.057
			c0-0.227,0-0.455-0.001-0.682c0.63,0.137,0.377,0.808,0.688,1.139l0,0C309.013,244.491,309.089,245.024,309.165,245.558z"/>
		<path fill="#761705" d="M297.276,237.105c-0.814,1.124-2.009,1.834-3.01,2.756c-0.807,0.742-1.25,0.359-1.549-0.522
			c-0.568-1.692-0.934-3.442-1.556-5.122c-1.276-3.446-3.392-6.364-5.802-9.044c-0.942-1.048-2.008-2.065-3.168-2.931
			c-0.553,0.176-0.814-0.274-1.162-0.54c-2.243-1.712-3.924-3.925-5.396-6.284c-2.074-3.326-5.157-5.153-8.776-6.307
			c-2.582-0.823-5.22-1.378-7.893-1.766c-1.354-0.196-2.28-0.759-2.373-2.246c0-0.385,0-0.77,0-1.154
			c0.207-0.906,0.804-1.18,1.688-1.146c3.429,0.133,6.762,0.804,10.054,1.739c4.434,1.26,8.697,2.945,12.771,5.104
			c0.233,0.123,0.491,0.219,0.63,0.471c3.731,1.677,6.91,4.2,10.166,6.614c3.538,2.621,5.318,6.368,6.761,10.322
			c0.791,2.167,1.732,4.299,2.048,6.618c-0.351,0.306-0.264,0.876-0.688,1.137c-0.352-1.346-0.585-2.721-1.044-4.042
			c-1.108-3.189-2.17-6.396-3.939-9.306c-0.239-0.392-0.56-0.719-0.773-1.123c-0.808-1.486-2.164-2.441-3.448-3.433
			c-5.557-4.292-11.666-7.592-18.307-9.872c-4.336-1.489-8.81-2.409-13.378-2.848c-0.451-0.043-1.02-0.13-1.107,0.485
			c-0.099,0.695,0.474,0.893,1.025,0.964c3.031,0.395,5.994,1.052,8.889,2.053c3.805,1.316,6.992,3.453,9.55,6.584
			c1.936,2.367,4.275,4.329,6.654,6.24c4.736,3.804,8.279,8.472,10.254,14.265c0.098,0.289,0.201,0.575,0.315,0.858
			c0.564,1.412,0.623,1.449,2.15,1.328C297.024,236.947,297.159,236.997,297.276,237.105z"/>
		<path fill="#8F2406" d="M281.735,210.114c-4.656-2.453-9.493-4.448-14.608-5.724c-2.831-0.707-5.7-1.194-8.621-1.37
			c-0.857-0.052-1.474,0.205-1.913,0.924c-0.118-1.044,0.52-1.303,1.386-1.37c1.806-0.139,3.546,0.291,5.301,0.594
			c5.431,0.938,10.537,2.851,15.521,5.138c0.205,0.094,0.429,0.145,0.646,0.215C280.069,209.255,281.288,209.128,281.735,210.114z"
			/>
		<path fill="#861E11" d="M308.937,243.958c-0.419-0.265-0.335-0.833-0.688-1.139c-0.873-1.458-1.762-2.905-2.972-4.119
			c-0.447-0.62-1.464-0.67-1.6-1.602c1.082,0.133,1.752,0.998,2.373,1.668C307.41,240.234,308.619,241.873,308.937,243.958z"/>
		<path fill="#751007" d="M303.678,237.1c0.355,0.711,1.285,0.849,1.6,1.602c-0.795-0.211-1.338-0.836-2-1.258
			c-0.836-0.533-1.646-0.713-2.568-0.358c0.076-0.145,0.154-0.29,0.231-0.435C301.947,236.231,302.829,236.566,303.678,237.1z"/>
		<path fill="#240B09" d="M242.405,287.856c1.058,0.804,2.078,1.625,1.608,3.195c-0.443,1.577-1.246,1.852-2.462,0.842
			c-0.021-0.051-0.04-0.104-0.06-0.155c-0.523-0.376-1.103-0.34-1.602-0.047c-0.625,0.367-0.942,0.276-1.181-0.419
			c-0.505-1.47-1.456-2.38-3.125-2.279c-0.553,0.033-0.696-0.266-0.731-0.768c-0.118-1.708-0.875-3.101-2.138-4.252
			c-0.506-0.461-1.041-0.747-1.733-0.7c0.186-1.062-0.078-1.452-0.919-1.367c-0.3-1.434-1.025-2.629-2.052-3.655
			c0.555-0.107,0.123-0.351,0.087-0.555c-0.061-0.35-0.479-0.733-0.099-1.039c0.325-0.261,0.729,0.021,1.055,0.187
			c1.258,0.639,2.372,1.473,3.296,2.551c-1.595,0.301-1.721,0.425-0.46,1.714c2.17,2.219,3.649,5.06,6.247,6.881
			c0.466,0.327,0.93,0.655,1.438,0.913C241.195,289.723,241.893,289.465,242.405,287.856z"/>
		<path fill="#342F2E" d="M245.617,298.592c0.341,0.331,0.177,0.755,0.217,1.141c-1.38,0.316-2.102-0.888-2.269-2.735
			c-0.051-0.564-0.008-1.135-0.215-1.681c-0.088-0.232-0.047-0.591-0.446-0.501c-0.28,0.063-0.247,0.346-0.257,0.566
			c-0.047,0.979,0.07,1.961-0.21,2.935c-0.179,0.624-0.393,1.171-1.064,1.339c-0.649,0.162-1.074-0.284-1.454-0.702
			c-1.765-1.942-1.356-4.955-0.016-6.846c0.395-0.558,1.04-0.324,1.589-0.371l0.006,0.004c0.497,0.396,1.056,0.723,1.374,1.328
			c0.454-0.654,0.434-1.71,1.588-1.548c-0.002,0.23-0.003,0.46-0.005,0.688C243.988,294.494,244.111,296.668,245.617,298.592z"/>
		<path fill="#3A3436" d="M230.397,291.283c-1.882-0.005-3.419-2.446-2.712-4.352c0.454-1.222,1.318-2.113,2.439-2.755
			c0.524-0.301,1.111-0.317,1.658-0.107c1.393,0.53,2.621,2.673,2.381,4.081C233.907,289.657,231.948,291.287,230.397,291.283z"/>
		<path fill="#363232" d="M238.292,292.223c-0.262,1.079-0.405,2.491-1.568,3.491c-0.898,0.772-1.514,0.781-2.38-0.047
			c-0.782-0.748-1.278-1.665-0.955-2.746c0.427-1.426,0.985-2.85,2.61-3.335C237.241,289.216,238.32,290.359,238.292,292.223z"/>
		<path fill="#3C3939" d="M219.341,278.492c0.52-0.47,1.038-0.938,1.557-1.407c0.44,0.248,0.448,1.35,1.328,0.712
			c0.678-0.492,0.723-1.11,0.19-1.765c-0.071-0.089-0.112-0.196-0.138-0.309c0.233-0.224,0.466-0.447,0.699-0.671
			c0.977,0.462,1.265,1.4,0.681,2.39c-0.604,1.021-1.458,1.813-2.453,2.451c-0.983,0.631-1.375,0.478-1.675-0.638
			C219.46,279.002,219.403,278.746,219.341,278.492z"/>
		<path fill="#1C0907" d="M230.063,281.906c0.059-0.309-0.126-0.658,0.171-0.97c0.327,0.366,0.602,0.768,0.965,1.059
			c0.742,0.596,0.653,0.987-0.216,1.278C229.68,283.487,230.077,282.558,230.063,281.906z"/>
		<path fill="#6A0B09" d="M255.446,305.455c0.004-1.206,0.008-2.415,0.011-3.622c0.719-0.624,1.643-0.411,2.466-0.577
			c2.035-0.411,1.945,0.006,2.226-2.194c0.232-1.828,0.517-3.65,0.69-5.486c0.039-0.395,0.168-0.739,0.562-0.92
			c0.696-0.31,1.062-0.963,1.515-1.512c0.276-0.336,0.547-0.762,0.977-0.639c0.525,0.151,0.496,0.725,0.455,1.17
			c-0.144,1.62-0.289,3.243-0.5,4.855c-0.252,1.912-0.558,3.817-0.864,5.722c-0.418,2.587-1.638,3.646-3.808,3.435
			C257.936,305.566,256.665,305.927,255.446,305.455z"/>
		<path fill="#C9522A" d="M261.4,292.655c-0.307,2.242-0.644,4.48-0.915,6.727c-0.232,1.925-0.197,1.94-2.095,2.174
			c-0.974,0.119-1.955,0.187-2.934,0.277c-1.33-0.021-2.632-0.268-3.941-0.474c-0.609-0.097-0.9-0.322-0.872-0.934
			c-0.028-0.427,0.277-0.354,0.532-0.361c1.029,0.538,2.116,0.763,3.283,0.717c1.176-0.046,2.354-0.063,3.528-0.139
			c0.819-0.056,1.288-0.442,1.407-1.33c0.568-4.25,1.127-8.499,1.755-12.739c0.052-0.353-0.103-0.673-0.114-1.013
			c-0.102-0.367-0.215-0.732-0.232-1.119c-0.052-0.312-0.05-0.624-0.021-0.938c0.101-0.533-0.055-1.105,0.229-1.612
			c1.27-1.943,3.167-3.248,4.874-4.744c2.251-1.974,4.539-3.907,6.756-5.919c2.273-2.063,4.627-4.036,6.861-6.146
			c0.303-0.288,0.651-0.54,1.121-0.349c0.312,0.65-0.176,1.025-0.556,1.346c-1.255,1.053-2.412,2.21-3.612,3.318
			c-1.056,0.972-2.105,1.961-2.959,3.131c-3.407,2.887-6.811,5.778-10.229,8.651c-0.369,0.309-0.665,0.627-0.709,1.108
			c-0.1,1.092-0.18,2.186-0.27,3.277C261.92,287.917,261.561,290.275,261.4,292.655z"/>
		<path fill="#160F0F" d="M288.134,275.271c-0.261-0.38-0.517-0.842-1.075-0.553c-0.652,0.335-0.977,0.987-0.722,1.631
			c0.552,1.394,0.097,1.354-1.166,1.289c-1.493-0.076-2.288,1.245-2.982,2.44l-0.001,0.002c-0.633,0.948-1.167,1.902-0.229,2.971
			c0.154,0.151,0.309,0.301,0.463,0.452c0.56-0.105,0.794,0.215,0.907,0.692c0.47,0.706,1.155,1.039,1.962,1.234
			c0.715,0.175,1.429,0.462,1.44,1.366c0.012,0.815-1.075,2.058-1.813,2.158c-0.701,0.094-0.866-0.396-0.883-0.912
			c-0.053-1.673-1.047-2.702-2.332-3.554c-1.51-1.001-2.462-0.869-3.631,0.526c-0.292,0.349-0.566,0.715-0.82,1.091
			c-1.035,1.537-1.061,2.246,0.008,3.722c0.786,1.086,1.732,2.021,3.112,2.337c0.978,0.224,1.051,0.726,0.486,1.453
			c-0.255,0.331-0.492,0.675-0.764,0.991c-0.329,0.388-0.825,0.451-1.254,0.376c-0.489-0.086-0.526-0.566-0.543-1.006
			c-0.048-1.327-0.683-2.346-1.587-3.296c-0.852-0.897-1.707-1.488-2.977-1.003c1.199-1.102,2.29-2.288,3.127-3.707
			c0.499-0.844,1.044-1.703,1.742-2.377c1.766-1.706,2.801-3.959,4.449-5.746c0.459-0.497,0.853-1.049,1.365-1.511
			c0.759-0.683,1.51-1.367,1.803-2.435c0.191-0.705,0.624-0.835,1.275-0.312c1.844,1.481,3.437,3.224,5.079,4.907
			c0.761,0.78,0.965,1.867,1.039,2.947c-0.193-0.038-0.381-0.104-0.412-0.324c-0.235-1.642-1.386-2.61-2.586-3.545
			C289.379,277.25,288.697,276.325,288.134,275.271z"/>
		<path fill="#2D2A2A" d="M283.33,284.196c-0.302-0.231-0.604-0.463-0.907-0.692c-0.56-1.681-0.316-3.129,1.188-4.232
			c1.15-0.845,1.785-0.92,2.844,0.015c1.055,0.93,1.932,2.055,2.289,3.464c0.419,1.646-0.487,2.621-2.148,2.317
			C285.487,284.863,284.348,284.747,283.33,284.196z"/>
		<path fill="#2F2B2B" d="M283.105,288.021c-0.005,1.906-1.167,3.273-2.769,3.257c-1.664-0.018-3.181-1.493-3.177-3.092
			c0.001-1.674,1.71-3.783,3.089-3.711C281.525,284.542,283.384,286.13,283.105,288.021z"/>
		<path fill="#160F0F" d="M269.389,291.965c1.266-0.895,2.643-1.564,4.108-2.053c-1.371,1.236-1.415,2.618-0.452,4.111l0,0
			c0.027,1.235,0.794,2.105,1.511,2.986c0.34,0.417,0.385,0.812,0.131,1.256c-0.288,0.504-0.607,1.027-1.273,0.997
			c-0.771-0.033-1.357-0.326-1.117-1.278c0.41-1.622,0.083-3.134-0.599-4.622C271.23,292.341,270.564,291.763,269.389,291.965z"/>
		<path fill="#302C2C" d="M268.48,295.917c0-0.775-0.048-1.312,0.01-1.836c0.092-0.812,0.485-1.486,1.338-1.625
			c0.831-0.137,1.311,0.402,1.631,1.132c0.787,1.781,0.527,3.844-0.672,5.095c-0.931,0.971-1.623,0.818-2.092-0.42
			C268.371,297.412,268.517,296.539,268.48,295.917z"/>
		<path fill="#312D2D" d="M273.045,294.024c-0.074-0.483-0.17-0.965-0.218-1.451c-0.104-1.055,0.582-2.226,1.562-2.511
			c0.951-0.278,1.505,0.357,2.05,1.031c0.851,1.049,1.227,2.169,0.724,3.472c-0.648,1.681-2.176,1.938-3.343,0.565
			C273.53,294.789,273.301,294.394,273.045,294.024L273.045,294.024z"/>
		<path fill="#333130" d="M265.265,298.592c0.052-1.942,0.63-3.801,0.927-5.704c0.729,0.104,0.834,0.675,0.899,1.246
			c0.138,1.209-0.104,2.4-0.298,3.578C266.605,298.86,265.888,299.203,265.265,298.592z"/>
		<path fill="#160F0F" d="M268.451,300.151c0.087,0.512-0.186,0.858-0.542,1.174c-0.236,0.21-0.469,0.197-0.726,0.045
			c-0.247-0.146-0.496-0.404-0.387-0.63c0.39-0.793,0.495-1.654,0.718-2.486c0.048-0.174,0.145-0.389,0.366-0.386
			c0.296,0.005,0.323,0.264,0.352,0.488C268.308,298.954,268.378,299.553,268.451,300.151z"/>
		<path fill="#160F0F" d="M266.876,291.97c0.835,0,1.671,0,2.506,0c-0.77,0.528-1.244,1.199-1.153,2.195
			c0.026,0.3,0.129,0.808-0.369,0.787c-0.372-0.015-0.318-0.476-0.292-0.761C267.649,293.346,267.41,292.617,266.876,291.97z"/>
		<path fill="#1B1615" d="M281.959,283.051c-0.966-1.02-0.905-1.786,0.229-2.972C281.844,281.05,281.299,282.005,281.959,283.051z"
			/>
		<path fill="#A03019" d="M251.11,300.185c-0.155,0.081-0.311,0.161-0.466,0.24c-0.486-1.397-0.384-2.888-0.685-4.319
			c-0.313-1.485-1.301-2.549-2.206-3.645c-0.46-0.559-0.879-0.205-1.205,0.377c-0.372,0.662,0.07,1.565-0.676,2.084
			c-0.317-1.689-0.641-3.379-0.952-5.07c-0.095-0.518-0.172-1.037-0.471-1.488c-0.413-0.725-0.945-1.366-1.431-2.04
			c-0.259-0.361-0.682-0.773-0.328-1.204c0.379-0.463,0.962-0.228,1.351,0.041c1.514,1.055,3.251,1.812,4.493,3.313
			c0.099-0.986-0.393-1.961,0.04-2.909c-0.093-0.933-0.163-1.867-0.288-2.796c-0.054-0.401-0.343-0.856,0.104-1.132
			c0.467-0.288,0.503,0.463,0.88,0.493c0.193,0.033,0.337,0.14,0.446,0.299c0.384,0.855,0.554,1.746,0.418,2.685
			c-0.04,0.122-0.099,0.233-0.172,0.339c-0.546,0.907-0.239,1.873-0.091,2.781c0.488,2.991,0.783,6.006,1.183,9.009
			c0.065,0.486,0.197,0.964,0.297,1.446C251.458,299.198,251.572,299.75,251.11,300.185z"/>
		<path fill="#751007" d="M300.464,237.33c-0.617,1.562-0.612,1.55,1.053,2.14c2.143,0.76,3.367,2.336,3.996,4.473
			c0.877,2.983,0.578,5.964,0.313,9.005c-0.316,3.632-1.573,7.019-2.256,10.547c-0.599,3.104-2.125,5.823-4.064,8.323
			c-0.888,1.143-1.795,2.25-2.82,3.273c-0.685,0.683-1.4,1.288-2.306,1.629c-0.67,0.251-1.163,0.672-1.467,1.318
			c-0.616-0.379-0.875-1.067-1.358-1.563c-0.066-0.654,0.309-1.01,0.875-1.144c2.637-0.621,4.188-2.478,5.34-4.737
			c0.773-1.517,1.764-2.904,2.411-4.501c1.421-3.508,2.803-7.028,3.809-10.678c0.37-1.339,0.654-2.72,0.601-4.137
			c-0.37-0.385-0.21-0.853-0.205-1.298c0.016-1.813,0.202-3.63-0.354-5.416c-0.629-2.024-1.92-3.19-4.052-3.428
			c-1.516-0.168-1.843-0.684-1.34-1.976c0.079-0.083,0.158-0.166,0.236-0.249C299.387,238.368,299.81,237.734,300.464,237.33z"/>
		<path fill="#3D0E07" d="M268.708,287.629c2.663-2.29,5.439-4.447,7.997-6.86c0.757-0.427,1.519-0.845,2.269-1.282
			c0.455-0.267,1.025-0.749,1.426-0.377c0.514,0.479-0.033,1.112-0.349,1.511c-1.292,1.638-2.697,3.183-3.991,4.815
			c-1.096,1.385-2.293,2.635-3.813,3.555c-0.324,0.195-0.659,0.378-0.994,0.556c-0.881,0.465-1.904,0.752-2.706,0.176
			C267.754,289.153,268.692,288.345,268.708,287.629z"/>
		<path fill="#93311D" d="M288.343,273.46c0.723,0.186,1.216,0.61,1.401,1.353C289.204,274.438,288.715,274.01,288.343,273.46z"/>
		<path fill="#AF361A" d="M248.576,285.564c0.16,1.142,0.321,2.284,0.481,3.427c-1.978-1.498-3.897-2.92-6.33-4.052
			c0.386,1.449,1.826,2.063,1.725,3.425c-2.528-1.892-4.823-4.061-7.249-6.074c-1.462-1.214-2.917-2.437-4.375-3.656
			c-0.084-0.124-0.168-0.247-0.252-0.37c-0.172-1.022-1.372-1.325-1.611-2.308c-0.083-0.336-0.64-0.594-0.274-0.985
			c0.29-0.308,0.711-0.128,1.07,0.005c2.467,0.905,4.768,2.101,6.862,3.713c2.965,2.283,6.217,4.169,9.121,6.542
			C247.964,285.411,248.295,285.456,248.576,285.564z"/>
		<path fill="#A53A1F" d="M207.666,250.822c0.775,0.51,1.423,1.204,2.281,1.596c1.445,0.929,2.348,2.363,3.227,3.747
			c1.583,2.494,2.584,5.244,3.077,8.174c0.152,0.909-0.005,1.633-0.757,2.227c-1.236,0.979-1.466,2.439-0.614,3.782
			c0.783,1.234,1.864,2.205,2.969,3.129c0.548,0.459,1.058,0.975,1.677,1.361c0.292,0.184,0.635,0.456,0.493,0.926
			c-0.228,0.247-0.455,0.493-0.682,0.741c-1.959-1.502-4.038-2.864-5.458-4.965c-1.185-1.752-1.972-3.608-1.715-5.778
			c0.065-0.556-0.125-1.051-0.323-1.548c-1.584-3.963-2.638-8.11-4.159-12.096C207.523,251.709,207.306,251.257,207.666,250.822z"/>
		<path fill="#841F0B" d="M204.918,250.822c0.609,1.218,1.218,2.435,1.827,3.653c0.498,0.336,0.535,0.899,0.664,1.404
			c1.171,4.579,2.863,8.98,4.637,13.349c1.091,2.685,3.065,4.683,5.321,6.428c0.563,0.435,1.24,0.798,1.232,1.662
			c-0.387,0.527-1.036,0.868-1.144,1.595c-0.394-0.779-1.133-1.188-1.79-1.692c-2.424-1.858-4.031-4.372-5.597-6.932
			c-2.009-3.286-2.918-6.976-4.015-10.6c-0.065-0.217-0.15-0.428-0.225-0.641C205.244,256.336,204.819,253.608,204.918,250.822z"/>
		<path fill="#962C11" d="M218.6,277.317c-0.761-1.185-2.049-1.777-3.058-2.685c-2.151-1.936-3.629-4.294-4.567-6.969
			c-1.452-4.146-3.2-8.198-4.12-12.519c-0.047-0.222-0.074-0.447-0.109-0.67c-0.411-2.425-0.163-4.87-0.226-7.305
			c0.382,1.217,0.764,2.435,1.146,3.651c1.65,4.574,2.938,9.272,4.729,13.798c0.111,0.279,0.293,0.531,0.239,0.862
			c-0.588,3.652,1.414,6.126,3.865,8.365c0.724,0.661,1.563,1.199,2.349,1.793c0.287,0.218,0.475,0.49,0.489,0.864
			C219.091,276.775,218.845,277.045,218.6,277.317z"/>
		<path fill="#B74629" d="M220.018,275.763c-1.327-1.515-3.081-2.563-4.418-4.072c-0.939-1.062-1.602-2.179-1.557-3.662
			c0.022-0.729,0.212-1.244,0.904-1.541c0.896-0.385,1.148-1.008,0.97-2.008c-0.731-4.089-2.331-7.745-5.108-10.864
			c-0.326-0.366-0.576-0.798-0.862-1.198c-0.303-1.294-0.607-2.587-0.911-3.881c1.501,1.996,3.156,3.729,5.688,4.499
			c1.347,0.409,1.09,1.924,1.399,3.021c0.545,1.931,0.445,3.904,0.466,5.873c0.001,0.172,0.126,0.343,0.194,0.513
			c0,1.235,0,2.471,0,3.707c-0.479,0.372-0.968,0.729-1.434,1.117c-0.784,0.65-0.893,1.974-0.199,3.01
			c1.115,1.663,2.648,2.914,4.221,4.114c0.395,0.301,0.817,0.575,0.868,1.136C220.167,275.606,220.092,275.684,220.018,275.763z"/>
		<path fill="#3F0D06" d="M242.405,287.856c0.093,0.534,0.516,1.139-0.122,1.562c-0.717,0.478-1.548,0.394-2.283,0.065
			c-2.085-0.933-3.822-2.346-5.08-4.245c-1.036-1.564-2.525-2.718-3.594-4.239c-0.13-0.186-0.264-0.369-0.398-0.552
			c-0.295-0.406-0.65-0.878-0.255-1.327c0.387-0.439,0.83,0.025,1.24,0.16c0.143,0.047,0.292,0.076,0.438,0.113
			c0.305,0.229,0.61,0.458,0.915,0.686C236.312,282.672,239.358,285.265,242.405,287.856z"/>
		<path fill="#5E5C5C" d="M222.277,275.723c0.792,0.16,1.074,0.677,0.872,1.411c-0.206,0.744-0.717,1.299-1.514,1.307
			c-0.95,0.009-0.64-0.818-0.738-1.356C221.357,276.63,221.817,276.177,222.277,275.723z"/>
		<path fill="#424140" d="M288.134,275.271c0.827,0.769,1.655,1.538,2.482,2.308c-0.088,0.638,0.517,1.515-0.282,1.865
			c-0.653,0.285-1.205-0.43-1.762-0.809c-0.395-0.269-0.675-0.605-0.925-0.987C286.953,276.594,287.043,276.155,288.134,275.271z"/>
		<path fill="#4A4747" d="M245.617,298.592c-0.939-0.09-1.11-0.871-1.32-1.552c-0.368-1.194-0.533-2.434-0.452-3.68
			c0.027-0.411,0.119-0.923,0.612-1.151C245.035,294.302,245.48,296.419,245.617,298.592z"/>
		<path fill="#1E1B1C" d="M244.46,291.521c-0.94,0.204-1.098,0.927-1.141,1.722c-0.015,0.273-0.045,0.602-0.349,0.642
			c-0.396,0.053-0.312-0.348-0.371-0.575c-0.17-0.665-0.776-1.016-1.101-1.567c1.14,0.869,1.879,0.278,2.515-0.69
			C244.226,291.148,244.382,291.297,244.46,291.521z"/>
		<path fill="#4C4748" d="M225.483,284.422c-1.248-0.002-2.02-0.676-2.045-1.784c-0.034-1.496,1.799-3.613,3.091-3.571
			c1.027,0.034,2.038,1.269,2.034,2.482C228.557,283.073,227.108,284.424,225.483,284.422z"/>
		<path fill="#7B0A02" d="M252.032,203.022c0.948-0.076,1.772,0.039,2.121,1.106c0.255,0.782,0.005,1.432-0.536,1.969
			c-0.555,0.549-1.351,0.57-2.031,0.569c-7.854-0.012-14.702,3.11-21.364,6.802c-3.338,1.85-6.353,4.148-9.076,6.828
			c-3.018,2.972-4.935,6.615-6.46,10.501c-0.403,1.025-0.764,2.069-1.196,3.082c-0.361,0.849-0.991,1.453-1.964,1.08
			c-0.844-0.324-0.931-1.055-0.69-1.906c1.341-4.736,2.878-9.396,5.821-13.417c1.432-1.956,3.549-3.205,5.486-4.59
			c5.783-4.136,12.027-7.417,18.793-9.646C244.546,204.211,248.244,203.373,252.032,203.022z"/>
		<path fill="#C2411C" d="M254.958,250.338c0.426-0.02,0.399-0.276,0.425-0.623c0.098-1.318,0.148-2.658,0.432-3.942
			c0.638-2.885,2.14-5.419,3.448-8.032c1.304-2.604,3.11-4.841,4.956-7.058c0.194-0.233,0.353-0.497,0.508-0.757
			c1.049-1.763,1.349-1.862,3.283-1.059c-2.049,0.008-2.035,0.013-2.736,1.919c-0.555,1.512-1.633,2.728-2.516,4.03
			c-0.967,1.427-1.352,2.996-1.553,4.565c-0.405,3.179-0.578,6.388-1.235,9.534c-0.091,0.436-0.04,0.815,0.044,1.22
			c-2.218,0.286-4.43,0.686-6.675,0.254C253.861,249.805,254.409,250.032,254.958,250.338z"/>
		<path fill="#D6693F" d="M220.928,244.164c0.173-0.958-0.489-1.61-0.856-2.376c-0.439-0.913-0.787-1.863-0.981-2.863
			c-0.152-1.008-0.357-2.011-0.447-3.025c-0.359-4.053,1.387-7.368,3.755-10.44c1.013-1.314,2.054-2.616,3.546-3.445
			c-1.677,1.859-3.396,3.669-4.488,5.983c-2.184,4.626-1.417,9.788,2.146,13.479c1.093,1.132,0.798,2.26,0.258,3.459
			C222.882,244.679,221.905,244.421,220.928,244.164z"/>
		<path fill="#952C0F" d="M286.773,244.874c-0.815-0.752-1.106-1.814-1.616-2.747c-0.824-1.974-2.113-3.666-3.262-5.444
			c-1.234-1.91-2.891-3.517-3.944-5.551c-0.157-0.302-0.4-0.613-0.303-0.959c0.419-1.492-0.421-2.721-0.847-4.019
			c-0.292-0.89-0.919-1.667-0.82-2.682c0.014-0.14-0.065-0.296-0.124-0.435c-1.104-2.619-1.816-5.383-2.908-7.998
			c-1.064-2.549-3.44-3.57-5.861-4.518c-2.776-1.087-5.704-1.52-8.571-2.212c-1.278-0.308-1.82-0.97-1.924-2.301
			c1.224,1.662,3.122,1.777,4.91,2.088c2.489,0.434,4.858,1.234,7.221,2.094c2.621,0.954,4.595,2.655,5.549,5.242
			c1.347,3.654,3.664,6.521,6.54,9.035c0.778,0.679,1.307,1.576,1.692,2.544c0.531,1.578,1.377,3.037,1.666,4.711
			c0.241,1.395,0.417,2.752,0.077,4.167c-0.297,1.236,0.168,2.396,0.664,3.52c0.585,1.322,1.388,2.529,2.009,3.832
			c0.238,0.502,0.58,1.005,0.287,1.611C287.062,244.859,286.917,244.867,286.773,244.874z"/>
		<path fill="#8F2406" d="M282.189,227.041c-0.616-1.189-1.456-2.167-2.461-3.075c-2.53-2.284-4.532-4.95-5.717-8.218
			c-0.878-2.425-2.609-4.083-5.057-5.078c-2.975-1.208-6.043-2.032-9.192-2.533c-1.457-0.232-2.604-0.688-3.17-2.13
			c0-0.303,0-0.606,0-0.909c0.48,1.771,1.983,1.837,3.405,2.054c3.799,0.581,7.507,1.477,10.933,3.29
			c1.946,1.029,3.499,2.489,4.691,4.35c1.807,2.817,3.868,5.418,6.57,7.45c0.625,1.295,1.813,2.158,2.574,3.353
			c0.38,0.596,0.87,1.121,1.31,1.678c0.039,0.305-0.184,0.431-0.402,0.431C284.473,227.699,283.241,227.833,282.189,227.041z"/>
		<path fill="#B14B16" d="M270.298,225.44c-0.684-0.771-2.044-0.793-2.284-2.057c0.629-1.62,1.295-3.2,1.411-4.999
			c0.131-2.033-0.903-3.282-2.349-4.385c-0.609-0.465-1.286-0.807-2.028-1.017c-1.564-0.443-3.111-0.995-4.703-1.308
			c-1.709-0.337-3.077-0.994-3.753-2.697c-0.002-0.38-0.002-0.76-0.002-1.14c1.173,2.288,3.62,1.839,5.521,2.472
			c2.119,0.705,4.278,1.247,6.297,2.271c2.326,1.181,3.228,3.108,3.516,5.564c0.244,2.089-0.349,3.941-1.196,5.773
			C270.505,224.398,270.302,224.894,270.298,225.44z"/>
		<path fill="#DC4F2A" d="M254.958,250.338c-0.54,0.017-1.079,0.033-1.619,0.05c-2.543-0.069-5.058-0.367-7.542-0.922
			c0.752-0.191,0.007-0.479,0.047-0.717c0.564-1.483,1.667-2.53,2.953-3.335c2.968-1.861,5.405-4.251,7.467-7.063
			c0.294-0.402,0.555-0.948,1.232-0.793c-0.836,2.031-1.607,4.083-2.185,6.206c-0.381,1.401-0.582,2.822-0.546,4.267
			C254.786,248.801,254.366,249.617,254.958,250.338z"/>
		<path fill="#D86434" d="M257.497,237.559c-1.102,0.742-1.676,1.949-2.506,2.924c-1.467,1.724-3.07,3.256-4.966,4.481
			c-1.603,1.034-3.09,2.188-4.181,3.786c0.438-2.026,1.996-3.221,3.382-4.536c1.583-1.501,3.362-2.82,4.386-4.827
			c1.718-1.914,3.248-3.969,4.576-6.173c0.82,0.237,1.006,0.835,0.91,1.594C258.565,235.725,258.031,236.642,257.497,237.559z"/>
		<path fill="#F9DBB7" d="M241.002,238.713c-1.306,0.041-2.61-0.411-3.303-1.933c-0.518-1.136-0.182-2.383,0.844-3.111
			c2.428-1.724,4.967-2.137,7.676-0.617c1.447,0.811,1.747,2.345,0.506,3.473C245.197,237.915,243.374,238.713,241.002,238.713z"/>
		<path fill="#89260E" d="M282.189,227.041c1.053,0.11,2.108,0.205,3.158,0.343c0.271,0.036,0.516,0.139,0.729-0.111
			c1.949,3.035,3.357,6.247,3.689,9.91c0.175,1.924,0.493,3.832,0.431,5.774c-0.015,0.42,0,0.839-0.237,1.213
			c-0.563,0.878-1.395,0.88-2.283,0.704c-0.155-0.007-0.312-0.015-0.468-0.022c-0.599-1.814-1.739-3.355-2.543-5.067
			c-0.708-1.512-1.042-3-0.697-4.711c0.464-2.3-0.376-4.442-1.258-6.537C282.505,228.05,282.361,227.54,282.189,227.041z"/>
		<path fill="#351006" d="M288.135,245.332c-0.283-0.021-0.439-0.171-0.461-0.458c0.762-0.234,1.522-0.47,2.284-0.704
			c0.851,0.331,0.442,1.057,0.411,1.576c-0.174,2.91-0.42,5.815-0.643,8.721c-0.527,0.129-0.812-0.224-0.944-0.607
			c-0.315-0.909-0.731-1.82-0.421-2.828"/>
		<path fill="#74250E" d="M222.739,254.469c0.085,1.15,0.171,2.3,0.256,3.449c0.409,0.585,0.913,1.085,1.402,1.6
			c0.232,0.434,0.667,0.746,0.786,1.24c0.115,0.476,0.4,1.032-0.376,1.253c-0.983-0.808-1.941-1.651-2.959-2.413
			c-0.671-0.503-0.472-1.229-0.6-1.857c-0.126-0.613-0.053-1.267-0.066-1.903c0.282,0.353,0.556,0.549,0.782-0.044
			C222.149,255.309,222.219,254.757,222.739,254.469z"/>
		<path fill="#F1B87D" d="M254.308,214.718c0.423,0.883,0.132,1.82,0.199,2.729l-0.102-0.004l-0.101,0
			c-0.004-0.383-0.009-0.767-0.014-1.15C254.296,215.768,254.302,215.243,254.308,214.718z"/>
		<path fill="#B4501C" d="M213.838,237.784c1.985,0.369,2.01,0.372,2.305-1.729c0.708-5.072,2.468-9.718,5.778-13.659
			c1.059-1.261,2.429-2.282,3.738-3.309c5.249-4.11,11.2-6.861,17.541-8.77c2.649-0.799,5.401-1.263,8.195-1.09
			c1.279,0.079,2.218-0.331,2.898-1.391c0,0.302-0.002,0.604-0.003,0.907c-0.52,1.669-1.108,2.212-2.727,2.188
			c-5.776-0.089-11.095,1.66-16.275,3.976c-2.779,1.243-5.431,2.709-7.958,4.421c-4.582,3.102-7.705,7.25-9.294,12.551
			c-0.12,0.397-0.178,0.827-0.543,1.104c-0.765,1.531-0.629,3.233-0.899,4.857c-0.186,1.119-0.428,1.32-1.462,0.812
			C214.668,238.425,214.106,238.313,213.838,237.784z"/>
		<path fill="#C35E2D" d="M217.493,232.984c0.271-2.36,1.324-4.433,2.475-6.443c2.648-4.627,6.841-7.549,11.364-10.07
			c3.937-2.196,8.104-3.84,12.457-5c2.279-0.608,4.62-0.967,6.974-0.857c1.634,0.077,2.819-0.36,3.528-1.869
			c-0.037,2.04-0.974,3.049-2.963,2.965c-5.536-0.232-10.64,1.416-15.648,3.498c-3.133,1.302-6.129,2.881-8.87,4.885
			c-4.991,3.649-8.107,8.432-8.633,14.716C217.949,234.202,217.721,233.593,217.493,232.984z"/>
		<path fill="#680801" d="M297.276,237.105c-0.207,0.085-0.418,0.163-0.621,0.259c-0.818,0.384-1.438,0.283-1.855-0.623
			c-0.716-1.555-1.287-3.169-1.967-4.74c-1.196-2.762-2.902-5.111-4.873-7.374c-2.816-3.233-6.546-5.43-9.378-8.619
			c-0.959-1.079-1.98-2.101-2.938-3.181c-1.944-2.2-4.451-3.521-7.13-4.543c-3.136-1.196-6.378-1.977-9.727-2.283
			c-0.792-0.073-1.29-0.51-1.265-1.324c0.025-0.786,0.593-1.021,1.281-0.942c4.721,0.543,9.385,1.389,13.877,2.966
			c7.168,2.515,13.729,6.151,19.616,10.958c0.855,0.699,1.825,1.386,2.237,2.521c-0.626,0.186-0.876-0.35-1.211-0.666
			c-4.533-4.303-9.809-7.423-15.566-9.769c-0.734-0.3-1.507-0.481-2.425-0.661c0.258,0.555,0.634,0.808,0.942,1.115
			c3.889,3.864,8.051,7.433,12.066,11.159c3.531,3.276,5.798,7.308,7.468,11.742c0.134,0.356,0.252,0.719,0.406,1.068
			c0.591,1.336,0.769,1.432,2.248,1.211c0.229-0.035,0.454-0.069,0.636,0.126C298.492,236.039,297.883,236.572,297.276,237.105z"/>
		<path fill="#550600" d="M299.098,235.505c-0.25,0.085-0.507,0.155-0.748,0.259c-0.965,0.409-1.707,0.242-2.137-0.789
			c-0.612-1.473-1.201-2.957-1.852-4.413c-1.26-2.821-2.837-5.423-4.994-7.686c-3.938-4.133-8.606-7.479-12.462-11.701
			c-0.574-0.63-1.323-1.131-1.932-1.759c-0.187-0.192-0.409-0.419-0.223-0.692c0.161-0.238,0.416-0.036,0.628,0
			c1.817,0.311,3.486,1.052,5.138,1.825c5.202,2.436,9.903,5.606,14.016,9.63c1.677,2.146,2.66,4.651,3.627,7.151
			c0.639,1.653,1.113,3.371,1.697,5.047c0.28,0.805,0.378,1.6,0.164,2.426C299.714,235.038,299.406,235.272,299.098,235.505z"/>
		<path fill="#B84820" d="M273.498,272.528c0.498-1.452,1.66-2.382,2.708-3.387c1.311-1.26,2.682-2.457,4.026-3.684
			c0.202-0.185,0.349-0.403,0.352-0.69c-0.207-0.619,0.51-0.852,0.564-1.36c1.437-1.589,3.034-2.984,4.921-4.026
			c0.601,0.387,0.135,0.723-0.09,0.999c-0.526,0.649-1.162,1.203-1.706,1.844c-0.577,0.683-1.02,1.414-1.182,2.301
			C279.893,267.192,276.696,269.86,273.498,272.528z"/>
		<path fill="#983D18" d="M283.091,264.524c-0.417-0.731-0.029-1.257,0.369-1.861c0.766-1.161,2.045-1.876,2.654-3.155
			c-0.188-0.769,0.464-0.729,0.879-0.917c0.305-0.233,0.609-0.467,0.914-0.7c-0.006,0.72-0.379,1.28-0.787,1.829
			c-0.178,0.239-0.482,0.516-0.462,0.752c0.112,1.245-0.872,1.74-1.578,2.407C284.458,263.468,283.757,263.978,283.091,264.524z"/>
		<path fill="#5A200B" d="M288.362,251.032c0.14,1.27,0.379,2.501,1.365,3.436c0,0.677,0.005,1.354,0.002,2.029
			c-0.002,0.342,0.006,0.718-0.385,0.859c-0.461,0.167-0.564-0.247-0.719-0.529c-0.153-0.281-0.336-0.498-0.679-0.514
			C288.115,254.555,287.983,252.774,288.362,251.032z"/>
		<path fill="#97220D" d="M298.64,239.162c0.032,1.494,0.092,1.556,1.521,1.595c1.659,0.046,3.404,1.347,3.994,2.904
			c0.947,2.5,0.785,5.052,0.436,7.618c-0.744,2.083-1.453,4.186-3.196,5.707c0.634-1.929,1.456-3.8,1.704-5.848
			c0.059-0.487,0.11-0.97,0.119-1.46c-0.362-0.325-0.332-0.752-0.254-1.161c0.196-1.032,0.021-2.038-0.195-3.038
			c-0.401-1.852-1.575-2.65-3.471-2.402c-0.296,0.039-0.593,0.152-0.881-0.031c-0.5-0.029-1.02,0.628-1.449,0.128
			c-0.417-0.483-0.075-1.112,0.168-1.589C297.565,240.74,297.664,239.67,298.64,239.162z"/>
		<path fill="#B2391A" d="M298.417,243.046c1.947-1.255,4.4-0.001,4.831,2.595c0.227,1.373,0.12,2.693-0.03,4.038
			c-0.485,0.895-0.979,1.785-1.451,2.687c-0.586,1.118-1.507,1.736-2.759,1.629c-1.145-0.101-1.579-1.096-1.964-1.987
			C295.644,248.75,296.369,245.79,298.417,243.046z"/>
		<path fill="#B1411D" d="M224.808,262.011c0.465-0.554,0.166-1.057-0.119-1.547c-0.184-0.315-0.565-0.516-0.552-0.946
			c1.023,0.09,1.559,0.934,2.258,1.504c0.756,0.615,1.34,1.431,2.181,1.959c0.385,0.491,1.17,0.716,1.038,1.553
			c0.358,0.576,0.756,1.115,1.234,1.606c0.284,0.292,0.737,0.606,0.36,1.139C228.988,265.627,226.891,263.828,224.808,262.011z"/>
		<path fill="#D77B29" d="M229.613,264.534c-0.386-0.451-0.773-0.903-1.159-1.355c-0.741-0.614-0.741-0.614-0.438-1.055
			c0.806,0.124,1.306,0.744,1.862,1.227c3.544,3.077,7.153,6.078,10.708,9.142c2.613,2.251,5.249,4.474,7.876,6.712
			c1.372,1.269,1.617,2.031,1.023,3.168c-0.07-0.08-0.142-0.161-0.213-0.242c0.022-0.448-0.107-0.833-0.462-1.126
			c-1.826-2.029-4.088-3.547-6.177-5.269c-2.212-1.732-4.343-3.559-6.392-5.48c-0.157-0.155-0.315-0.309-0.472-0.464
			c-0.595-0.377-0.979-0.999-1.585-1.363c-1.282-1.087-2.617-2.114-3.733-3.385C230.229,264.789,229.991,264.541,229.613,264.534z"
			/>
		<path fill="#CD5030" d="M236.241,270.254c0.958,0.217,1.437,1.08,2.09,1.663c1.431,1.276,3.058,2.334,4.302,3.816
			C240.219,274.238,238.065,272.439,236.241,270.254z"/>
		<path fill="#CD5030" d="M234.185,268.427c0.768,0.176,1.146,0.805,1.585,1.363C235.006,269.611,234.633,268.975,234.185,268.427z"
			/>
		<path fill="#630A06" d="M203.087,252.873c0.137,1.335,0.625,2.589,0.916,3.89c1.008,4.839,2.076,9.658,4.409,14.082
			c0.089,0.169,0.174,0.34,0.251,0.513c0.078,0.172,0.184,0.376,0.023,0.528c-0.243,0.233-0.416-0.013-0.567-0.156
			c-1.164-1.107-2.109-2.392-2.956-3.746c-1.975-3.164-2.72-6.706-3.24-10.337c-0.362-2.529-0.578-5.035,0.033-7.549
			c0.051-0.213,0.14-0.416,0.259-0.763C202.83,250.537,202.488,251.825,203.087,252.873z"/>
		<path fill="#580804" d="M308.25,243.501c0.229,0.686,0.458,1.371,0.688,2.057c0.225,2.107,0.819,4.199,0.655,6.317
			c-0.376,4.921-0.84,9.851-3.218,14.322c-0.686,1.288-1.438,2.564-2.876,3.367c0.177-0.541,0.331-1.091,0.534-1.622
			c1.757-4.593,2.229-9.409,2.659-14.26c0.271-3.062,0.205-6.055-0.461-9.042c-0.589-2.651-1.819-4.822-4.492-5.893
			c-0.331-0.132-0.649-0.355-0.497-0.77c0.188-0.513,0.68-0.507,1.066-0.364c1.116,0.414,2.063,1.117,2.971,1.88
			C306.59,240.597,307.339,242.108,308.25,243.501z"/>
		<path fill="#484645" d="M242.408,295.04c0.047,0.936-0.146,1.804-0.725,2.562c-0.516,0.675-1.081,0.613-1.63,0.068
			c-1.096-1.089-1.02-4.066,0.113-5.154c0.61-0.585,1.496-0.347,1.947,0.524C242.303,293.405,242.412,294.144,242.408,295.04z"/>
		<path fill="#585254" d="M230.866,290.368c-1.274,0-2.417-1.228-2.38-2.559c0.035-1.27,1.522-2.929,2.618-2.921
			c1.035,0.008,2.129,1.372,2.156,2.691C233.291,289.114,232.214,290.368,230.866,290.368z"/>
		<path fill="#625F5F" d="M237.609,292.086c0.05,0.703-0.124,1.336-0.454,1.891c-0.342,0.573-0.738,1.32-1.535,1.12
			c-0.886-0.223-1.378-1.01-1.361-1.893c0.012-0.646,0.142-1.334,0.585-1.922c0.471-0.626,0.973-1.128,1.794-0.873
			C237.447,290.658,237.708,291.312,237.609,292.086z"/>
		<path fill="#201C1B" d="M251.11,300.185c-0.339-2.691-0.664-5.386-1.021-8.075c-0.234-1.763-0.53-3.519-0.766-5.282
			c-0.081-0.606,0.078-1.19,0.417-1.714c0.254,0.264,0.349,0.585,0.349,0.94c-0.002,0.292,0.219,0.513,0.255,0.793
			c0.007,0.15,0.014-0.042,0.016,0.111c0.04,2.424,0.04,2.424,2.376,2.613c0.149,0.012,0.298,0.033,0.446,0.065
			c0.622,0.25,1.281,0.218,1.909,0.133c1.128-0.151,2.256-0.23,3.391-0.276c1.08-0.042,1.684-0.639,1.511-1.675
			c-0.209-1.244,0.598-1.799,1.321-2.464c0.183,0.546,0.237,1.079,0.152,1.672c-0.6,4.219-1.169,8.441-1.71,12.669
			c-0.102,0.796-0.375,1.192-1.236,1.288c-2.169,0.237-4.324,0.265-6.484-0.088C251.575,300.822,251.246,300.648,251.11,300.185z"/>
		<path fill="#4D4945" d="M249.939,285.05c0.675,0.5,1.473,0.495,2.248,0.501c2.64,0.017,5.276,0.039,7.917-0.163
			c0.811-0.062,0.606-0.691,0.977-0.943c0.077,0.304,0.156,0.607,0.232,0.911c-0.28,0.496,0.031,1.354-0.969,1.429
			c-0.301,0.024,0.016,0.359,0.063,0.548c0.336,1.306-0.453,2.709-1.973,2.603c-1.389-0.098-2.798,0.122-4.199,0.182
			c-0.369,0.016-0.769,0.1-1.086-0.203c0.261-0.551,0.8-0.651,1.305-0.8c0.327-0.094,0.667-0.152,0.971-0.313
			c0.272-0.144,0.563-0.317,0.492-0.677c-0.068-0.334-0.363-0.459-0.679-0.516c-0.451-0.082-0.906-0.057-1.36-0.067
			c-0.265-0.006-0.533-0.002-0.791-0.067c-0.251-0.064-0.598-0.107-0.59-0.426c0.009-0.343,0.359-0.312,0.615-0.332
			c0.151-0.013,0.304-0.006,0.456-0.007c1.468,0.032,2.934-0.025,3.964-0.109c-1.443,0.226-3.331,0.067-5.214,0.148
			c-0.889,0.039-1.801-0.045-2.611-0.521c0.011-0.371,0.022-0.742,0.033-1.113C249.805,285.09,249.872,285.069,249.939,285.05z"/>
		<path fill="#DF812C" d="M267.54,275.251c1.765-1.513,3.529-3.025,5.295-4.538c0.762-1.369,2.146-2.104,3.217-3.156
			c0.592-0.594,1.235-1.128,1.882-1.658c0.671-0.646,1.415-1.205,2.103-1.83c0.346-0.315,0.701-0.703,1.267-0.478
			c0.152,0.632-0.618,0.699-0.719,1.176c-1.254,0.614-2.104,1.727-3.132,2.61c-3.071,2.641-6.037,5.404-9.074,8.089
			c-2.067,1.825-4.282,3.482-6.203,5.474c-0.284,0.295-0.521,0.637-0.779,0.957c-0.156-1.063,0.217-1.82,1.167-2.391
			c0.598-0.358,1.066-0.933,1.593-1.41C265.21,277.061,266.253,276.011,267.54,275.251z"/>
		<path fill="#504E4E" d="M286.533,282.229c0.009,1.065-0.651,1.755-1.66,1.732c-1.08-0.024-1.978-1.016-2.002-2.207
			c-0.021-1.099,0.687-1.923,1.636-1.904C285.454,279.867,286.525,281.124,286.533,282.229z"/>
		<path fill="#4F4C4C" d="M279.96,285.338c0.931,0.032,2.01,1.353,1.99,2.435c-0.024,1.341-1.04,2.412-2.247,2.367
			c-0.986-0.034-1.872-1.101-1.846-2.216C277.889,286.632,278.97,285.305,279.96,285.338z"/>
		<path fill="#4E4B4B" d="M271.224,295.517c0.012,0.243-0.013,0.656-0.25,1.025c-0.372,0.578-1.098,0.638-1.508,0.092
			c-0.201-0.267-0.389-0.589-0.444-0.91c-0.157-0.897-0.278-1.815,0.449-2.564c0.235-0.241,0.518-0.338,0.814-0.131
			C271.092,293.593,271.22,294.442,271.224,295.517z"/>
		<path fill="#524F4E" d="M276.473,293.108c0.084,0.882-0.148,1.612-1.12,1.814c-1.033,0.215-1.423-0.545-1.697-1.317
			c-0.199-0.558-0.491-1.144-0.287-1.76c0.196-0.592,0.542-1.108,1.215-1.234c0.729-0.135,1.091,0.427,1.485,0.878
			C276.471,291.948,276.514,292.52,276.473,293.108z"/>
		<path fill="#6B6668" d="M227.983,281.457c0.01,0.984-1.108,2.258-1.998,2.278c-0.835,0.019-1.417-0.568-1.403-1.418
			c0.015-0.986,1.214-2.429,2.031-2.441C227.209,279.866,227.977,280.75,227.983,281.457z"/>
		<path fill="#AE6E21" d="M224.575,259.111c0.967,1.232,2.373,1.988,3.412,3.143c-0.184,0.479,0.449,0.546,0.467,0.925
			c-0.499-0.055-0.766-0.444-1.069-0.763c-1.005-1.055-2.121-1.983-3.249-2.897c-0.479-0.462-0.986-0.906-1.14-1.6
			C223.572,258.25,223.9,258.91,224.575,259.111z"/>
		<path fill="#440500" d="M282.655,212.871c1.038,0.027,1.793,0.651,2.632,1.083c2.514,1.294,4.781,2.952,6.944,4.749
			c1.849,1.535,3.112,3.491,3.997,5.741c1.075,2.727,2.105,5.456,2.489,8.384c0.028,0.222,0.187,0.476-0.048,0.625
			c-0.315,0.2-0.505-0.114-0.637-0.308c-0.403-0.596-0.819-1.196-1.128-1.843c-1.912-4.002-4.124-7.826-7.369-10.887
			c-1.981-1.869-3.786-3.963-6.122-5.44c-0.538-0.341-0.817-0.892-1.176-1.371C281.871,213.111,282.074,212.833,282.655,212.871z"/>
		<path fill="#C14E2C" d="M301.859,247.76c-0.035,1.553-0.378,3.015-1.485,4.174c-0.827,0.867-1.275,0.837-2.086,0.008
			c-1.589-1.627-1.262-5.556,0.575-6.908c1.064-0.785,2.281-0.412,2.752,0.815C301.853,246.473,301.866,247.108,301.859,247.76z"/>
		<path fill="#706D6C" d="M239.888,294.97c0.002-0.853,0.018-1.983,1.018-1.979c1.104,0.008,1.034,1.178,1.042,2.055
			c0.003,0.346-0.039,0.68-0.209,0.988c-0.23,0.419-0.513,0.798-1.051,0.699c-0.57-0.104-0.795-0.527-0.799-1.081
			C239.888,295.424,239.89,295.198,239.888,294.97z"/>
		<path fill="#747072" d="M232.585,287.684c-0.007,1.226-0.667,2.025-1.65,1.997c-0.826-0.022-1.741-1.038-1.744-1.935
			c-0.004-0.848,1.11-2.146,1.862-2.173C231.941,285.542,232.591,286.437,232.585,287.684z"/>
		<path fill="#898787" d="M236.93,292.291c0.008,0.866-0.654,1.962-1.169,1.854c-0.667-0.137-0.66-0.713-0.683-1.263
			c-0.037-0.879,0.38-1.554,1.174-1.69C236.809,291.096,236.939,291.765,236.93,292.291z"/>
		<path fill="#68960E" d="M267.54,275.251c-1.097,0.985-2.169,2-3.385,2.844c0.729-1.3,2.075-1.957,3.098-2.955
			C267.282,275.111,267.44,275.211,267.54,275.251z"/>
		<path fill="#322F2E" d="M251.313,297.493c2.757,0,5.471,0,8.187,0c-0.825,0.091-1.252,0.35-0.972,1.319
			c0.127,0.443-0.29,0.847-0.762,1.009c-1.527,0.525-3.103,0.776-4.704,0.563c-0.889-0.118-1.583-0.592-1.505-1.662
			C251.587,298.303,251.5,297.912,251.313,297.493z"/>
		<path fill="#413D3D" d="M258.184,294.482c0.985,0.905,0.842,1.541-0.341,2.073c-1.623,0.729-3.306,0.815-5.008,0.574
			c-1.732-0.243-2.053-0.804-1.742-2.645c0.634-0.5,1.328-0.096,1.984-0.095C254.779,294.391,256.487,294.234,258.184,294.482z"/>
		<path fill="#514C4C" d="M254.067,293.789c-0.415,0.001-0.829,0.007-1.244,0.003c-2.168-0.021-2.829-0.979-2.196-3.184
			c0.196-0.23,0.468-0.254,0.732-0.222c1.745,0.205,3.496,0.042,5.241,0.1c0.375,0.216,0.285,0.39-0.078,0.431
			c-0.505,0.058-1.018,0.021-1.281,0.019c0.219-0.048,0.686,0.028,1.149,0.006c0.458-0.021,0.825,0.129,1.008,0.575
			c0.196,0.479,0.048,0.899-0.288,1.25c-0.464,0.486-1.052,0.737-1.717,0.788C254.942,293.589,254.484,293.572,254.067,293.789z"/>
		<path fill="#615B5A" d="M253.394,286.926c-0.202,0.062-0.449-0.078-0.719,0.246c0.9,0,1.705,0.006,2.508-0.002
			c0.695-0.006,1.238,0.329,1.325,0.979c0.079,0.579-0.462,0.908-0.984,1.076c-0.784,0.252-1.582,0.461-2.374,0.688
			c-0.266,0-0.533,0.005-0.799,0c-2.206-0.026-2.853-0.972-2.183-3.192C251.27,286.345,252.345,286.425,253.394,286.926z"/>
		<path fill="#3E3A39" d="M254.067,293.789c0.619-0.667,1.604-0.37,2.302-0.891c0.441-0.328,0.985-0.566,0.815-1.207
			c-0.15-0.562-0.672-0.661-1.205-0.641c-0.375,0.015-0.752,0.003-1.414,0.003c0.903-0.417,1.664,0.026,2.257-0.438
			c0.482-0.365,1.099,0.091,1.583-0.259c0.671-0.39,1.376-0.176,2.395-0.189c-0.752,0.421-0.919,0.779-0.83,1.426
			c0.184,1.35-0.676,2.182-2.046,2.192C256.639,293.796,255.352,293.789,254.067,293.789z"/>
		<path fill="#857C7B" d="M253.394,286.926c-1.055-0.405-2.152-0.134-3.227-0.205c-0.277-0.05-0.527-0.124-0.46-0.494
			c1.56-0.003,3.097,0.319,4.664,0.266c1.552-0.056,3.107-0.013,4.662,0.064C257.153,286.706,255.288,287.048,253.394,286.926z"/>
		<path fill="#766D6D" d="M258.406,290.357c0.075,0.012,0.151,0.015,0.223,0.037c0.179,0.058,0.278,0.156-0.001,0.173
			c-0.601,0.036-1.203,0.034-1.805,0.049c-2.065-0.003-4.131-0.005-6.196-0.008c-0.116-0.085-0.33-0.17-0.33-0.254
			c0.002-0.27,0.25-0.215,0.419-0.205c1.016,0.063,2.029,0.173,3.046,0.195C255.309,290.379,256.859,290.355,258.406,290.357z"/>
		<path fill="#635D5C" d="M258.184,294.482c-2.363,0.002-4.727,0.003-7.09,0.003c-0.622-0.481-0.141-0.483,0.214-0.438
			c1.427,0.177,2.858,0.21,4.293,0.202c0.906-0.005,1.813-0.001,2.72,0.008c0.09,0,0.27-0.06,0.238,0.104
			C258.547,294.422,258.315,294.443,258.184,294.482z"/>
		<path fill="#6D6B6B" d="M285.6,281.807c0.042,0.865-0.158,1.293-0.809,1.229c-0.782-0.078-1.209-0.551-1.231-1.354
			c-0.016-0.553,0.204-1.111,0.759-1.064C285.103,280.68,285.486,281.33,285.6,281.807z"/>
		<path fill="#737171" d="M281.062,287.688c-0.133,0.751-0.327,1.482-1.25,1.517c-0.866,0.032-1.237-0.63-1.225-1.349
			c0.012-0.701,0.17-1.529,1.129-1.586C280.662,286.214,280.876,286.954,281.062,287.688z"/>
		<path fill="#787676" d="M273.958,292.397c-0.002-0.545,0.196-0.985,0.776-1.066c0.54-0.077,1.238,0.965,1.224,1.8
			c-0.009,0.56-0.356,0.929-0.866,1.017C274.603,294.23,273.942,293.152,273.958,292.397z"/>
		<path fill="#888586" d="M227.33,281.801c-0.081,0.668-0.459,1.173-1.255,1.237c-0.565,0.045-0.849-0.288-0.795-0.838
			c0.075-0.766,0.438-1.456,1.207-1.581C227.124,280.517,227.318,281.124,227.33,281.801z"/>
		<path fill="#908E8E" d="M232.113,287.478c0.043,0.922-0.182,1.472-1.018,1.513c-0.885,0.043-1.225-0.563-1.226-1.288
			c-0.001-0.711,0.315-1.378,1.156-1.428C231.979,286.218,232.04,286.974,232.113,287.478z"/>
	</g>
</g>
<g id="Calque_2">
	
		<linearGradient id="SVGID_1_" gradientUnits="userSpaceOnUse" x1="47.9526" y1="363.6509" x2="114.2725" y2="363.6509" gradientTransform="matrix(1 0 0 -1 174.375 629.4287)">
		<stop  offset="0" style="stop-color:#84B926"/>
		<stop  offset="0.1599" style="stop-color:#69A91D"/>
		<stop  offset="0.3847" style="stop-color:#4A9713"/>
		<stop  offset="0.6039" style="stop-color:#348A0C"/>
		<stop  offset="0.8127" style="stop-color:#278207"/>
		<stop  offset="1" style="stop-color:#227F06"/>
	</linearGradient>
	<path fill="url(#SVGID_1_)" d="M222.978,246.015c0,0-1.295,11.507-0.229,11.813c0.229,1.028,4.629,4.763,26.462,23.166
		c0,0,0.019-0.532,0.895,4.191c1.181,1.296,10.974,0.609,10.593,0c0.608-0.686,0.608-3.81,0.608-3.81s24.691-22.328,26.215-23.242
		c1.143-0.229,1.448-12.041,0.762-12.499c-11.888,2.858-19.355,4.724-32.044,5.982C252.926,252.188,230.369,248.074,222.978,246.015
		z"/>
</g>
</svg>
