<?xml version="1.0" encoding="utf-8"?>
<!-- Generator: Adobe Illustrator 16.0.3, SVG Export Plug-In . SVG Version: 6.00 Build 0)  -->
<!DOCTYPE svg PUBLIC "-//W3C//DTD SVG 1.1//EN" "http://www.w3.org/Graphics/SVG/1.1/DTD/svg11.dtd">
<svg version="1.1" id="Calque_1" xmlns="http://www.w3.org/2000/svg" xmlns:xlink="http://www.w3.org/1999/xlink" x="0px" y="0px"
	 width="90.5px" height="90.5px" viewBox="0 0 90.5 90.5" enable-background="new 0 0 90.5 90.5" xml:space="preserve">
<circle fill="#0154FA" cx="45.822" cy="45.599" r="43.584"/>
<g>
	<path fill-rule="evenodd" clip-rule="evenodd" fill="#FEFEFE" d="M82.528,63.065c-0.188-0.868-0.381-1.735-0.562-2.605
		c-2.479-11.934-9.147-20.715-19.885-26.436c-0.587-0.313-1.185-0.608-2.134-1.095c1.821-1.013,3.309-2.024,4.934-2.706
		c3.123-1.311,6.329-2.421,9.486-3.654c0.398-0.156,0.957-0.527,0.984-0.838c0.029-0.335-0.462-0.733-0.763-1.071
		c-0.125-0.14-0.341-0.2-0.521-0.287c-5.923-2.835-12.13-4.687-18.687-5.238c-2.661-0.224-5.337-0.265-8.052-0.392
		c-0.041-0.238-0.074-0.469-0.121-0.697c-0.338-1.663-0.875-1.969-2.406-1.241c-0.971,0.461-1.877,1.057-2.816,1.584
		c-0.97,0.543-1.888,1.269-2.929,1.583c-5.548,1.674-10.847,3.82-15.368,7.56c-0.554,0.458-1.021,0.432-1.572,0.025
		c-1.832-1.352-3.68-2.681-5.517-4.025c-0.708-0.519-1.367-1.117-2.116-1.568c-1.304-0.787-2.211-0.313-2.274,1.187
		c-0.042,0.994-0.082,2.024,0.123,2.986c0.669,3.156,1.458,6.287,2.184,9.431c0.132,0.572,0.43,1.265,0.235,1.726
		c-1.007,2.385-0.217,4.619,0.329,6.907c0.587,2.46,1.066,4.945,1.61,7.507c-0.626,0.041-1.069-0.041-1.396,0.117
		c-0.501,0.243-1.136,0.567-1.312,1.016c-0.146,0.371,0.152,1.131,0.5,1.432c0.58,0.502,1.357,0.773,2.051,1.143
		c0.376,0.2,0.885,0.305,1.106,0.614c2.237,3.135,5.148,5.429,8.603,7.071c0.376,0.077,0.752,0.221,1.128,0.223
		c3.663,0.02,7.325,0.016,10.988,0.019c0.56,0.061,1.119,0.121,1.679,0.182c0.304,0.098,0.604,0.206,0.912,0.291
		c2.419,0.672,4.9,1.173,7.247,2.04c7.041,2.603,12.583,7.312,17.52,12.828c0.42,0.471,1.053,0.751,1.587,1.12
		c0.2-0.651,0.572-1.301,0.574-1.952c0.015-6.887-1.175-13.511-4.451-19.66c-0.377-0.709-0.651-1.473-1.057-2.405
		c0.825,0.09,1.391,0.085,1.92,0.22c3.817,0.979,7.382,2.566,10.749,4.595c1.847,1.113,3.652,2.297,5.462,3.471
		c0.706,0.458,1.366,0.646,2.029-0.044"/>
	<path fill-rule="evenodd" clip-rule="evenodd" fill="#010203" d="M26.241,63.1c-3.455-1.643-6.365-3.937-8.603-7.071
		c-0.221-0.31-0.73-0.414-1.106-0.614c-0.694-0.369-1.472-0.641-2.051-1.143c-0.348-0.301-0.646-1.061-0.5-1.432
		c0.175-0.448,0.81-0.772,1.312-1.016c0.327-0.158,0.77-0.076,1.396-0.117c-0.544-2.562-1.023-5.047-1.61-7.507
		c-0.546-2.289-1.336-4.522-0.329-6.907c0.195-0.461-0.104-1.154-0.235-1.726c-0.726-3.144-1.514-6.275-2.184-9.431
		c-0.204-0.962-0.165-1.992-0.123-2.986c0.063-1.5,0.971-1.974,2.274-1.187c0.749,0.451,1.407,1.049,2.116,1.568
		c1.837,1.344,3.686,2.673,5.517,4.025c0.551,0.407,1.019,0.433,1.572-0.025c4.521-3.74,9.82-5.886,15.368-7.56
		c1.041-0.314,1.958-1.04,2.929-1.583c0.939-0.527,1.846-1.123,2.816-1.584c1.531-0.728,2.068-0.421,2.406,1.241
		c0.046,0.229,0.08,0.459,0.121,0.697c2.715,0.126,5.391,0.168,8.052,0.392c6.556,0.551,12.763,2.403,18.687,5.238
		c0.18,0.086,0.397,0.147,0.521,0.287c0.301,0.338,0.792,0.736,0.763,1.071c-0.027,0.311-0.585,0.683-0.984,0.838
		c-3.157,1.233-6.363,2.343-9.486,3.654c-1.625,0.682-3.113,1.693-4.934,2.706c0.95,0.486,1.547,0.782,2.134,1.095
		c10.738,5.72,17.406,14.502,19.885,26.436c0.181,0.87,0.374,1.737,0.562,2.605c0,0.32,0,0.64,0,0.96
		c-0.663,0.689-1.323,0.502-2.029,0.044c-1.81-1.174-3.615-2.357-5.462-3.471c-3.367-2.028-6.932-3.616-10.749-4.595
		c-0.529-0.135-1.095-0.13-1.92-0.22c0.406,0.933,0.68,1.696,1.057,2.405c3.275,6.149,4.465,12.773,4.451,19.66
		c-0.001,0.651-0.374,1.301-0.574,1.952c-0.534-0.369-1.167-0.649-1.587-1.12c-4.937-5.517-10.479-10.226-17.52-12.828
		c-2.346-0.867-4.828-1.368-7.247-2.04c-0.307-0.085-0.608-0.193-0.912-0.291c0.415-0.068,0.847-0.25,1.239-0.187
		c1.353,0.222,2.701,0.489,4.033,0.813c1.291,0.314,2.561,0.72,3.839,1.085c0.18,0.151,0.344,0.329,0.543,0.448
		c3.105,1.851,6.214,3.693,9.322,5.538c2.161,2.066,4.323,4.132,6.484,6.198c0.452,0.421,0.904,0.843,1.488,1.388
		c0.022-3.36,0.079-6.584-0.748-9.752c-0.085-0.295-0.203-0.584-0.25-0.885c-0.885-5.673-3.173-10.714-6.798-15.156
		c-1.092-1.134-2.184-2.268-3.276-3.402c-0.402-0.354-0.809-0.704-1.196-1.073c-0.018-0.017,0.131-0.208,0.202-0.319
		c0.14,0.137,0.275,0.28,0.422,0.409c1.576,1.381,3.28,2.645,4.689,4.178c1.026,1.116,1.976,2.02,3.538,2.336
		c2.041,0.413,4.029,1.089,6.04,1.652c2.146,1.135,4.292,2.27,6.439,3.404c1.268,0.81,2.537,1.619,3.805,2.428
		c0.5,0.325,0.999,0.65,1.733,1.128c-0.319-3.19-0.794-5.986-1.924-8.641c-0.631-1.452-1.262-2.905-1.894-4.358
		c-1.854-3.879-4.465-7.182-7.649-10.048c-2.087-1.598-4.173-3.195-6.26-4.792c-2.096-0.95-4.191-1.9-6.286-2.851
		c-1.331-0.324-2.661-0.647-3.99-0.971c-0.258-0.063-0.838,0.106-0.358-0.493c1.414,0.194,2.828,0.393,4.243,0.58
		c0.611,0.08,1.344,0.382,1.818,0.156c1.795-0.853,3.507-1.88,5.25-2.842c1.11-0.502,2.22-1.005,3.329-1.507
		c1.528-0.534,3.056-1.069,4.584-1.604c0.557-0.231,1.113-0.462,1.967-0.817c-5.324-2.703-10.616-4.312-16.13-5.248
		c-3.661-0.497-7.323-0.987-11.025-0.434c-0.083,0.41-0.235,0.818-0.238,1.229c-0.021,3.819-0.017,7.639-0.02,11.458
		c-0.224-0.325-0.448-0.65-0.672-0.975c0.064-3.618,0.139-7.236,0.181-10.854c0.007-0.623-0.128-1.248-0.198-1.872
		c-0.302-1.245-0.916-1.64-2.043-0.842c-2.285,1.62-4.408,3.468-6.598,5.222c-1.208,1.669-2.417,3.338-3.625,5.008
		c-0.257,0.184-0.515,0.367-0.772,0.551c-0.067-0.055-0.134-0.109-0.201-0.164c0.164-0.369,0.327-0.737,0.491-1.106
		c1.275-1.599,2.55-3.198,3.825-4.797c0.415-0.455,0.83-0.91,1.338-1.468c-0.322-0.023-0.446-0.064-0.55-0.036
		c-5.569,1.537-10.642,4.014-14.951,7.928c-2.205,1.864-3.918,4.115-5.372,6.652c0.335,0.245,0.587,0.429,0.838,0.613
		c0.238,0.319,0.475,0.639,0.712,0.958c0.067,0.323,0.134,0.646,0.218,1.056c-0.2-0.168-0.316-0.267-0.433-0.365
		c-0.871-1.767-1.799-1.929-3.182-0.603c-1.703,1.634-1.217,3.5-0.633,5.39c0.129,0.459,0.258,0.919,0.387,1.379
		c0.085-0.013,0.169-0.026,0.254-0.039c0.31-1.327,0.62-2.654,0.95-4.065c-0.213-0.147-0.484-0.334-0.763-0.526
		c0.983-0.709,1.411-0.65,1.824,0.328c0.227,0.537,0.307,1.136,0.453,1.707c-0.083,0.096-0.166,0.192-0.249,0.288
		c-0.184-0.378-0.367-0.756-0.55-1.135c-0.118-0.003-0.236-0.006-0.354-0.009c-0.215,0.983-0.514,1.958-0.629,2.953
		c-0.328,2.817-0.315,5.617,0.781,8.307c-0.613,0.061-1.226,0.142-1.84,0.178c-0.997,0.059-1.194,0.353-0.773,1.262
		c0.114,0.246,0.306,0.457,0.461,0.685c0.333,0.228,0.65,0.615,1.003,0.651c0.92,0.096,1.856,0.038,2.786,0.041
		c0.096,0.079,0.192,0.159,0.289,0.239c-0.856,0.229-1.027,0.757-0.488,1.407c0.654,0.789,1.399,1.503,2.105,2.249
		c2.05,2.146,4.486,3.542,7.483,3.845c0.248,0.082,0.495,0.163,0.743,0.245C28.245,62.938,27.243,63.019,26.241,63.1z
		 M14.371,32.575c0.251,0.938,0.502,1.877,0.754,2.816c0.237,0.337,0.473,0.675,0.71,1.013c0.49-0.36,1.086-0.636,1.451-1.096
		c1.233-1.555,2.322-3.226,3.584-4.754c1.317-1.595,1.312-2.1-0.425-3.282c-0.392-0.267-0.814-0.489-1.222-0.731
		c-1.466-1.013-2.933-2.026-4.399-3.039c-0.481-0.157-0.988-0.475-1.433-0.403c-0.224,0.036-0.524,0.81-0.463,1.198
		C13.361,27.063,13.879,29.817,14.371,32.575z"/>
	<path fill-rule="evenodd" clip-rule="evenodd" fill="#00003E" d="M49.148,65.234c-1.279-0.365-2.548-0.771-3.839-1.085
		c-1.332-0.324-2.68-0.592-4.033-0.813c-0.393-0.063-0.825,0.118-1.239,0.187c-0.56-0.061-1.119-0.121-1.679-0.182
		c0.267-0.053,0.77-0.122,0.767-0.155c-0.094-1.304,1.127-1.243,1.786-1.743c1.472-1.119,2.982-2.189,4.428-3.34
		c0.328-0.261,0.458-0.77,0.679-1.165c0.192-0.357,0.384-0.717,0.577-1.075c0.222-0.31,0.443-0.62,0.665-0.93
		c0.292-0.396,0.584-0.791,1.037-1.403c0.073,0.464,0.152,0.656,0.123,0.831c-0.301,1.793-0.459,3.632-0.986,5.358
		c-0.374,1.225-0.517,2.119,0.445,3.139C48.474,63.487,48.736,64.432,49.148,65.234z"/>
	<path fill-rule="evenodd" clip-rule="evenodd" fill="#050508" d="M46.018,56.938c-0.221,0.396-0.351,0.904-0.679,1.165
		c-1.446,1.15-2.956,2.221-4.428,3.34c-0.659,0.5-1.88,0.439-1.786,1.743c0.002,0.033-0.5,0.103-0.767,0.155
		c-3.663-0.003-7.325,0.001-10.988-0.019c-0.376-0.002-0.752-0.146-1.128-0.223c1.001-0.081,2.003-0.161,3.005-0.241
		c1.669-0.012,3.344,0.053,5.008-0.052c2.582-0.162,5.031-0.78,7.023-2.588c0.803-1.051,1.605-2.102,2.408-3.152
		c0.058,0.001,0.116,0.002,0.174,0.001c-0.086,0.394-0.172,0.786-0.258,1.179c-0.228,0.365-0.455,0.73-0.682,1.097
		c0.087,0.064,0.174,0.129,0.261,0.193C44.125,58.67,45.072,57.804,46.018,56.938z"/>
	<path fill-rule="evenodd" clip-rule="evenodd" fill="#003CB3" d="M49.148,65.234c-0.412-0.803-0.675-1.747-1.27-2.377
		c-0.962-1.02-0.819-1.914-0.445-3.139c0.527-1.727,0.685-3.565,0.986-5.358c0.029-0.175-0.05-0.367-0.123-0.831
		c-0.453,0.612-0.745,1.008-1.037,1.403c-0.847-1.847-1.706,0.169-2.542-0.044c-0.093-0.379-0.194-0.787-0.295-1.195
		c-0.562-2.145-2.302-2.201-3.813-2.141c0.855-1.983,1.803-3.889,2.499-5.882c0.718-2.057,0.706-4.221,0.3-6.368
		c0.017-0.075,0.028-0.153,0.055-0.225c0.01-0.026,0.085-0.057,0.087-0.054c0.278,0.38,0.552,0.762,0.977,1.354
		c0.047-0.471,0.066-0.656,0.085-0.841c0.158-0.301,0.452-0.605,0.447-0.904c-0.016-0.97-0.141-1.938-0.224-2.908
		c0.377,0.87,0.754,1.74,1.241,2.863c0.083-0.431,0.162-0.584,0.131-0.711c-0.958-3.934-4.036-6.436-7.551-6.533
		c-3.896-0.107-6.869,1.688-9.204,4.676c-0.453,0.58-0.813,1.233-1.216,1.852c0.083,0.048,0.167,0.095,0.25,0.143
		c0.252-0.298,0.504-0.595,0.756-0.893c-0.176,0.752-0.392,1.499-0.506,2.26c-0.041,0.27,0.164,0.577,0.256,0.867
		c-0.113,0.277-0.226,0.554-0.352,0.862c0.326,0.053,0.599,0.098,0.873,0.142c-0.572,1.189-1.144,2.378-1.716,3.567
		c-0.299,0.069-0.729,0.04-0.87,0.227c-0.266,0.354-0.364,0.833-0.532,1.26c-0.093,0.172-0.187,0.344-0.278,0.517
		c-1.184,2.248-2.553,2.388-4.098,0.424c-0.004-0.006-0.165,0.111-0.252,0.171c-0.217-0.996-0.433-1.992-0.65-2.988
		c-0.047,0.005-0.094,0.01-0.14,0.015c0.162,1.162,0.324,2.324,0.486,3.486c-0.369-0.454-0.763-0.892-1.099-1.369
		c-0.282-0.4-0.498-0.847-0.742-1.273c-0.157-0.625-0.314-1.249-0.472-1.873c0.007-0.575,0.015-1.149,0.022-1.725
		c0.005-1.203,0.011-2.406,0.016-3.61c0.117,0.099,0.233,0.197,0.433,0.365c-0.084-0.41-0.151-0.733-0.218-1.056
		c1.317-1.118,2.715-2.153,3.934-3.369c2.767-2.761,5.978-4.832,9.501-6.458c0.202-0.093,0.481-0.021,0.725-0.025
		c-0.164,0.369-0.327,0.737-0.491,1.106c0.067,0.055,0.134,0.109,0.201,0.164c0.257-0.184,0.515-0.367,0.772-0.551
		c0.157,0.157,0.314,0.314,0.472,0.471c0.353-0.064,0.731-0.068,1.051-0.208c0.404-0.176,0.76-0.463,1.137-0.702
		c-0.106,0.432-0.213,0.864-0.346,1.406c2.638,0.308,4.869,1.149,6.859,2.651c0.831,0.627,0.868-0.167,0.951-0.725
		c0.113-0.245,0.226-0.49,0.235-0.511c0.458,0.535,0.952,1.112,1.446,1.689c0.159-0.245,0.318-0.49,0.478-0.735
		c0.224,0.325,0.448,0.65,0.673,0.975c0.08-0.168,0.218-0.332,0.231-0.505c0.261-3.402,1.917-6.079,4.33-8.364
		c1.765,0.203,3.58,0.211,5.284,0.649c3.14,0.807,6.219,1.851,9.313,2.831c0.594,0.188,1.137,0.533,1.704,0.805
		c-1.109,0.502-2.219,1.005-3.329,1.507c-1.66-0.086-3.322-0.281-4.978-0.231c-2.343,0.07-4.471,0.884-6.333,2.337
		c-0.48,0.599,0.1,0.43,0.358,0.493c1.33,0.324,2.66,0.647,3.99,0.971c-0.075,0.156-0.15,0.313-0.225,0.469
		c-1.049-0.311-2.098-0.622-3.147-0.934c-0.067,0.152-0.134,0.304-0.202,0.456c0.626,0.441,1.209,0.967,1.885,1.309
		c4.256,2.149,7.735,5.229,10.917,8.738c4.495,4.955,7.086,10.9,9.247,17.097c-2.146-1.135-4.293-2.27-6.439-3.404
		c-3.152-5.847-8.146-8.537-14.688-8.576c-0.071,0.11-0.22,0.302-0.202,0.319c0.388,0.37,0.794,0.72,1.196,1.073
		c-0.095,0.087-0.19,0.174-0.285,0.261c-0.296-0.263-0.576-0.55-0.896-0.78c-0.201-0.145-0.464-0.204-0.699-0.301
		c-0.031,0.28-0.166,0.603-0.073,0.833c0.323,0.81,0.636,1.647,1.11,2.371c2.976,4.543,4.445,9.614,5.376,14.893
		c0.305,1.73,0.417,3.342-1.433,4.333c-3.108-1.845-6.217-3.688-9.322-5.538C49.492,65.563,49.329,65.386,49.148,65.234z"/>
	<path fill-rule="evenodd" clip-rule="evenodd" fill="#04338A" d="M76.047,60.199c-2.161-6.196-4.752-12.142-9.247-17.097
		c-3.182-3.508-6.661-6.589-10.917-8.738c-0.676-0.341-1.259-0.868-1.885-1.309c0.067-0.152,0.135-0.304,0.202-0.456
		c1.049,0.312,2.098,0.623,3.147,0.934c1.899,0.968,3.798,1.936,5.697,2.903c1.907,1.521,3.814,3.042,5.722,4.562
		c3.469,3.235,6.252,6.966,8.175,11.318c0.84,2.535,1.681,5.07,2.521,7.605c0.13,0.901,0.259,1.803,0.389,2.704
		C78.583,61.818,77.315,61.009,76.047,60.199z"/>
	<path fill-rule="evenodd" clip-rule="evenodd" fill="#033591" d="M59.014,71.221c1.85-0.991,1.738-2.603,1.433-4.333
		c-0.931-5.278-2.4-10.35-5.376-14.893c-0.474-0.724-0.787-1.561-1.11-2.371c-0.092-0.231,0.042-0.553,0.073-0.833
		c0.235,0.097,0.498,0.156,0.699,0.301c0.32,0.23,0.6,0.517,0.896,0.78c1.043,1.281,2.086,2.562,3.129,3.842
		c1.286,2.367,2.686,4.681,3.83,7.114c1.5,3.189,1.949,6.677,2.459,10.13c0.15,2.153,0.3,4.307,0.451,6.46
		C63.336,75.353,61.175,73.287,59.014,71.221z"/>
	<path fill-rule="evenodd" clip-rule="evenodd" fill="#053488" d="M67.863,27.988c-0.566-0.272-1.11-0.618-1.704-0.805
		c-3.094-0.98-6.173-2.024-9.313-2.831c-1.704-0.438-3.519-0.447-5.284-0.649c0.824-0.765,1.647-1.529,2.748-2.55
		c-2.513,0-4.72,0-7.051,0c0-0.573,0-0.92,0-1.267c3.703-0.554,7.364-0.063,11.026,0.434c-1.153,0.222-2.307,0.444-3.46,0.666
		c0.004,0.115,0.008,0.231,0.012,0.347c6.091,0.935,11.964,2.607,17.611,5.052C70.919,26.919,69.392,27.454,67.863,27.988z"/>
	<path fill-rule="evenodd" clip-rule="evenodd" fill="#043288" d="M33.563,27.54c-0.244,0.004-0.523-0.068-0.725,0.025
		c-3.523,1.625-6.735,3.696-9.501,6.458c-1.218,1.216-2.617,2.251-3.934,3.369c-0.237-0.32-0.475-0.639-0.712-0.958
		c0.861-1.133,1.723-2.266,2.584-3.398c0.642-0.652,1.28-1.309,1.927-1.956c4.007-4.005,8.9-6.505,14.186-8.336
		C36.113,24.342,34.838,25.941,33.563,27.54z"/>
	<path fill-rule="evenodd" clip-rule="evenodd" fill="#F8C173" d="M41.276,60.219c-1.992,1.808-4.44,2.426-7.022,2.588
		c-1.664,0.104-3.338,0.04-5.008,0.052c-0.248-0.082-0.495-0.163-0.743-0.245c0.251-0.034,0.503-0.068,1.021-0.139
		c-0.7-0.126-1.121-0.204-1.543-0.277c-2.707-0.467-4.854-1.977-6.887-3.697c-0.001-0.556-0.001-1.112-0.002-1.668
		c0.456,0.336,0.934,0.646,1.363,1.014c3.94,3.37,8.497,4.26,13.402,2.992c2.677-0.692,5.251-1.895,6.242-4.855
		c0.226-0.674,0.264-1.615-0.041-2.215c-0.45-0.883-1.445-0.51-2.277-0.429c-0.965,0.096-1.942,0.07-2.914,0.098
		c1.384-0.461,2.767-0.922,4.151-1.382c2.285,0.803,3.097,1.81,2.55,3.718c-0.359,1.253-1.19,2.37-1.811,3.549
		C41.598,59.621,41.437,59.92,41.276,60.219z"/>
	<path fill-rule="evenodd" clip-rule="evenodd" fill="#000052" d="M54.919,48.219c6.542,0.039,11.537,2.729,14.688,8.576
		c-2.011-0.563-3.999-1.239-6.04-1.652c-1.562-0.316-2.512-1.22-3.538-2.336c-1.409-1.534-3.113-2.797-4.689-4.178
		C55.194,48.499,55.06,48.356,54.919,48.219z"/>
	<path fill-rule="evenodd" clip-rule="evenodd" fill="#033595" d="M14.824,23.502c1.466,1.013,2.933,2.026,4.398,3.039
		c-0.078,0.67,0.032,1.443-0.268,1.991c-0.985,1.799-2.118,3.517-3.194,5.266c-0.155-0.33-0.311-0.659-0.466-0.989
		c-0.417-2.021-0.833-4.042-1.25-6.063C13.795,25.542,13.72,24.38,14.824,23.502z"/>
	<path fill-rule="evenodd" clip-rule="evenodd" fill="#689DE6" d="M72.448,26.384c-5.646-2.445-11.52-4.118-17.611-5.052
		c-0.004-0.116-0.008-0.231-0.012-0.347c1.153-0.222,2.307-0.444,3.46-0.666c5.514,0.936,10.806,2.544,16.129,5.248
		C73.561,25.922,73.004,26.153,72.448,26.384z"/>
	<path fill-rule="evenodd" clip-rule="evenodd" fill="#000043" d="M47.259,19.886c0,0.347,0,0.694,0,1.267c2.331,0,4.539,0,7.051,0
		c-1.1,1.021-1.924,1.785-2.748,2.55c-2.413,2.286-4.069,4.962-4.33,8.364c-0.013,0.173-0.151,0.337-0.231,0.505
		c0.003-3.819-0.002-7.638,0.02-11.458C47.024,20.704,47.176,20.295,47.259,19.886z"/>
	<path fill-rule="evenodd" clip-rule="evenodd" fill="#F7F8F9" d="M17.477,52.057c-1.097-2.69-1.109-5.49-0.781-8.307
		c0.116-0.995,0.414-1.969,0.629-2.953c0.118,0.003,0.236,0.006,0.354,0.009c0.184,0.378,0.367,0.757,0.55,1.135
		c0.443,1.644,0.908,3.282,1.322,4.934c0.303,1.206,0.575,2.422,0.785,3.647c0.085,0.499-0.033,1.031-0.059,1.567
		c-0.1,0.038-0.208,0.111-0.319,0.115c-0.558,0.018-1.116,0.018-1.674,0.023C18.015,52.17,17.746,52.113,17.477,52.057z"/>
	<path fill-rule="evenodd" clip-rule="evenodd" fill="#73A7EC" d="M37.388,22.743c-5.285,1.832-10.178,4.332-14.186,8.336
		c-0.647,0.647-1.285,1.304-1.927,1.956c0.257-0.51,0.516-1.019,0.773-1.529c0.393-0.779,0.784-1.559,1.177-2.338
		c4.31-3.914,9.382-6.391,14.951-7.928c0.104-0.029,0.228,0.012,0.55,0.036C38.218,21.833,37.803,22.288,37.388,22.743z"/>
	<path fill-rule="evenodd" clip-rule="evenodd" fill="#00014E" d="M15.759,33.798c1.077-1.749,2.21-3.466,3.195-5.266
		c0.3-0.548,0.19-1.321,0.268-1.991c0.409,0.243,0.831,0.465,1.223,0.731c1.737,1.182,1.743,1.687,0.425,3.282
		c-1.263,1.529-2.351,3.2-3.584,4.754c-0.365,0.459-0.961,0.735-1.451,1.096c-0.237-0.338-0.473-0.675-0.71-1.013
		C15.336,34.86,15.548,34.329,15.759,33.798z"/>
	<path fill-rule="evenodd" clip-rule="evenodd" fill="#6A9EE7" d="M65.047,70.958c-0.51-3.453-0.96-6.94-2.459-10.13
		c-1.144-2.434-2.543-4.747-3.83-7.114c0.144-0.233,0.288-0.467,0.432-0.7c3.625,4.442,5.914,9.483,6.798,15.156
		c0.047,0.301,0.165,0.59,0.25,0.885C65.841,69.688,65.444,70.323,65.047,70.958z"/>
	<path fill-rule="evenodd" clip-rule="evenodd" fill="#000050" d="M53.223,31.601c1.862-1.454,3.99-2.267,6.333-2.337
		c1.656-0.05,3.318,0.146,4.978,0.231c-1.743,0.962-3.455,1.989-5.25,2.842c-0.475,0.226-1.207-0.076-1.818-0.156
		C56.051,31.994,54.637,31.795,53.223,31.601z"/>
	<path fill-rule="evenodd" clip-rule="evenodd" fill="#77ABED" d="M76.941,52.317c-1.923-4.352-4.706-8.083-8.175-11.318
		c0.451-0.097,0.901-0.194,1.352-0.291c3.185,2.866,5.795,6.169,7.649,10.048C77.492,51.277,77.216,51.797,76.941,52.317z"/>
	<path fill-rule="evenodd" clip-rule="evenodd" fill="#080B0E" d="M18.284,52.228c0.558-0.006,1.116-0.006,1.674-0.023
		c0.11-0.004,0.219-0.077,0.319-0.115c0.026-0.536,0.145-1.069,0.059-1.567c-0.209-1.225-0.482-2.441-0.785-3.647
		c-0.414-1.651-0.879-3.29-1.322-4.934c0.083-0.096,0.166-0.192,0.249-0.287c0.224,0.587,0.448,1.175,0.672,1.763
		c0.157,0.625,0.314,1.249,0.472,1.873c0.369,1.454,0.757,2.896,1.894,3.907c0.106-0.058,0.212-0.115,0.318-0.172
		c-0.124-0.364-0.247-0.729-0.371-1.093c-0.162-1.162-0.324-2.324-0.486-3.486c0.046-0.005,0.093-0.01,0.14-0.015
		c0.217,0.996,0.433,1.992,0.65,2.989c0.189,1.015,0.548,1.95,1.667,2.202c1.2,0.269,2.024-0.412,2.702-1.313
		c0.234-0.311,0.482-0.61,0.724-0.914c-0.562,2.261-1.91,3.042-4.63,2.534c0.106,0.371,0.189,0.663,0.272,0.954
		c0.158,0.207,0.315,0.413,0.473,0.62c-0.15,0.269-0.3,0.538-0.451,0.807c-0.005,0.055-0.007,0.109-0.006,0.165
		c-1.12,0.091-2.24,0.182-3.36,0.272l-0.02,0.036c-0.389-0.105-0.778-0.211-1.167-0.316C18.076,52.386,18.18,52.307,18.284,52.228z"
		/>
	<path fill-rule="evenodd" clip-rule="evenodd" fill="#6CA1E8" d="M37.671,23.251c2.19-1.754,4.313-3.603,6.598-5.222
		c1.127-0.798,1.741-0.403,2.043,0.842c-0.013,0.978,0.009,1.957-0.057,2.931c-0.022,0.318-0.274,0.62-0.422,0.93
		c-0.083-0.626-0.21-1.25-0.243-1.878c-0.105-2.057-0.632-2.34-2.374-1.239c-0.202,0.127-0.417,0.246-0.586,0.41
		c-1.999,1.934-3.991,3.875-5.984,5.814c0.021-0.2-0.005-0.421,0.072-0.595C37.018,24.571,37.351,23.914,37.671,23.251z"/>
	<path fill-rule="evenodd" clip-rule="evenodd" fill="#1F1E1D" d="M22.519,52.473c-0.001-0.056,0.001-0.11,0.006-0.165
		c1.177,0.354,1.248,0.657,0.431,1.826c-1.184,0.326-2.368,0.652-3.552,0.979c-0.097-0.08-0.193-0.16-0.289-0.239
		c0.312-0.127,0.624-0.255,0.936-0.382c-0.006,0.063-0.012,0.127-0.019,0.19c-1.568-0.167-3.137-0.334-4.706-0.501
		c-0.156-0.228-0.348-0.438-0.461-0.685c-0.421-0.909-0.224-1.203,0.773-1.262c0.615-0.036,1.227-0.117,1.84-0.178
		c0.269,0.057,0.538,0.113,0.807,0.171c-0.104,0.079-0.208,0.158-0.313,0.237c-0.64,0.045-1.28,0.091-1.92,0.136
		c-0.002,0.126-0.004,0.252-0.006,0.378c0.912,0.578,1.916,0.639,2.964,0.309c0.087-0.028,0.088-0.331,0.129-0.506l0.02-0.036
		c0.814,0.001,1.629-0.028,2.44,0.019c0.365,0.021,0.721,0.195,1.081,0.301c-0.123,0.281-0.245,0.563-0.424,0.973
		C23.156,53.522,23.306,53.05,22.519,52.473z"/>
	<path fill-rule="evenodd" clip-rule="evenodd" fill="#4179D3" d="M65.047,70.958c0.397-0.635,0.794-1.27,1.191-1.903
		c0.827,3.168,0.771,6.392,0.748,9.752c-0.584-0.545-1.036-0.967-1.488-1.388C65.347,75.265,65.197,73.111,65.047,70.958z"/>
	<path fill-rule="evenodd" clip-rule="evenodd" fill="#5D93E0" d="M76.941,52.317c0.275-0.521,0.551-1.041,0.826-1.561
		c0.631,1.453,1.262,2.906,1.894,4.358c0.049,1.009,0.148,2.018,0.128,3.024c-0.012,0.597-0.211,1.189-0.327,1.784
		C78.622,57.388,77.781,54.853,76.941,52.317z"/>
	<path fill-rule="evenodd" clip-rule="evenodd" fill="#70A3EA" d="M14.824,23.502c-1.104,0.878-1.028,2.04-0.78,3.243
		c0.417,2.021,0.833,4.042,1.25,6.063c-0.308-0.078-0.615-0.156-0.923-0.233c-0.491-2.758-1.009-5.512-1.443-8.278
		c-0.061-0.389,0.24-1.162,0.463-1.198C13.835,23.027,14.343,23.345,14.824,23.502z"/>
	<path fill-rule="evenodd" clip-rule="evenodd" fill="#083891" d="M19.15,43.417c-0.224-0.587-0.448-1.175-0.672-1.763
		c-0.146-0.571-0.227-1.17-0.453-1.708c-0.413-0.979-0.841-1.037-1.824-0.328c0.278,0.191,0.549,0.378,0.763,0.526
		c-0.33,1.411-0.64,2.738-0.95,4.065c-0.085,0.013-0.169,0.026-0.254,0.039c-0.129-0.46-0.258-0.919-0.387-1.379
		c0.113-0.12,0.324-0.242,0.322-0.36c-0.017-1.015-0.282-2.082-0.043-3.024c0.157-0.62,1.025-1.06,1.575-1.58
		c0.415,0.467,0.954,0.874,1.214,1.415c0.355,0.737,0.498,1.577,0.731,2.372C19.165,42.267,19.157,42.842,19.15,43.417z"/>
	<path fill-rule="evenodd" clip-rule="evenodd" fill="#4F86D9" d="M19.172,41.692c-0.233-0.795-0.376-1.635-0.731-2.372
		c-0.261-0.541-0.8-0.948-1.214-1.415c-0.55,0.521-1.417,0.96-1.575,1.58c-0.239,0.942,0.026,2.009,0.043,3.024
		c0.002,0.118-0.209,0.24-0.322,0.36c-0.583-1.89-1.07-3.756,0.633-5.39c1.383-1.327,2.312-1.165,3.182,0.603
		C19.183,39.286,19.177,40.489,19.172,41.692z"/>
	<path fill-rule="evenodd" clip-rule="evenodd" fill="#3F76D0" d="M79.462,59.923c0.115-0.595,0.315-1.188,0.327-1.784
		c0.02-1.007-0.079-2.016-0.128-3.024c1.129,2.654,1.605,5.45,1.924,8.641c-0.734-0.478-1.233-0.803-1.733-1.128
		C79.722,61.726,79.592,60.824,79.462,59.923z"/>
	<path fill-rule="evenodd" clip-rule="evenodd" fill="#6096E2" d="M70.118,40.708c-0.451,0.097-0.901,0.194-1.352,0.291
		c-1.908-1.521-3.815-3.042-5.722-4.562c0.271-0.174,0.542-0.348,0.813-0.521C65.944,37.513,68.031,39.11,70.118,40.708z"/>
	<path fill-rule="evenodd" clip-rule="evenodd" fill="#5D93E1" d="M23.225,29.167c-0.393,0.779-0.784,1.559-1.177,2.338
		c-0.257,0.51-0.516,1.019-0.773,1.529c-0.862,1.132-1.723,2.265-2.584,3.398c-0.251-0.184-0.502-0.368-0.838-0.613
		C19.306,33.282,21.02,31.032,23.225,29.167z"/>
	<path fill-rule="evenodd" clip-rule="evenodd" fill="#3E75CF" d="M45.833,22.731c0.147-0.31,0.399-0.612,0.421-0.93
		c0.066-0.974,0.044-1.953,0.057-2.931c0.07,0.624,0.206,1.249,0.198,1.872c-0.042,3.618-0.117,7.236-0.181,10.854
		c-0.159,0.245-0.318,0.49-0.478,0.735c-0.093-0.622-0.275-1.246-0.263-1.867C45.638,27.887,45.746,25.31,45.833,22.731z"/>
	<path fill-rule="evenodd" clip-rule="evenodd" fill="#A37C3E" d="M19.403,55.112c1.184-0.326,2.368-0.652,3.552-0.979
		c-0.622,0.899-1.243,1.799-1.865,2.698c0.001,0.556,0.001,1.112,0.002,1.668c-0.024,0.09-0.049,0.18-0.073,0.269
		c-0.706-0.746-1.451-1.46-2.105-2.249C18.376,55.869,18.547,55.341,19.403,55.112z"/>
	<path fill-rule="evenodd" clip-rule="evenodd" fill="#3A72CE" d="M63.857,35.916c-0.271,0.173-0.542,0.347-0.813,0.521
		c-1.899-0.968-3.799-1.936-5.698-2.903c0.075-0.156,0.15-0.313,0.225-0.469C59.667,34.015,61.762,34.965,63.857,35.916z"/>
	<path fill-rule="evenodd" clip-rule="evenodd" fill="#3870CD" d="M37.671,23.251c-0.32,0.663-0.653,1.319-0.953,1.991
		c-0.078,0.174-0.051,0.396-0.072,0.595c-0.709,0.964-1.419,1.929-2.128,2.893c-0.158-0.157-0.315-0.314-0.472-0.471
		C35.254,26.59,36.462,24.921,37.671,23.251z"/>
	<path fill-rule="evenodd" clip-rule="evenodd" fill="#FED181" d="M21.02,58.769c0.024-0.089,0.049-0.179,0.073-0.269
		c2.034,1.721,4.18,3.23,6.887,3.697c0.422,0.073,0.844,0.151,1.543,0.277c-0.518,0.07-0.77,0.104-1.021,0.139
		C25.506,62.311,23.07,60.915,21.02,58.769z"/>
	<path fill-rule="evenodd" clip-rule="evenodd" fill="#3D75D1" d="M59.19,53.014c-0.144,0.233-0.288,0.467-0.432,0.7
		c-1.043-1.28-2.085-2.561-3.129-3.842c0.095-0.087,0.19-0.174,0.285-0.261C57.006,50.746,58.098,51.879,59.19,53.014z"/>
	<path fill-rule="evenodd" clip-rule="evenodd" fill="#4076CF" d="M14.371,32.575c0.308,0.078,0.615,0.156,0.923,0.233
		c0.155,0.33,0.311,0.66,0.466,0.989c-0.212,0.531-0.424,1.063-0.635,1.594C14.873,34.453,14.622,33.514,14.371,32.575z"/>
	<path fill-rule="evenodd" clip-rule="evenodd" fill="#D0D0D0" d="M15.325,54.181c1.569,0.167,3.138,0.334,4.706,0.501
		c0.006-0.063,0.013-0.127,0.019-0.19c-0.312,0.127-0.624,0.255-0.936,0.382c-0.93-0.003-1.866,0.055-2.786-0.041
		C15.976,54.796,15.659,54.408,15.325,54.181z"/>
	<path fill-rule="evenodd" clip-rule="evenodd" fill="#033490" d="M44.422,53.693c0.101,0.408,0.202,0.816,0.295,1.195
		c0.836,0.213,1.695-1.803,2.542,0.044c-0.221,0.31-0.443,0.62-0.665,0.93c-0.999,0.795-1.996,1.59-2.994,2.384
		c0.086-0.393,0.172-0.785,0.258-1.179C44.047,55.943,44.234,54.818,44.422,53.693z"/>
	<path fill-rule="evenodd" clip-rule="evenodd" fill="#4477C9" d="M43.601,58.246c0.998-0.794,1.995-1.589,2.994-2.384
		c-0.192,0.358-0.384,0.718-0.576,1.075c-0.946,0.866-1.893,1.732-2.839,2.599c-0.087-0.064-0.174-0.129-0.261-0.193
		C43.146,58.977,43.373,58.611,43.601,58.246z"/>
	<path fill-rule="evenodd" clip-rule="evenodd" fill="#080B0E" d="M44.422,53.693c-0.188,1.125-0.375,2.25-0.563,3.374
		c-0.058,0.001-0.116,0-0.174-0.001c0.144-0.617,0.355-1.228,0.42-1.853c0.222-2.146-0.907-3.279-3.087-3.159
		c-1.384,0.46-2.767,0.921-4.151,1.382c-0.212,0.02-0.425,0.039-0.638,0.059c-0.646-0.086-1.292-0.173-1.939-0.26
		c-0.014-0.675-0.027-1.351-0.041-2.025c0.172-0.121,0.344-0.243,0.516-0.366c-0.085,0.903,0.537,2.093,1.151,2.104
		c1.129,0.02,0.667-0.905,0.822-1.463c0.015-0.053,0.059-0.097,0.06-0.099c0.112,0.402,0.232,0.835,0.352,1.267
		c2.132-0.317,3.269-1.869,4.226-3.545c1.61-2.819,2.215-5.844,1.532-9.069c-0.279-2.126-1.49-3.515-3.518-4.055
		c-2.91-0.774-5.427,0.072-7.263,2.421c-1.194,1.528-2.131,3.265-3.114,4.949c-0.739,1.268-1.368,2.6-2.045,3.903
		c0.276-0.813,0.552-1.625,0.829-2.437c0.572-1.189,1.144-2.378,1.715-3.567c0.713-1.051,1.361-2.155,2.154-3.143
		c1.877-2.338,4.369-3.287,7.32-2.849c2.336,0.347,3.645,1.932,4.423,4.043c0.406,2.147,0.418,4.311-0.3,6.368
		c-0.696,1.993-1.644,3.898-2.499,5.882C42.12,51.492,43.861,51.549,44.422,53.693z"/>
	<path fill-rule="evenodd" clip-rule="evenodd" fill="#EFE7AF" d="M41.018,52.055c2.18-0.12,3.309,1.014,3.087,3.159
		c-0.064,0.625-0.276,1.235-0.42,1.853c-0.803,1.051-1.605,2.102-2.408,3.152c0.16-0.299,0.321-0.598,0.479-0.897
		c0.621-1.179,1.452-2.296,1.811-3.549C44.114,53.864,43.302,52.857,41.018,52.055z"/>
	<path fill-rule="evenodd" clip-rule="evenodd" fill="#033597" d="M34.518,28.73c0.709-0.964,1.419-1.928,2.128-2.893
		c1.993-1.939,3.985-3.88,5.984-5.814c0.169-0.164,0.385-0.282,0.586-0.41c1.742-1.102,2.268-0.818,2.374,1.239
		c0.032,0.629,0.159,1.252,0.243,1.878c-0.086,2.578-0.195,5.155-0.245,7.734c-0.012,0.621,0.17,1.245,0.263,1.867
		c-0.494-0.577-0.988-1.154-1.446-1.689c-0.01,0.021-0.123,0.266-0.235,0.511c-0.014-2.758-0.005-5.517-0.062-8.274
		c-0.009-0.466-0.297-0.926-0.456-1.388c-0.426,0.17-0.961,0.231-1.262,0.528c-1.924,1.905-3.795,3.862-5.685,5.802
		c-0.377,0.239-0.733,0.525-1.137,0.702C35.249,28.662,34.87,28.667,34.518,28.73z"/>
	<path fill-rule="evenodd" clip-rule="evenodd" fill="#033491" d="M43.409,39.303c-0.778-2.111-2.086-3.696-4.423-4.043
		c-2.951-0.438-5.443,0.511-7.32,2.849c-0.793,0.987-1.44,2.091-2.154,3.143c-0.273-0.044-0.546-0.089-0.872-0.142
		c0.126-0.308,0.239-0.585,0.352-0.862c0.474-0.886,0.947-1.771,1.421-2.657c2.871-4.105,8.242-5.766,12.273-2.575
		c1.115,1.306,1.833,2.78,1.926,4.521c-0.019,0.186-0.038,0.371-0.085,0.841c-0.425-0.592-0.699-0.974-0.977-1.354
		c-0.002-0.003-0.077,0.027-0.087,0.054C43.437,39.15,43.426,39.228,43.409,39.303z"/>
	<path fill-rule="evenodd" clip-rule="evenodd" fill="#050608" d="M36.706,27.821c1.889-1.94,3.761-3.897,5.685-5.802
		c0.3-0.297,0.835-0.358,1.262-0.528c0.159,0.462,0.447,0.922,0.456,1.388c0.056,2.757,0.048,5.516,0.062,8.274
		c-0.083,0.558-0.12,1.353-0.951,0.725c-1.99-1.502-4.221-2.343-6.859-2.651C36.493,28.686,36.6,28.253,36.706,27.821z
		 M37.617,27.519c-0.229,0.347-0.458,0.693-0.643,0.973c2.247,0.949,4.383,1.851,6.741,2.846c0.303-2.125-0.015-4.282-0.092-6.434
		c0.001-0.553,0.001-1.107,0.003-1.66c0.004-0.849-0.458-1.21-1.083-0.63C40.847,24.19,39.252,25.876,37.617,27.519z"/>
	<path fill-rule="evenodd" clip-rule="evenodd" fill="#010714" d="M29.242,37.122c-0.252,0.298-0.504,0.595-0.756,0.893
		c-0.083-0.048-0.167-0.095-0.25-0.143C28.639,37.252,29,36.6,29.453,36.02c2.335-2.988,5.308-4.784,9.204-4.676
		c3.516,0.098,6.593,2.599,7.551,6.533c0.031,0.127-0.047,0.281-0.131,0.711c-0.487-1.123-0.864-1.993-1.241-2.863
		c-1.73-3.075-5.671-4.727-8.576-3.594c-0.573,0.16-1.146,0.319-1.719,0.479C32.159,33.391,30.621,35.163,29.242,37.122z"/>
	<path fill-rule="evenodd" clip-rule="evenodd" fill="#2760C7" d="M36.26,32.131c2.905-1.133,6.846,0.519,8.576,3.594
		c0.083,0.969,0.208,1.938,0.224,2.908c0.005,0.299-0.29,0.603-0.447,0.904c-0.093-1.741-0.812-3.215-1.926-4.521
		c-0.327-0.415-0.599-0.893-0.991-1.233C40.138,32.433,38.165,32.38,36.26,32.131z"/>
	<path fill-rule="evenodd" clip-rule="evenodd" fill="#2A62C7" d="M29.242,37.122c1.378-1.959,2.917-3.73,5.298-4.511
		c-0.958,0.825-2.017,1.561-2.838,2.505c-0.594,0.683-0.871,1.641-1.29,2.476c-0.474,0.886-0.947,1.771-1.421,2.657
		c-0.093-0.29-0.297-0.597-0.256-0.867C28.851,38.62,29.066,37.874,29.242,37.122z"/>
	<path fill-rule="evenodd" clip-rule="evenodd" fill="#72A7EC" d="M26.86,47.394c-0.242,0.304-0.49,0.604-0.724,0.914
		c-0.678,0.901-1.502,1.583-2.702,1.313c-1.119-0.251-1.479-1.187-1.667-2.202c0.087-0.06,0.248-0.177,0.252-0.171
		c1.544,1.963,2.914,1.824,4.098-0.424c0.091-0.173,0.185-0.345,0.277-0.518c0.148,0.336,0.296,0.671,0.444,1.007L26.86,47.394z"/>
	<path fill-rule="evenodd" clip-rule="evenodd" fill="#6093DD" d="M21.463,47.932c0.124,0.364,0.247,0.729,0.371,1.093
		c-0.106,0.057-0.212,0.114-0.318,0.172c-1.137-1.01-1.524-2.453-1.894-3.907c0.245,0.426,0.46,0.874,0.742,1.273
		C20.7,47.04,21.094,47.478,21.463,47.932z"/>
	<path fill-rule="evenodd" clip-rule="evenodd" fill="#346BCB" d="M26.838,47.313c-0.148-0.336-0.296-0.671-0.444-1.007
		c0.168-0.427,0.267-0.906,0.533-1.26c0.141-0.188,0.57-0.158,0.87-0.227c-0.276,0.813-0.553,1.625-0.827,2.435
		C26.93,47.276,26.885,47.296,26.838,47.313z"/>
	<path fill-rule="evenodd" clip-rule="evenodd" fill="#FED181" d="M36.229,53.495c0.212-0.02,0.425-0.039,0.638-0.059
		c0.972-0.027,1.949-0.002,2.914-0.098c0.832-0.081,1.827-0.454,2.277,0.429c0.305,0.6,0.267,1.541,0.041,2.215
		c-0.991,2.961-3.565,4.163-6.242,4.855c-4.905,1.268-9.462,0.378-13.402-2.992c-0.429-0.367-0.908-0.678-1.363-1.014
		c0.622-0.899,1.243-1.799,1.865-2.698c0.817-1.169,0.746-1.472-0.431-1.826c0.15-0.27,0.3-0.538,0.451-0.807
		c1.165,0.063,2.357-0.005,3.487,0.227c1.11,0.228,2.14,0.825,3.238,1.144C31.83,53.489,33.979,54.063,36.229,53.495z
		 M34.951,59.156c2.38-0.309,3.902-1.92,5.239-3.848c0.165,0.355,0.261,0.564,0.358,0.772c0.121-0.027,0.242-0.055,0.364-0.082
		c-0.104-0.537-0.042-1.361-0.353-1.541c-0.413-0.239-1.116,0.024-1.694,0.072c0.007,0.092,0.014,0.185,0.021,0.277
		c0.226,0.098,0.452,0.194,0.713,0.308C38.545,57.112,37.001,58.4,34.951,59.156z"/>
	<path fill-rule="evenodd" clip-rule="evenodd" fill="#9FA1BA" d="M26.838,47.313c0.047-0.017,0.092-0.038,0.132-0.06
		c0.676-1.301,1.304-2.633,2.043-3.9c0.982-1.684,1.919-3.42,3.114-4.949c1.835-2.349,4.353-3.196,7.263-2.421
		c2.028,0.54,3.238,1.928,3.518,4.055c-0.081-0.084-0.178-0.157-0.24-0.253c-2.203-3.461-6.662-3.976-9.589-1.083
		c-2.208,2.181-3.497,4.933-4.536,7.782c-0.662,1.814-1.253,3.587-3.108,4.545c-0.977-0.05-1.955-0.1-2.932-0.149
		c-0.083-0.291-0.166-0.583-0.272-0.954c2.72,0.508,4.068-0.273,4.63-2.534L26.838,47.313z"/>
	<path fill-rule="evenodd" clip-rule="evenodd" fill="#464839" d="M22.502,50.881c0.978,0.049,1.955,0.099,2.932,0.149
		c0.455,0.138,0.921,0.248,1.363,0.418c2.417,0.933,4.847,1.808,7.492,1.788c0.646,0.087,1.293,0.174,1.939,0.26
		c-2.25,0.568-4.399-0.006-6.528-0.624c-1.099-0.319-2.128-0.917-3.238-1.144c-1.13-0.231-2.322-0.164-3.487-0.227
		C22.817,51.294,22.66,51.087,22.502,50.881z"/>
	<path fill-rule="evenodd" clip-rule="evenodd" fill="#EFEFEF" d="M19.139,52.781c-0.041,0.175-0.042,0.478-0.129,0.506
		c-1.049,0.33-2.053,0.27-2.964-0.309c0.002-0.126,0.004-0.252,0.006-0.378c0.64-0.045,1.28-0.091,1.92-0.136
		C18.361,52.57,18.75,52.676,19.139,52.781z"/>
	<path fill-rule="evenodd" clip-rule="evenodd" fill="#616160" d="M22.519,52.473c0.788,0.577,0.637,1.05-0.262,1.564
		c0.179-0.41,0.301-0.691,0.424-0.973c-0.36-0.105-0.716-0.28-1.081-0.301c-0.811-0.047-1.626-0.018-2.44-0.019
		C20.279,52.654,21.398,52.563,22.519,52.473z"/>
	<path fill-rule="evenodd" clip-rule="evenodd" fill="#FEFEFE" d="M34.29,53.235c-2.645,0.021-5.075-0.854-7.492-1.788
		c-0.442-0.17-0.908-0.28-1.363-0.418c1.855-0.958,2.447-2.731,3.108-4.545c1.039-2.85,2.328-5.601,4.536-7.782
		c2.928-2.893,7.386-2.378,9.589,1.083c0.062,0.096,0.159,0.169,0.24,0.253c0.683,3.225,0.079,6.25-1.532,9.069
		c-0.957,1.676-2.094,3.228-4.225,3.546c-0.061-1.954-0.122-3.909-0.184-5.865c-0.091-0.585-0.097-1.201-0.3-1.744
		c-0.175-0.471-0.574-0.859-0.874-1.285c-0.344,0.356-0.798,0.656-1.014,1.077c-0.938,1.836-0.982,3.802-0.683,5.797
		c0.051,0.192,0.102,0.383,0.152,0.575C34.263,51.884,34.276,52.561,34.29,53.235z"/>
	<path fill-rule="evenodd" clip-rule="evenodd" fill="#0C7328" d="M36.967,46.789c0.062,1.955,0.123,3.91,0.184,5.864
		c-0.121-0.433-0.241-0.865-0.353-1.268c-0.001,0.002-0.045,0.046-0.06,0.099c-0.155,0.558,0.307,1.483-0.822,1.463
		c-0.614-0.011-1.236-1.201-1.151-2.104c0.162-1.526,0.324-3.052,0.486-4.578c0.305,0.122,0.787,0.168,0.878,0.381
		c0.205,0.479,0.215,1.042,0.305,1.571c-0.205-0.399-0.409-0.798-0.634-1.238c-1.181,1.219-1.101,3.617,0.349,5.231
		c0.122-1.389,0.219-2.492,0.316-3.596c0.102-0.375,0.204-0.75,0.306-1.125C36.836,47.257,36.901,47.023,36.967,46.789z"/>
	<path fill-rule="evenodd" clip-rule="evenodd" fill="#229D4C" d="M35.251,46.266c-0.162,1.526-0.324,3.052-0.486,4.578
		c-0.172,0.123-0.344,0.245-0.516,0.366c-0.051-0.193-0.102-0.385-0.152-0.577c0.062-0.819,0.046-1.654,0.206-2.453
		c0.208-1.031,0.453-2.08,0.879-3.034c0.303-0.677,0.842-0.729,1.042,0.186C35.899,45.643,35.575,45.955,35.251,46.266z"/>
	<path fill-rule="evenodd" clip-rule="evenodd" fill="#578DDD" d="M30.413,37.591c0.418-0.835,0.696-1.793,1.29-2.476
		c0.821-0.944,1.88-1.68,2.838-2.505c0.573-0.16,1.146-0.319,1.719-0.479c1.905,0.249,3.878,0.301,5.436,1.652
		c0.392,0.34,0.664,0.818,0.991,1.233C38.655,31.825,33.284,33.485,30.413,37.591z"/>
	<path fill-rule="evenodd" clip-rule="evenodd" fill="#FBCC7C" d="M43.623,24.904c0.077,2.151,0.395,4.309,0.092,6.434
		c-2.357-0.995-4.494-1.897-6.741-2.846c0.185-0.28,0.414-0.626,0.643-0.974c0.3-0.165,0.643-0.281,0.891-0.502
		c0.978-0.873,1.863-1.859,2.899-2.653C42.778,23.313,42.917,23.396,43.623,24.904z"/>
	<path fill-rule="evenodd" clip-rule="evenodd" fill="#F6E5A7" d="M43.623,24.904c-0.706-1.508-0.845-1.592-2.217-0.541
		c-1.036,0.793-1.921,1.78-2.899,2.653c-0.248,0.222-0.591,0.338-0.891,0.502c1.635-1.642,3.23-3.329,4.927-4.905
		c0.625-0.58,1.087-0.219,1.083,0.63C43.624,23.797,43.624,24.351,43.623,24.904z"/>
	<path fill-rule="evenodd" clip-rule="evenodd" fill="#1E190F" d="M34.951,59.156c2.05-0.756,3.594-2.044,4.648-4.041
		c-0.262-0.113-0.487-0.21-0.713-0.308c-0.007-0.093-0.014-0.186-0.021-0.277c0.578-0.048,1.282-0.312,1.694-0.072
		c0.311,0.18,0.249,1.004,0.353,1.541c-0.122,0.027-0.243,0.055-0.364,0.082c-0.097-0.208-0.193-0.417-0.358-0.772
		C38.853,57.236,37.331,58.848,34.951,59.156z"/>
	<path fill-rule="evenodd" clip-rule="evenodd" fill="#080B0E" d="M36.225,45.332c-0.201-0.915-0.74-0.863-1.043-0.186
		c-0.426,0.954-0.671,2.002-0.879,3.034c-0.16,0.799-0.144,1.634-0.206,2.453c-0.299-1.995-0.254-3.96,0.683-5.796
		c0.216-0.421,0.67-0.721,1.014-1.077c0.3,0.425,0.698,0.813,0.874,1.285c0.203,0.543,0.208,1.159,0.3,1.744
		c-0.066,0.235-0.131,0.469-0.197,0.702C36.588,46.77,36.406,46.051,36.225,45.332z"/>
	<path fill-rule="evenodd" clip-rule="evenodd" fill="#020904" d="M36.464,48.616c-0.097,1.104-0.194,2.208-0.316,3.596
		c-1.45-1.615-1.53-4.013-0.349-5.231c0.225,0.439,0.43,0.838,0.634,1.237C36.444,48.351,36.454,48.483,36.464,48.616z"/>
	<path fill-rule="evenodd" clip-rule="evenodd" fill="#83C381" d="M36.464,48.616c-0.01-0.133-0.021-0.265-0.031-0.398
		c-0.089-0.528-0.1-1.091-0.305-1.57c-0.091-0.213-0.573-0.259-0.878-0.381c0.324-0.312,0.648-0.623,0.973-0.935
		c0.182,0.72,0.364,1.438,0.546,2.158C36.668,47.866,36.566,48.241,36.464,48.616z"/>
</g>
</svg>
