<?xml version="1.0" encoding="utf-8"?>
<!-- Generator: Adobe Illustrator 16.0.3, SVG Export Plug-In . SVG Version: 6.00 Build 0)  -->
<!DOCTYPE svg PUBLIC "-//W3C//DTD SVG 1.1//EN" "http://www.w3.org/Graphics/SVG/1.1/DTD/svg11.dtd">
<svg version="1.1" id="Calque_1" xmlns="http://www.w3.org/2000/svg" xmlns:xlink="http://www.w3.org/1999/xlink" x="0px" y="0px"
	 width="146.992px" height="149.992px" viewBox="0 0 146.992 149.992" enable-background="new 0 0 146.992 149.992"
	 xml:space="preserve">
<g id="Calque_2">
</g>
<g id="Calque_1_1_">
	<circle fill="#F70000" stroke="#000000" stroke-miterlimit="10" cx="70.151" cy="73.662" r="65.25"/>
	<path fill="#FFFFFF" stroke="#000000" stroke-miterlimit="10" d="M135.402,73.662H4.902c0,36.035,29.213,65.25,65.25,65.25
		C106.188,138.911,135.402,109.696,135.402,73.662z"/>
	<path d="M134.759,62.891c-1.49-1.25-127.278-2.5-129.267,0c-1.989,2.5-1.74,15.999,0,17.249s126.285,1.5,129.267,0
		C137.744,78.64,136.251,64.141,134.759,62.891z"/>
	<g>
		<path fill="#0B0905" d="M98.718,108.905c0.285-0.138,0.479-0.211,0.654-0.313c0.686-0.396,1.348-0.838,2.053-1.192
			c0.594-0.303,1.211-0.549,1.91-0.171c0.232,0.125,0.586,0.016,0.881,0.041c0.166,0.018,0.408,0.047,0.474,0.153
			c0.27,0.449,0.596,0.911,0.682,1.406c0.072,0.408-0.06,0.936-0.285,1.294c-0.756,1.205-1.545,2.398-2.418,3.521
			c-2.342,3.018-4.912,5.821-7.998,8.106c-1.447,1.073-2.914,2.135-4.697,2.603c-1.346,0.352-2.147,0.019-2.83-1.165
			c-1.682,0.236-3.139-0.522-4.737-1.249c-0.154,0.374-0.416,0.719-0.42,1.064c-0.011,1.329-0.332,1.502-1.533,0.801
			c-0.916,0.638-0.963,0.626-1.861-0.404c-1.118,0.491-1.118,0.491-2.009-0.417c-1.276,0.392-1.271,0.386-2.067-0.808
			c-0.099-0.146-0.303-0.243-0.479-0.313c-1.166-0.467-1.185-0.506-0.536-1.646c-2.063,0-4.092,0-6.235,0c0,0.325,0,0.626,0,0.929
			c0,0.421-0.142,0.703-0.631,0.591c-0.443-0.104-0.688,0.014-0.819,0.497c-0.156,0.579-0.404,0.64-0.931,0.341
			c-0.185-0.105-0.364-0.22-0.519-0.314c-0.332,0.449-0.563,1.063-0.95,1.19c-0.339,0.113-0.858-0.319-1.407-0.56
			c-0.116,0.128-0.335,0.368-0.559,0.607c-0.486,0.52-0.821,0.532-1.27-0.021c-0.257-0.318-0.479-0.463-0.887-0.265
			c-0.224,0.109-0.501,0.107-0.752,0.159c-0.667,0.14-0.763,0.065-0.771-0.61c-0.002-0.256,0.003-0.511-0.003-0.767
			c-0.001-0.033-0.04-0.063-0.085-0.129c-2.01,0.408-4.028,1.035-6.159,0.303c-0.041,0.047-0.108,0.112-0.162,0.188
			c-0.974,1.366-2.05,1.682-3.608,1.019c-1.396-0.594-2.495-1.601-3.558-2.645c-2.756-2.703-5.205-5.668-7.474-8.782
			c-0.745-1.023-1.444-2.093-1.624-3.396c-0.084-0.609-0.033-1.169,0.527-1.596c0.22-0.167,0.318-0.679,0.49-0.688
			c0.877-0.051,1.567-0.711,2.417-0.708c0.463,0.001,0.962,0.21,1.379,0.442c0.688,0.389,1.323,0.87,1.982,1.311
			c0.027,0.019,0.069,0.016,0.038,0.009c0.13-1.224,0.188-2.466,0.406-3.679c0.352-1.936,1.454-3.522,2.52-5.13
			c1.278-1.931,2.581-3.855,3.701-5.88c1.523-2.75,2.144-5.774,2.203-8.908c0.004-0.228-0.189-0.504-0.369-0.682
			c-1.305-1.293-2.439-2.705-3.249-4.367c-1.132-2.328-0.938-4.686-0.198-7.063c0.273-0.888,0.489-1.796,0.794-2.675
			c0.74-2.137,0.626-4.334,0.51-6.532c-0.102-1.927-0.214-3.856,0.594-5.675c0.408-0.918,0.925-1.788,1.395-2.682
			c-1.416-0.898-2.926-1.799-4.372-2.787c-7.354-5.021-13.264-11.41-17.826-19.041c-0.738-1.234-1.288-2.582-1.896-3.892
			c-0.164-0.353-0.261-0.751-0.309-1.14c-0.078-0.646,0.115-0.903,0.75-0.822c1.368,0.177,2.761,0.32,4.077,0.705
			c5.536,1.619,10.423,4.469,14.854,8.115c4.42,3.636,7.895,8.057,10.653,13.117c4.017-2.617,8.468-3.582,13.199-3.625
			c4.707-0.043,9.236,0.608,13.523,2.867c0.154-0.184,0.347-0.4,0.527-0.625c4.334-5.345,9.449-9.771,15.522-13.029
			c3.652-1.959,7.464-3.58,11.599-4.237c1.119-0.179,2.274-0.153,3.416-0.19c0.24-0.007,0.483,0.127,0.848,0.23
			c-0.256,0.719-0.436,1.408-0.736,2.04c-2.797,5.876-6.854,10.719-11.997,14.688c-3.625,2.797-7.578,5.041-11.644,7.114
			c-0.104,0.054-0.209,0.108-0.369,0.192c0.453,0.678,0.902,1.345,1.361,2.033c2.252-1.08,4.482-2.187,6.742-3.23
			c7.098-3.283,14.315-6.244,21.903-8.223c1.281-0.334,2.589-0.58,3.886-0.849c0.646-0.133,0.754-0.007,0.703,0.656
			c-0.525,6.955-1.722,13.796-3.515,20.535c-0.127,0.479-0.297,0.946-0.399,1.429c-0.134,0.622-0.506,0.883-1.113,1.044
			c-6.389,1.691-12.768,3.412-19.152,5.125c-0.055,0.015-0.104,0.046-0.237,0.104c0.147,0.181,0.272,0.341,0.407,0.494
			c3.32,3.734,6.64,7.472,9.957,11.205c0.607,0.683,0.586,0.787-0.258,1.153c-4.063,1.761-8.129,3.522-12.19,5.284
			c-0.216,0.093-0.427,0.196-0.711,0.329c0.526,0.636,1.026,1.239,1.528,1.841c0.545,0.656,1.099,1.306,1.638,1.967
			c0.396,0.487,0.35,0.676-0.234,0.915c-1.715,0.712-3.435,1.415-5.195,2.142c0.603,1.12,1.205,2.207,1.771,3.313
			c0.512,1.004,0.983,2.027,1.463,3.047C99.119,105.568,99.099,107.146,98.718,108.905z M101.347,112.965
			c-0.168,0.133-0.338,0.269-0.506,0.4c-0.021-0.028-0.047-0.058-0.067-0.083c0.153-0.217,0.313-0.438,0.467-0.653
			c1.168-1.182,2.258-2.427,2.983-3.936c0.136-0.273,0.197-0.684,0.084-0.938c-0.067-0.153-0.539-0.126-0.832-0.18
			c-0.352,1.586-1.368,2.627-2.424,3.643c-0.024,0.026-0.119-0.014-0.178-0.022c0.293-0.396,0.604-0.776,0.875-1.186
			c0.408-0.605,0.799-1.225,1.168-1.854c0.074-0.128,0.088-0.412,0.008-0.484c-0.119-0.104-0.364-0.146-0.528-0.104
			c-0.283,0.066-0.578,0.179-0.814,0.346c-2.127,1.486-4.24,2.989-6.361,4.482c-0.332,0.233-0.678,0.447-1.018,0.672
			c-0.045-0.064-0.09-0.131-0.135-0.193c1.225-1.033,2.459-2.056,3.666-3.109c0.194-0.172,0.354-0.465,0.396-0.724
			c0.346-2.1,0.021-4.116-0.922-6.013c-1.127-2.271-2.322-4.502-3.461-6.768c-1.656-3.293-2.935-6.716-3.422-10.394
			c-0.066-0.493-0.113-0.989-0.172-1.513c-0.91,0.72-1.724,1.417-2.595,2.031c-0.873,0.616-1.78,1.186-2.717,1.704
			c-0.932,0.52-1.893,0.998-2.879,1.407c-0.955,0.397-1.916,0.818-2.959,0.949c4.221-1.767,8.182-3.899,11.438-7.395
			c-0.354,0.05-0.582,0.067-0.806,0.112c-2.602,0.522-5.125-1.323-4.938-4.362c0.162-2.652,1.5-4.623,3.826-5.832
			c1.641-0.851,3.336-1.031,4.905,0.539c-0.061-0.326-0.098-0.533-0.139-0.738c-0.338-1.77-0.799-3.524-0.988-5.31
			c-0.233-2.224-0.194-4.476-0.373-6.708c-0.225-2.85-1.176-5.447-2.981-7.697c-0.166-0.209-0.32-0.428-0.48-0.642
			c0.045-0.046,0.088-0.093,0.134-0.138c0.391,0.33,0.776,0.66,1.18,1c4.731-2.342,9.201-5.113,13.221-8.578
			c0.256-0.221,0.48-0.533,0.603-0.848c1.211-3.164,1.854-6.47,2.389-9.798c0.131-0.805,0.191-1.62,0.299-2.545
			c-9.471,2.947-16.668,8.839-22.881,16.127c-0.033,0.041-0.055,0.095-0.084,0.147c0.109,0.121,0.209,0.23,0.309,0.341
			c-0.407-0.054-0.762-0.177-1.1-0.334c-2.166-1.009-4.438-1.739-6.791-2.08c-3.7-0.536-7.423-0.629-11.139-0.045
			c-2.945,0.462-5.741,1.336-8.247,2.999c-0.362,0.24-0.535,0.15-0.75-0.191c-0.706-1.125-1.413-2.25-2.177-3.337
			c-4.479-6.366-10.018-11.544-16.997-15.095c-0.929-0.473-1.878-0.9-2.839-1.359c-0.046,0.152-0.072,0.207-0.075,0.262
			c-0.007,0.18-0.014,0.358-0.005,0.537c0.176,3.687,0.86,7.276,2.083,10.758c0.253,0.721,0.503,1.515,0.99,2.068
			c3.362,3.816,7.212,7.078,11.507,9.813c0.844,0.537,1.71,1.037,2.529,1.533c0.699-0.709,1.333-1.354,1.967-1.998
			c0.058,0.056,0.11,0.109,0.167,0.164c-0.269,0.306-0.536,0.611-0.808,0.916c-2.122,2.379-3.302,5.112-3.104,8.348
			c0.182,2.984,0.131,5.941-0.714,8.845c-0.236,0.817-0.365,1.666-0.571,2.627c0.904-0.62,1.775-0.845,2.706-0.862
			c2.31-0.041,4.753,1.929,5.558,4.484c0.597,1.896,0.4,3.627-1.003,5.146c-0.861,0.931-1.891,1.536-3.21,1.793
			c2.911,2.706,6.214,4.702,9.602,6.581c-3.577-1.399-6.864-3.287-9.876-5.792c-0.009,0.157-0.016,0.229-0.017,0.302
			c-0.07,3.17-0.839,6.169-2.394,8.924c-1.342,2.38-2.792,4.703-4.245,7.02c-1.29,2.05-1.981,4.26-2.039,6.675
			c-0.018,0.718,0.128,1.313,0.76,1.806c0.714,0.559,1.329,1.245,1.969,1.896c0.112,0.112,0.128,0.32,0.188,0.484h0.004
			c-0.425-0.352-0.839-0.719-1.276-1.055c-1.617-1.239-3.23-2.482-4.872-3.689c-0.408-0.3-0.974-0.586-1.416-0.179
			c-0.422,0.39-0.19,0.96,0.075,1.372c0.737,1.145,1.53,2.253,2.302,3.375c0.036,0.036,0.072,0.071,0.108,0.107l0.004,0.004
			c0.22,0.32,0.438,0.646,0.658,0.968c-0.054,0.04-0.105,0.079-0.159,0.12c-0.406-0.439-0.813-0.878-1.218-1.318
			c-0.958-1.343-2.109-2.57-2.474-4.242c-0.974-0.04-1.38,0.393-0.969,1.225c0.563,1.139,1.33,2.179,2.01,3.262
			c0.316,0.435,0.633,0.871,0.949,1.306l-0.026,0.021c-0.386-0.326-0.771-0.651-1.159-0.979c-0.877-1.147-1.905-2.194-2.436-3.59
			c-0.154,1.839,0.946,3.124,1.941,4.456c0.038,0.068,0.067,0.145,0.116,0.204c2.189,2.852,4.548,5.555,7.12,8.067
			c0.993,0.97,2.02,1.916,3.336,2.442c1.479,0.592,2.688-0.017,3.015-1.566c0.132-0.634,0.096-1.3,0.139-1.949
			c0.014-0.225,0.035-0.448,0.053-0.671c0.053,0,0.104,0,0.156,0.001c0.398,0.965,0.256,1.975,0.14,3.033
			c1.912,0.521,3.729,0.075,5.468-0.302c-1.5-2.002-2.994-3.991-4.487-5.982c-0.078-0.139-0.153-0.278-0.235-0.413
			c-1.639-2.677-2.854-5.517-3.32-8.643c-0.099-0.66-0.136-1.331-0.198-1.997c0.076-0.014,0.15-0.025,0.227-0.039
			c0.065,0.212,0.146,0.421,0.193,0.638c0.226,0.982,0.375,1.99,0.677,2.949c1.452,4.625,3.97,8.652,7.032,12.368
			c0.641,0.777,1.574,1.416,1.156,2.771c0.506-0.146,0.893-0.217,1.24-0.373c0.331-0.146,0.605-0.115,0.777,0.171
			c0.384,0.64,0.715,0.436,1.143,0.032c0.777-0.73,0.794-0.711,1.595-0.079c0.087,0.068,0.188,0.117,0.297,0.184
			c0.289-0.377,0.534-0.736,0.82-1.062c0.537-0.604,0.729,0.275,1.205,0.249c0.25-0.439,0.558-0.913,1.241-0.923
			c0.102-0.001,0.268-0.332,0.282-0.521c0.185-2.25,0.369-4.501,0.51-6.756c0.378-6.057-0.059-12.04-1.635-17.919
			c-0.066-0.25-0.077-0.514-0.112-0.771c0.05-0.013,0.1-0.023,0.147-0.034c0.098,0.225,0.229,0.439,0.286,0.677
			c0.519,2.173,1.187,4.327,1.492,6.53c0.374,2.681,0.439,5.403,0.64,8.108c-0.224,2.995-0.446,5.989-0.667,8.95
			c2.151,0,4.302,0,6.479,0c0-0.371,0.031-0.669-0.008-0.957c-0.092-0.687-0.27-1.367-0.319-2.056
			c-0.143-1.938-0.235-3.875-0.351-5.813c0.032-0.232,0.073-0.468,0.096-0.702c0.201-2.131,0.339-4.271,0.613-6.391
			c0.363-2.801,1.109-5.51,2.264-8.097c0.125-0.28,0.306-0.537,0.459-0.807c0.058,0.028,0.113,0.058,0.171,0.084
			c-0.111,0.375-0.219,0.751-0.336,1.122c-0.217,0.681-0.459,1.353-0.658,2.036c-0.959,3.285-1.448,6.655-1.805,10.051
			c-0.326,3.107-0.389,6.217,0.146,9.31c0.227,1.308,0.555,2.606-0.658,3.684c0.271,0.172,0.495,0.295,0.698,0.449
			c0.242,0.182,0.542,0.345,0.681,0.592c0.479,0.854,0.452,0.852,1.432,0.563c0.167-0.051,0.457,0.021,0.576,0.146
			c0.78,0.821,0.521,0.748,1.481,0.209c0.101-0.054,0.199-0.104,0.295-0.155c0.285,0.341,0.547,0.648,0.853,1.014
			c0.557-0.625,1.151-0.671,1.809-0.161c0.051-0.243,0.105-0.374,0.1-0.5c-0.039-0.573,0.203-1.009,0.543-1.457
			c0.808-1.056,1.609-2.12,2.314-3.243c3.043-4.858,5.559-9.953,6.709-15.63c0.057-0.279,0.197-0.542,0.299-0.813
			c0.056,0.019,0.109,0.034,0.166,0.053c-0.021,0.373-0.02,0.749-0.067,1.118c-0.283,2.09-0.791,4.13-1.621,6.065
			c-0.879,2.055-1.857,4.064-2.795,6.095c-1.336,2.052-2.672,4.103-4.017,6.168c0.416,0.218,0.832,0.515,1.295,0.658
			c0.767,0.239,1.558,0.4,2.345,0.556c0.319,0.061,0.489-0.093,0.596-0.466c0.182-0.641,0.492-1.24,0.768-1.852
			c0.041-0.096,0.173-0.152,0.261-0.228c-0.095,0.624-0.338,1.158-0.494,1.72c-0.367,1.314,0.393,2.154,1.717,1.825
			c0.758-0.188,1.512-0.493,2.186-0.888c3.814-2.228,6.91-5.271,9.697-8.657c0.963-1.18,1.941-2.345,2.879-3.542
			c0.299-0.385,0.515-0.846,0.699-1.296c0.088-0.208,0.016-0.48,0.016-0.726c-0.061-0.009-0.121-0.017-0.184-0.023
			C103.941,110.31,102.582,111.585,101.347,112.965z M97.896,92.221c-0.367-0.507-0.736-1.014-1.16-1.599
			c4.446-2.038,8.84-4.053,13.305-6.099c-3.604-4.146-7.156-8.23-10.779-12.398c0.316-0.118,0.49-0.197,0.674-0.248
			c6.402-1.783,12.804-3.583,19.22-5.318c0.723-0.195,0.959-0.554,1.131-1.188c1.598-5.883,2.717-11.854,3.328-17.919
			c0.104-1.021,0.186-2.043,0.289-3.175c-11.437,2.365-21.859,7.121-32.234,12.099c0.791,2.367,1.012,4.772,1.002,7.192
			c-0.014,2.658,0.359,5.236,1.107,7.793c0.905,3.096,1.188,6.205-0.625,9.184c1.803,1.199,3.573,2.378,5.434,3.616
			c-0.272,0.181-0.44,0.304-0.623,0.41c-2.049,1.205-4.094,2.414-6.153,3.603c-0.306,0.176-0.449,0.343-0.32,0.694
			c0.631,1.725,1.256,3.451,1.883,5.177c0.518,1.082,1.037,2.165,1.586,3.307c1.41-0.634,2.744-1.229,4.074-1.835
			c0.354-0.16,0.701-0.347,1.133-0.561C99.378,94.011,98.638,93.116,97.896,92.221z M55.577,77.648
			c-0.157-1.976-1.249-3.885-3.479-5.053c-1.354-0.709-2.722-0.576-4.028,0.168c-0.249,0.141-0.579,0.359-0.626,0.592
			c-0.146,0.711-0.27,1.455-0.224,2.174c0.184,2.89,1.708,5.09,3.764,6.983c0.136,0.126,0.394,0.221,0.57,0.188
			C53.292,82.404,55.625,80.48,55.577,77.648z M93.632,75.617c-0.008-1.318-0.313-1.896-1.287-2.455
			c-0.752-0.432-1.563-0.439-2.362-0.26c-2.572,0.576-4.697,3.38-4.707,6.163c-0.011,2.21,0.92,3.405,2.926,3.738
			c0.969,0.161,1.891-0.057,2.773-0.452c0.102-0.045,0.198-0.13,0.268-0.22C92.683,80.198,93.601,78.068,93.632,75.617z
			 M97.658,84.139c-1.662-1.022-3.238-1.996-4.762-2.936c-0.699,0.82-1.371,1.598-2.027,2.388c-0.104,0.125-0.209,0.316-0.191,0.462
			c0.146,1.271,0.322,2.536,0.504,3.909C93.394,86.656,95.479,85.424,97.658,84.139z"/>
		<path fill="#FDD824" d="M87.017,115.358c0.937-2.029,1.914-4.04,2.796-6.095c0.829-1.937,1.338-3.977,1.62-6.065
			c0.05-0.369,0.045-0.745,0.066-1.118c-0.055-0.019-0.109-0.035-0.166-0.053c-0.1,0.271-0.242,0.532-0.299,0.813
			c-1.15,5.677-3.666,10.771-6.709,15.63c-0.703,1.123-1.506,2.188-2.313,3.243c-0.342,0.448-0.582,0.884-0.545,1.457
			c0.008,0.126-0.049,0.257-0.1,0.5c-0.654-0.511-1.25-0.464-1.81,0.161c-0.305-0.364-0.563-0.673-0.852-1.014
			c-0.096,0.052-0.195,0.103-0.295,0.155c-0.959,0.539-0.7,0.612-1.481-0.209c-0.117-0.125-0.406-0.195-0.574-0.146
			c-0.979,0.289-0.952,0.291-1.433-0.563c-0.139-0.247-0.438-0.409-0.681-0.592c-0.203-0.153-0.428-0.274-0.698-0.449
			c1.213-1.073,0.885-2.375,0.658-3.684c-0.536-3.092-0.474-6.2-0.147-9.31c0.356-3.396,0.847-6.766,1.806-10.051
			c0.199-0.685,0.44-1.354,0.658-2.035c0.118-0.371,0.225-0.748,0.337-1.123c-0.059-0.026-0.114-0.056-0.173-0.082
			c-0.152,0.268-0.334,0.523-0.459,0.805c-1.151,2.587-1.897,5.296-2.263,8.097c-0.273,2.12-0.413,4.259-0.614,6.392
			c-0.021,0.233-0.063,0.469-0.095,0.701c-1.709-0.162-3.417-0.397-5.136-0.123c-0.199-2.705-0.267-5.43-0.64-8.109
			c-0.308-2.204-0.975-4.357-1.492-6.53c-0.058-0.234-0.188-0.452-0.286-0.677c-0.049,0.011-0.099,0.021-0.147,0.034
			c0.036,0.257,0.046,0.521,0.112,0.771c1.576,5.879,2.013,11.863,1.635,17.919c-0.141,2.254-0.325,4.505-0.51,6.756
			c-0.016,0.189-0.182,0.521-0.282,0.521c-0.685,0.011-0.99,0.483-1.241,0.923c-0.476,0.026-0.668-0.852-1.204-0.249
			c-0.288,0.324-0.533,0.687-0.821,1.063c-0.107-0.065-0.21-0.115-0.297-0.185c-0.8-0.633-0.816-0.649-1.595,0.079
			c-0.427,0.401-0.759,0.606-1.143-0.032c-0.171-0.286-0.446-0.317-0.778-0.171c-0.349,0.156-0.733,0.228-1.238,0.373
			c0.417-1.354-0.518-1.993-1.157-2.771c-3.063-3.716-5.58-7.744-7.032-12.369c-0.301-0.959-0.451-1.966-0.677-2.949
			c-0.049-0.216-0.127-0.425-0.193-0.638c-0.076,0.014-0.149,0.024-0.227,0.04c0.063,0.666,0.101,1.336,0.199,1.997
			c0.465,3.126,1.683,5.965,3.319,8.642c0.083,0.135,0.157,0.274,0.235,0.413c-0.711,0.463-1.436,0.907-2.128,1.395
			c-0.913,0.646-1.223,0.635-2.011-0.164c-1.672-1.688-3.28-3.457-5.378-4.636c-0.829-0.466-1.77-0.737-2.657-1.099l-0.004-0.004
			c-0.036-0.036-0.072-0.071-0.108-0.107c-0.771-1.122-1.564-2.229-2.302-3.375c-0.268-0.412-0.497-0.981-0.075-1.372
			c0.442-0.407,1.008-0.122,1.416,0.18c1.641,1.207,3.255,2.449,4.872,3.688c0.438,0.336,0.852,0.703,1.277,1.055
			c0.025-0.012,0.053-0.023,0.078-0.037c0-0.002-0.002-0.002-0.002-0.003c-0.025,0.015-0.054,0.026-0.08,0.04
			c-0.062-0.164-0.075-0.372-0.188-0.484c-0.639-0.649-1.254-1.336-1.969-1.896c-0.631-0.492-0.776-1.088-0.76-1.806
			c0.058-2.416,0.75-4.625,2.039-6.675c1.453-2.315,2.902-4.64,4.245-7.02c1.555-2.754,2.322-5.754,2.394-8.924
			c0.001-0.072,0.008-0.144,0.017-0.302c3.012,2.505,6.299,4.393,9.876,5.792c-3.388-1.878-6.688-3.875-9.602-6.581
			c1.319-0.257,2.349-0.862,3.21-1.793c1.403-1.52,1.6-3.251,1.003-5.146c-0.805-2.556-3.248-4.525-5.558-4.484
			c-0.931,0.019-1.802,0.242-2.706,0.863c0.206-0.961,0.334-1.811,0.571-2.627c0.847-2.904,0.896-5.861,0.714-8.846
			c-0.196-3.234,0.982-5.969,3.104-8.348c0.271-0.305,0.539-0.61,0.808-0.916c-0.056-0.055-0.109-0.108-0.167-0.163
			c-0.634,0.644-1.269,1.288-1.967,1.997c-0.819-0.495-1.687-0.996-2.53-1.533c-4.293-2.732-8.144-5.996-11.506-9.813
			c-0.486-0.554-0.737-1.348-0.99-2.067c-1.222-3.481-1.906-7.072-2.083-10.759c-0.009-0.178-0.003-0.357,0.005-0.536
			c0.004-0.056,0.029-0.11,0.074-0.263c0.962,0.459,1.911,0.888,2.84,1.359c6.979,3.551,12.521,8.729,16.997,15.096
			c0.764,1.086,1.471,2.211,2.177,3.336c0.214,0.342,0.388,0.433,0.75,0.191c2.506-1.663,5.302-2.537,8.247-2.999
			c3.716-0.584,7.438-0.491,11.139,0.045c2.354,0.341,4.625,1.072,6.791,2.08c0.338,0.157,0.69,0.28,1.1,0.334
			c-0.1-0.11-0.196-0.219-0.309-0.341c0.028-0.053,0.051-0.105,0.084-0.146c6.213-7.291,13.41-13.181,22.881-16.127
			c-0.105,0.924-0.168,1.739-0.299,2.545c-0.535,3.328-1.177,6.633-2.388,9.797c-0.12,0.313-0.348,0.625-0.604,0.848
			c-4.021,3.465-8.486,6.236-13.221,8.579c-0.4-0.341-0.789-0.671-1.179-1.001c-0.045,0.046-0.09,0.092-0.135,0.138
			c0.16,0.214,0.314,0.433,0.48,0.642c1.809,2.25,2.76,4.848,2.983,7.697c0.176,2.232,0.138,4.483,0.371,6.708
			c0.189,1.784,0.65,3.54,0.988,5.31c0.041,0.205,0.078,0.412,0.139,0.738c-1.57-1.57-3.268-1.39-4.906-0.539
			c-2.325,1.209-3.664,3.178-3.825,5.832c-0.188,3.039,2.336,4.888,4.938,4.362c0.223-0.045,0.451-0.063,0.805-0.112
			c-3.256,3.494-7.217,5.629-11.438,7.395c1.043-0.131,2.004-0.551,2.959-0.949c0.986-0.409,1.947-0.889,2.879-1.407
			c0.936-0.52,1.846-1.088,2.719-1.704c0.869-0.612,1.683-1.313,2.592-2.03c0.06,0.521,0.105,1.019,0.173,1.512
			c0.489,3.678,1.766,7.101,3.422,10.394c1.139,2.266,2.334,4.498,3.461,6.768c0.942,1.896,1.27,3.913,0.922,6.013
			c-0.045,0.259-0.201,0.552-0.396,0.724c-1.207,1.055-2.44,2.076-3.666,3.109c0.045,0.064,0.091,0.129,0.136,0.193
			c0.34-0.225,0.686-0.438,1.018-0.671c2.121-1.495,4.234-2.997,6.361-4.483c0.235-0.167,0.53-0.277,0.813-0.346
			c0.164-0.041,0.412,0,0.529,0.104c0.08,0.072,0.066,0.355-0.008,0.484c-0.369,0.631-0.76,1.249-1.168,1.854
			c-0.271,0.408-0.582,0.791-0.875,1.186c-0.002,0,0.002-0.006,0.002-0.006c-0.078,0.083-0.158,0.164-0.236,0.246
			c-0.154,0.145-0.309,0.291-0.463,0.437c-0.279,0.072-0.563,0.146-0.846,0.217c-2.64,0.665-4.642,2.292-6.438,4.235
			c-0.707,0.763-1.422,1.516-2.141,2.282c-0.576-0.689-1.037-1.4-1.65-1.936C88.486,116.142,87.716,115.79,87.017,115.358z
			 M57.129,61.855c-2.355-0.002-4.166,1.81-4.164,4.172c0.001,2.406,1.685,4.133,4.026,4.135c2.304,0.002,4.112-1.826,4.118-4.162
			C61.114,63.535,59.503,61.855,57.129,61.855z M83.4,69.999c2.366,0.001,4.01-1.626,4.018-3.979c0.008-2.362-1.82-4.24-4.133-4.244
			c-2.31-0.002-3.969,1.691-3.971,4.052C79.31,68.223,81.048,69.998,83.4,69.999z M64.885,90.818
			c0.053,0.145,0.071,0.334,0.173,0.44c0.298,0.315,0.604,0.636,0.953,0.886c0.956,0.685,2.042,0.958,3.208,1.096
			c1.811,0.211,3.505-0.033,5.084-0.936c0.549-0.313,1.112-0.653,1.347-1.213C72.071,91.003,68.513,90.912,64.885,90.818z
			 M78.367,74.277c-0.189,0.145-0.299,0.201-0.371,0.289c-1.117,1.34-2.518,1.377-3.994,0.803c-0.919-0.357-1.802-0.813-2.676-1.273
			c-0.487-0.257-0.901-0.271-1.394-0.011c-0.768,0.407-1.552,0.796-2.358,1.108c-1.525,0.589-2.987,0.533-4.283-0.604
			c-0.104-0.092-0.243-0.146-0.475-0.276c0.742,1.254,1.721,1.807,3.05,1.821c1.624,0.021,3.02-0.575,4.296-1.493
			c0.37-0.265,0.614-0.271,0.989-0.039c1.181,0.727,2.398,1.381,3.791,1.635C76.382,76.495,77.947,75.65,78.367,74.277z
			 M70.684,69.025c-0.178,0-0.366-0.041-0.528,0.01c-0.203,0.063-0.383,0.199-0.574,0.305c0.164,0.178,0.305,0.469,0.495,0.506
			c0.396,0.078,0.829,0.078,1.223-0.006c0.186-0.039,0.311-0.347,0.461-0.533c-0.18-0.095-0.352-0.221-0.543-0.273
			C71.05,68.988,70.861,69.023,70.684,69.025z"/>
		<path fill="#FDD824" d="M93.369,94.045c-0.627-1.727-1.252-3.453-1.883-5.177c-0.129-0.353,0.016-0.52,0.319-0.694
			c2.062-1.188,4.105-2.396,6.154-3.603c0.182-0.106,0.35-0.229,0.623-0.41c-1.857-1.238-3.631-2.417-5.436-3.616
			c1.815-2.979,1.532-6.088,0.625-9.184c-0.746-2.557-1.119-5.135-1.105-7.793c0.01-2.42-0.211-4.826-1.002-7.192
			c10.375-4.978,20.801-9.731,32.232-12.099c-0.103,1.132-0.185,2.154-0.287,3.175c-0.611,6.065-1.73,12.036-3.328,17.919
			c-0.172,0.634-0.408,0.992-1.131,1.188c-6.416,1.735-12.814,3.535-19.22,5.318c-0.184,0.051-0.354,0.13-0.674,0.248
			c3.623,4.168,7.176,8.254,10.779,12.398c-4.465,2.046-8.857,4.061-13.307,6.099c0.426,0.585,0.795,1.092,1.161,1.6
			c-0.063,0.11-0.125,0.224-0.18,0.317c-0.832-0.515-1.645-1.017-2.457-1.521c-0.043,0.036-0.086,0.072-0.127,0.109
			c0.197,0.599,0.396,1.199,0.629,1.906c-0.67-0.379-1.233-0.697-1.797-1.015c-0.008-0.016-0.014-0.029-0.022-0.04
			c-0.007-0.007-0.021-0.003-0.029-0.003c0.02,0.012,0.041,0.022,0.063,0.032c0.226,0.543,0.449,1.084,0.631,1.522
			C94.166,93.715,93.767,93.879,93.369,94.045z"/>
		<path fill="#E3951D" d="M40.489,110.949c0.889,0.359,1.828,0.633,2.658,1.099c2.097,1.178,3.706,2.948,5.378,4.636
			c0.788,0.798,1.097,0.809,2.01,0.164c0.693-0.486,1.417-0.932,2.128-1.395c1.494,1.991,2.988,3.98,4.488,5.984
			c-1.74,0.377-3.557,0.821-5.469,0.3c0.116-1.06,0.261-2.068-0.14-3.033c-0.052-0.001-0.104-0.001-0.156-0.001
			c-0.018,0.224-0.039,0.447-0.053,0.671c-0.043,0.65-0.007,1.316-0.139,1.949c-0.326,1.551-1.535,2.159-3.015,1.566
			c-1.316-0.526-2.344-1.474-3.336-2.442c-2.57-2.514-4.93-5.217-7.12-8.067c-0.049-0.061-0.077-0.136-0.116-0.204
			c0.165-0.288,0.33-0.577,0.493-0.866c0.388,0.327,0.773,0.652,1.16,0.979c0.021,0.023,0.036,0.052,0.059,0.075
			c0.002,0.002,0.027-0.019,0.044-0.028c-0.024-0.021-0.05-0.044-0.075-0.067c-0.315-0.435-0.633-0.869-0.949-1.306
			c0.479-0.081,0.955-0.162,1.434-0.243c0.404,0.439,0.812,0.878,1.217,1.318c0.054-0.041,0.105-0.08,0.16-0.12
			C40.928,111.595,40.709,111.271,40.489,110.949z"/>
		<path fill="#E3951D" d="M87.017,115.358c0.699,0.432,1.472,0.782,2.084,1.313c0.615,0.533,1.076,1.245,1.652,1.936
			c0.717-0.768,1.435-1.521,2.139-2.282c1.8-1.942,3.804-3.57,6.439-4.235c0.283-0.071,0.563-0.145,0.846-0.217
			c0.189,0.091,0.396,0.159,0.563,0.279c0.186,0.133,0.336,0.313,0.5,0.477c-0.154,0.217-0.313,0.438-0.467,0.653
			c0.021,0.025,0.047,0.055,0.067,0.083c0.168-0.133,0.338-0.269,0.506-0.4c0.006,0.411,0.015,0.822,0.021,1.233
			c-2.787,3.386-5.881,6.431-9.697,8.659c-0.674,0.393-1.428,0.698-2.184,0.886c-1.326,0.329-2.086-0.509-1.72-1.825
			c0.156-0.56,0.4-1.096,0.494-1.72c-0.088,0.073-0.219,0.131-0.26,0.228c-0.273,0.61-0.586,1.211-0.768,1.853
			c-0.105,0.374-0.275,0.524-0.597,0.465c-0.787-0.154-1.578-0.315-2.344-0.556c-0.463-0.146-0.879-0.44-1.295-0.658
			C84.345,119.461,85.681,117.411,87.017,115.358z"/>
		<path fill="#FB3210" d="M55.577,77.648c0.048,2.832-2.284,4.756-4.022,5.053c-0.178,0.03-0.436-0.063-0.57-0.188
			c-2.056-1.894-3.58-4.094-3.764-6.983c-0.046-0.719,0.078-1.463,0.224-2.174c0.047-0.232,0.377-0.451,0.626-0.592
			c1.309-0.744,2.676-0.877,4.028-0.168C54.328,73.764,55.42,75.675,55.577,77.648z"/>
		<path fill="#FC3310" d="M93.632,75.617c-0.031,2.452-0.949,4.581-2.393,6.515c-0.066,0.09-0.164,0.175-0.267,0.22
			c-0.885,0.396-1.807,0.613-2.772,0.452c-2.008-0.333-2.937-1.528-2.928-3.738c0.01-2.782,2.137-5.585,4.709-6.163
			c0.801-0.18,1.608-0.172,2.36,0.26C93.318,73.721,93.625,74.299,93.632,75.617z"/>
		<path fill="#E3951D" d="M68.12,110.604c1.72-0.273,3.427-0.037,5.136,0.124c0.113,1.938,0.208,3.88,0.35,5.813
			c0.052,0.689,0.229,1.369,0.32,2.056c0.039,0.288,0.007,0.585,0.007,0.957c-2.178,0-4.327,0-6.479,0
			C67.674,116.593,67.896,113.599,68.12,110.604z"/>
		<path fill="#CD4310" d="M93.369,94.045c0.397-0.166,0.797-0.33,1.236-0.511c-0.183-0.438-0.406-0.979-0.634-1.522l-0.008,0.012
			c0.564,0.314,1.127,0.635,1.797,1.014c-0.231-0.707-0.432-1.307-0.629-1.906c0.041-0.037,0.084-0.073,0.127-0.107
			c0.813,0.502,1.625,1.004,2.457,1.519c0.056-0.096,0.117-0.207,0.181-0.317c0.739,0.896,1.481,1.789,2.266,2.734
			c-0.432,0.214-0.777,0.399-1.133,0.562c-1.33,0.604-2.664,1.2-4.074,1.836C94.406,96.21,93.886,95.127,93.369,94.045z"/>
		<path fill="#F8D323" d="M39.771,110.719c-0.479,0.081-0.955,0.162-1.434,0.243c-0.68-1.083-1.446-2.123-2.01-3.262
			c-0.411-0.832-0.004-1.263,0.969-1.225C37.661,108.147,38.813,109.375,39.771,110.719z"/>
		<path fill="#F6D123" d="M101.24,112.629c-0.164-0.161-0.316-0.343-0.5-0.477c-0.168-0.121-0.373-0.188-0.564-0.279
			c0.154-0.146,0.312-0.292,0.463-0.438c0.078-0.08,0.16-0.161,0.238-0.244l-0.004,0.006c0.061,0.01,0.152,0.051,0.18,0.022
			c1.053-1.016,2.072-2.057,2.424-3.643c0.291,0.054,0.763,0.027,0.83,0.18c0.113,0.253,0.052,0.662-0.082,0.938
			C103.498,110.202,102.408,111.447,101.24,112.629z"/>
		<path fill="#F2CD22" d="M101.365,114.198c-0.006-0.411-0.013-0.822-0.019-1.233c1.232-1.379,2.595-2.655,3.431-4.354
			c0.061,0.009,0.123,0.017,0.184,0.023c0,0.243,0.072,0.518-0.016,0.726c-0.188,0.451-0.402,0.913-0.701,1.296
			C103.308,111.855,102.328,113.02,101.365,114.198z"/>
		<path fill="#F2CD22" d="M38.102,111.31c-0.164,0.289-0.33,0.578-0.492,0.866c-0.995-1.332-2.097-2.616-1.941-4.456
			C36.196,109.114,37.225,110.161,38.102,111.31z"/>
		<path fill="#E3951D" d="M40.376,110.838c0.036,0.036,0.072,0.071,0.108,0.107C40.448,110.909,40.412,110.874,40.376,110.838z"/>
		<path fill="#060502" d="M57.129,61.855c2.374,0,3.985,1.68,3.979,4.145c-0.005,2.336-1.814,4.164-4.118,4.162
			c-2.343-0.002-4.024-1.729-4.026-4.135C52.963,63.665,54.771,61.854,57.129,61.855z M55.257,69.135
			c0.63,0.158,1.261,0.316,1.893,0.475c0.195,0.006,0.395,0.024,0.592,0.017c0.879-0.037,1.479-0.493,1.835-1.276
			c0.249-0.554,0.092-0.818-0.497-0.744c-0.732,0.096-1.45,0.297-2.174,0.451c-0.063,0.09-0.122,0.178-0.198,0.287
			c-0.084-0.695-0.514-0.471-0.896-0.375c-0.015-0.109,0.013-0.27-0.052-0.322c-0.265-0.224-0.533-0.467-0.845-0.602
			c-0.248-0.105-0.561-0.063-0.844-0.086c-0.018,0.275-0.109,0.577-0.031,0.824C54.236,68.4,54.637,68.877,55.257,69.135z
			 M58.385,66.104c1.167,0.004,1.676-0.533,1.688-1.783c0.011-1.139-0.529-1.702-1.643-1.709c-1.152-0.006-1.73,0.559-1.731,1.691
			C56.698,65.529,57.233,66.1,58.385,66.104z"/>
		<path fill="#050502" d="M83.4,69.999c-2.353-0.001-4.091-1.774-4.086-4.173c0.002-2.36,1.661-4.055,3.971-4.051
			c2.313,0.002,4.141,1.881,4.133,4.242C87.41,68.373,85.767,70,83.4,69.999z M84.675,67.958c-0.393-0.283-0.709-0.271-0.846,0.095
			c-0.297-0.033-0.555-0.062-0.814-0.09c-0.518-0.18-1.026-0.404-1.559-0.521c-0.279-0.061-0.599,0.07-0.898,0.113
			c0.052,0.256,0.025,0.562,0.158,0.76c0.541,0.81,1.318,1.209,2.303,1.168c0.589-0.041,1.177-0.08,1.767-0.121
			c0.977-0.25,1.69-1.084,1.68-1.955c-0.004-0.467-0.352-0.77-0.715-0.568c-0.371,0.204-0.689,0.502-1.012,0.782
			C84.669,67.678,84.693,67.842,84.675,67.958z M81.984,66.105c1.207,0,1.739-0.53,1.735-1.729
			c-0.002-1.163-0.604-1.771-1.746-1.768c-0.938,0.005-1.684,0.754-1.688,1.695C80.283,65.49,80.863,66.104,81.984,66.105z"/>
		<path fill="#E5971D" d="M64.885,90.818c3.628,0.094,7.188,0.185,10.766,0.273c-0.233,0.56-0.797,0.899-1.347,1.213
			c-1.58,0.901-3.274,1.146-5.084,0.936c-1.167-0.138-2.253-0.411-3.208-1.094c-0.351-0.25-0.654-0.571-0.953-0.888
			C64.956,91.153,64.938,90.963,64.885,90.818z"/>
		<path fill="#100D02" d="M78.367,74.277c-0.42,1.373-1.985,2.218-3.423,1.957c-1.392-0.252-2.609-0.907-3.791-1.633
			c-0.375-0.231-0.62-0.227-0.989,0.039c-1.276,0.918-2.672,1.512-4.296,1.492c-1.33-0.016-2.308-0.568-3.05-1.822
			c0.229,0.133,0.369,0.187,0.475,0.277c1.296,1.139,2.758,1.193,4.283,0.605c0.809-0.313,1.593-0.702,2.358-1.109
			c0.491-0.26,0.905-0.246,1.394,0.012c0.874,0.459,1.757,0.916,2.676,1.272c1.479,0.573,2.876,0.537,3.993-0.804
			C78.068,74.479,78.177,74.422,78.367,74.277z"/>
		<path fill="#0D0B02" d="M70.684,69.023c0.18,0,0.366-0.037,0.531,0.01c0.192,0.054,0.363,0.179,0.543,0.273
			c-0.15,0.187-0.275,0.494-0.461,0.533c-0.394,0.084-0.827,0.084-1.223,0.006c-0.19-0.037-0.332-0.328-0.495-0.506
			c0.19-0.105,0.371-0.242,0.574-0.305C70.315,68.984,70.506,69.025,70.684,69.023z"/>
		<path fill="#0B0905" d="M100.876,111.19c-0.078,0.083-0.158,0.162-0.236,0.244C100.718,111.354,100.798,111.272,100.876,111.19z"
			/>
		<path fill="#0B0905" d="M45.561,111.014c0.027-0.013,0.056-0.024,0.081-0.04c0,0,0.001,0.001,0.001,0.002
			c-0.024,0.015-0.051,0.025-0.078,0.038H45.561z"/>
		<path fill="#CD4310" d="M93.974,92.012c-0.021-0.01-0.043-0.021-0.063-0.03c0.01,0,0.022-0.006,0.031,0.001
			c0.01,0.01,0.016,0.024,0.021,0.04L93.974,92.012z"/>
		<path fill="#0B0905" d="M39.288,112.268c0.025,0.023,0.051,0.047,0.075,0.067c-0.017,0.011-0.042,0.03-0.044,0.028
			c-0.021-0.023-0.038-0.05-0.059-0.075L39.288,112.268z"/>
		<path fill="#FBFBFB" d="M58.385,66.104c-1.149-0.004-1.687-0.574-1.686-1.801c0.001-1.134,0.58-1.697,1.731-1.691
			c1.111,0.007,1.652,0.57,1.643,1.709C60.061,65.57,59.551,66.107,58.385,66.104z"/>
		<path fill="#4C2500" d="M56.904,68.057c0.725-0.154,1.44-0.355,2.174-0.451c0.588-0.075,0.746,0.19,0.497,0.744
			c-0.354,0.783-0.956,1.239-1.835,1.276c-0.197,0.008-0.396-0.011-0.592-0.017C57.646,68.537,57.636,68.475,56.904,68.057z"/>
		<path fill="#6E4211" d="M56.904,68.057c0.73,0.418,0.742,0.48,0.244,1.553c-0.632-0.157-1.263-0.315-1.893-0.475
			c0.042-0.457-0.207-1.052,0.557-1.167c0.38-0.096,0.811-0.321,0.895,0.375C56.782,68.234,56.843,68.146,56.904,68.057z"/>
		<path fill="#4A2500" d="M55.813,67.969c-0.763,0.115-0.514,0.711-0.556,1.167c-0.62-0.258-1.021-0.733-1.216-1.353
			c-0.078-0.247,0.015-0.549,0.031-0.824c0.283,0.023,0.596-0.021,0.844,0.086c0.313,0.133,0.581,0.377,0.845,0.602
			C55.823,67.699,55.797,67.857,55.813,67.969z"/>
		<path fill="#FAFAFA" d="M81.984,66.105c-1.121-0.002-1.701-0.615-1.697-1.799c0.004-0.942,0.75-1.691,1.688-1.695
			c1.146-0.006,1.744,0.604,1.748,1.767C83.724,65.576,83.191,66.107,81.984,66.105z"/>
		<path fill="#4A2500" d="M83.019,69.48c-0.981,0.041-1.762-0.357-2.303-1.166c-0.133-0.199-0.106-0.504-0.158-0.76
			c0.304-0.045,0.619-0.175,0.898-0.115c0.531,0.117,1.041,0.343,1.559,0.522C82.697,68.469,82.669,68.977,83.019,69.48z"/>
		<path fill="#6F4311" d="M83.019,69.48c-0.35-0.504-0.319-1.012-0.004-1.519c0.263,0.028,0.521,0.058,0.814,0.09
			c0.137-0.366,0.453-0.378,0.846-0.095l-0.006-0.008c0.039,0.072,0.08,0.144,0.121,0.215c0.449,0.402,0.195,0.799-0.008,1.197
			C84.193,69.402,83.607,69.441,83.019,69.48z"/>
		<path fill="#4B2500" d="M84.783,69.361c0.203-0.397,0.457-0.795,0.008-1.197c-0.041-0.071-0.082-0.145-0.121-0.215l0.006,0.008
			c0.021-0.115-0.006-0.279,0.063-0.339c0.319-0.28,0.641-0.578,1.012-0.782c0.363-0.201,0.711,0.104,0.715,0.568
			C86.476,68.275,85.759,69.109,84.783,69.361z"/>
		<path fill="#050502" d="M84.669,67.949c0.039,0.072,0.08,0.144,0.121,0.215C84.75,68.093,84.708,68.021,84.669,67.949z"/>
	</g>
</g>
</svg>
