<?xml version="1.0" encoding="utf-8"?>
<!-- Generator: Adobe Illustrator 16.0.4, SVG Export Plug-In . SVG Version: 6.00 Build 0)  -->
<!DOCTYPE svg PUBLIC "-//W3C//DTD SVG 1.1//EN" "http://www.w3.org/Graphics/SVG/1.1/DTD/svg11.dtd">
<svg version="1.1" id="Calque_2" xmlns="http://www.w3.org/2000/svg" xmlns:xlink="http://www.w3.org/1999/xlink" x="0px" y="0px"
	 width="283.46px" height="283.46px" viewBox="0 0 283.46 283.46" enable-background="new 0 0 283.46 283.46" xml:space="preserve">
<linearGradient id="SVGID_1_" gradientUnits="userSpaceOnUse" x1="277.4341" y1="90.8457" x2="212.5743" y2="-12.9516" gradientTransform="matrix(1 0 0 -1 -106 138.46)">
	<stop  offset="0" style="stop-color:#FFFFFF"/>
	<stop  offset="0.1113" style="stop-color:#0D0C0C"/>
	<stop  offset="0.2346" style="stop-color:#7A7A7A"/>
	<stop  offset="0.4404" style="stop-color:#494949"/>
	<stop  offset="0.5949" style="stop-color:#626262"/>
	<stop  offset="0.717" style="stop-color:#000000"/>
	<stop  offset="0.8412" style="stop-color:#BBBBBB"/>
	<stop  offset="0.9324" style="stop-color:#363636"/>
</linearGradient>
<path fill="url(#SVGID_1_)" d="M45.016,83.789c0,0-5.061-20.92,1.012-33.74c6.073-12.82,16.533-25.305,16.533-25.305
	S73.695,12.597,83.817,9.561s19.906-2.362,19.906-2.362s7.759,3.71,15.183,9.11c7.423,5.399,30.367,24.628,33.74,26.991
	c3.376,2.363,40.487,23.955,40.487,23.955s11.475,7.085,18.22,8.098c6.749,1.012,30.706,17.881,30.706,17.881l5.396,2.362
	l-1.688,20.244l-33.062,65.118l-33.402,13.834c0,0-3.037,2.194-13.835-6.749c-4.061-3.36-17.037-15.519-17.037-15.519
	s-2.871-6.746-8.944-11.807c-6.072-5.061-49.935-42.175-49.935-42.175s-6.716-7.411-13.833-7.423c-0.674,0-12.82-9.784-12.82-9.784
	L45.016,83.789z"/>
<path fill="none" d="M76.057,1.127"/>
<path fill="#3F424B" d="M231.878,161.226c20.368-26.422,27.869-54.787,16.747-63.358c-11.114-8.569-36.637,5.905-57.003,32.325
	c-20.371,26.424-27.869,54.788-16.751,63.358C185.992,202.118,211.51,187.644,231.878,161.226z"/>
<linearGradient id="SVGID_2_" gradientUnits="userSpaceOnUse" x1="301.0933" y1="72.3013" x2="243.1862" y2="-20.3695" gradientTransform="matrix(1 0 0 -1 -106 138.46)">
	<stop  offset="0" style="stop-color:#FFFFFF"/>
	<stop  offset="0.1113" style="stop-color:#0D0C0C"/>
	<stop  offset="0.2346" style="stop-color:#7A7A7A"/>
	<stop  offset="0.4404" style="stop-color:#494949"/>
	<stop  offset="0.5949" style="stop-color:#626262"/>
	<stop  offset="0.717" style="stop-color:#000000"/>
	<stop  offset="0.8412" style="stop-color:#BBBBBB"/>
	<stop  offset="0.9324" style="stop-color:#363636"/>
</linearGradient>
<path opacity="0.4" fill="url(#SVGID_2_)" stroke="#000000" stroke-miterlimit="10" enable-background="new    " d="M139.668,160.38
	c1.332-8.248,9.331-25.411,22.671-46.861c13.337-21.451,48.341-37.621,48.341-37.621l-13.337-5.942c0,0-28.541,7.302-45.005,30.362
	c-13.67,19.141-25.671,49.834-25.671,49.834L139.668,160.38z"/>
<linearGradient id="SVGID_3_" gradientUnits="userSpaceOnUse" x1="224.6108" y1="121.6113" x2="170.8147" y2="35.5196" gradientTransform="matrix(1 0 0 -1 -106 138.46)">
	<stop  offset="0" style="stop-color:#FFFFFF"/>
	<stop  offset="0.1113" style="stop-color:#0D0C0C"/>
	<stop  offset="0.2346" style="stop-color:#7A7A7A"/>
	<stop  offset="0.4404" style="stop-color:#494949"/>
	<stop  offset="0.5949" style="stop-color:#626262"/>
	<stop  offset="0.717" style="stop-color:#000000"/>
	<stop  offset="0.8412" style="stop-color:#BBBBBB"/>
	<stop  offset="0.9324" style="stop-color:#363636"/>
</linearGradient>
<path opacity="0.5" fill="url(#SVGID_3_)" stroke="#000000" stroke-miterlimit="10" enable-background="new    " d="M74.122,108.755
	c0,0-7.333-28.384,12.996-53.834c20.329-25.449,44.992-24.795,44.992-24.795l3.667-0.326L123.28,19.766
	c0,0-15.289-0.192-31.496,10.523c-14.993,9.911-30.993,29.082-30.993,68.027C60.79,98.968,74.122,108.755,74.122,108.755z"/>
<path fill="#97824D" d="M125.993,150.93"/>
<linearGradient id="SVGID_4_" gradientUnits="userSpaceOnUse" x1="183.7407" y1="-64.6802" x2="205.3346" y2="-74.7495" gradientTransform="matrix(1 0 0 -1 -106 138.46)">
	<stop  offset="0" style="stop-color:#97824D"/>
	<stop  offset="0.0797" style="stop-color:#937E4B"/>
	<stop  offset="0.1647" style="stop-color:#867344"/>
	<stop  offset="0.2522" style="stop-color:#716139"/>
	<stop  offset="0.3415" style="stop-color:#53472A"/>
	<stop  offset="0.4311" style="stop-color:#2D2617"/>
	<stop  offset="0.5185" style="stop-color:#000000"/>
	<stop  offset="0.54" style="stop-color:#1A170D"/>
	<stop  offset="0.5728" style="stop-color:#3C331E"/>
	<stop  offset="0.6094" style="stop-color:#584C2D"/>
	<stop  offset="0.65" style="stop-color:#6F6039"/>
	<stop  offset="0.6965" style="stop-color:#816F42"/>
	<stop  offset="0.7524" style="stop-color:#8E7A48"/>
	<stop  offset="0.8272" style="stop-color:#95804C"/>
	<stop  offset="1" style="stop-color:#97824D"/>
</linearGradient>
<polygon fill="url(#SVGID_4_)" points="110.134,135.411 49.064,264.636 60.198,277.794 70.32,275.43 125.993,148.906 "/>
<linearGradient id="SVGID_5_" gradientUnits="userSpaceOnUse" x1="257.937" y1="98.9922" x2="279.2937" y2="89.0335" gradientTransform="matrix(1 0 0 -1 -106 138.46)">
	<stop  offset="0" style="stop-color:#97824D"/>
	<stop  offset="0.0797" style="stop-color:#937E4B"/>
	<stop  offset="0.1647" style="stop-color:#867344"/>
	<stop  offset="0.2522" style="stop-color:#716139"/>
	<stop  offset="0.3415" style="stop-color:#53472A"/>
	<stop  offset="0.4311" style="stop-color:#2D2617"/>
	<stop  offset="0.5185" style="stop-color:#000000"/>
	<stop  offset="0.54" style="stop-color:#1A170D"/>
	<stop  offset="0.5728" style="stop-color:#3C331E"/>
	<stop  offset="0.6094" style="stop-color:#584C2D"/>
	<stop  offset="0.65" style="stop-color:#6F6039"/>
	<stop  offset="0.6965" style="stop-color:#816F42"/>
	<stop  offset="0.7524" style="stop-color:#8E7A48"/>
	<stop  offset="0.8272" style="stop-color:#95804C"/>
	<stop  offset="1" style="stop-color:#97824D"/>
</linearGradient>
<polygon fill="url(#SVGID_5_)" points="170.528,54.099 174.577,46.676 162.094,38.242 152.645,38.578 150.621,42.291 "/>
</svg>
