<?xml version="1.0" encoding="utf-8"?>
<!-- Generator: Adobe Illustrator 16.0.3, SVG Export Plug-In . SVG Version: 6.00 Build 0)  -->
<!DOCTYPE svg PUBLIC "-//W3C//DTD SVG 1.1//EN" "http://www.w3.org/Graphics/SVG/1.1/DTD/svg11.dtd">
<svg version="1.1" id="Calque_1" xmlns="http://www.w3.org/2000/svg" xmlns:xlink="http://www.w3.org/1999/xlink" x="0px" y="0px"
	 width="298.485px" height="298.485px" viewBox="0 0 298.485 298.485" enable-background="new 0 0 298.485 298.485"
	 xml:space="preserve">
<circle fill="#2C97DF" stroke="#231F20" stroke-miterlimit="10" cx="150.086" cy="148.859" r="145.408"/>
<polygon fill="#FFFFFF" stroke="#231F20" stroke-miterlimit="10" points="91.413,95.288 133.25,31.063 180.189,31.104 
	217.944,96.308 179.168,95.288 169.985,75.981 142.433,76.92 128.148,95.288 "/>
<polygon fill="#2C97DF" stroke="#231F20" stroke-miterlimit="10" points="144.474,60.594 156.719,44.267 165.882,60.614 "/>
<path fill="#FFDBB7" stroke="#231F20" stroke-width="3" stroke-miterlimit="10" d="M65.903,265.9
	c-17.347-14.286,6.954-65.47,6.954-65.47l77.833,16.447l77.837-16.448c0,0,26.722,49.685,9.376,63.971c0,0-52.5,33.5-92,30
	C89.903,291.4,65.903,265.9,65.903,265.9z"/>
<line fill="none" stroke="#231F20" stroke-width="3" stroke-miterlimit="10" x1="151.637" y1="163.43" x2="151.637" y2="215.471"/>
<path fill="#FFDBB7" stroke="#231F20" stroke-width="3" stroke-miterlimit="10" d="M-52.597,174.4"/>
<path fill="#FFDBB7" stroke="#231F20" stroke-width="3" stroke-miterlimit="10" d="M-127.597,80.9"/>
<path fill="#2C97DF" stroke="#231F20" stroke-width="3" stroke-miterlimit="10" d="M125.295,274.751
	c0.16,10.493,13.048,18.805,28.786,18.564c15.739-0.238,28.367-8.938,28.208-19.431s-11.243,1.171-26.981,1.411
	C139.569,275.536,125.136,264.26,125.295,274.751z"/>
<polygon fill="#2C97DF" stroke="#231F20" stroke-width="3" stroke-miterlimit="10" points="62.556,241.918 129.231,271.536 
	130.392,285.9 61.558,257.278 "/>
<polygon fill="#2C97DF" stroke="#231F20" stroke-width="3" stroke-miterlimit="10" points="242.891,243.4 177.937,269.996 
	176.403,283.804 243.403,258.232 "/>
<path fill="#FFDBB7" stroke="#231F20" stroke-width="3" stroke-miterlimit="10" d="M96.029,155.885
	c-2.139,2.456-5.281,4.015-8.793,4.015c-6.443,0-11.667-5.223-11.667-11.667c0-1.777,0.409-3.455,1.119-4.961L51.617,126.92
	c0,0-10.827,34.775-1.021,43.877s71.429,2.041,71.429,2.041L96.029,155.885z"/>
<path fill="#FFDBB7" stroke="#231F20" stroke-width="3" stroke-miterlimit="10" d="M209.151,153.885
	c2.139,2.456,5.28,4.015,8.793,4.015c6.443,0,11.667-5.223,11.667-11.667c0-1.777-0.41-3.455-1.119-4.961l25.071-16.352
	c0,0,10.827,34.775,1.021,43.877s-71.429,2.041-71.429,2.041L209.151,153.885z"/>
</svg>
