<?xml version="1.0" encoding="utf-8"?>
<!-- Generator: Adobe Illustrator 16.0.3, SVG Export Plug-In . SVG Version: 6.00 Build 0)  -->
<!DOCTYPE svg PUBLIC "-//W3C//DTD SVG 1.1//EN" "http://www.w3.org/Graphics/SVG/1.1/DTD/svg11.dtd">
<svg version="1.1" id="Calque_2" xmlns="http://www.w3.org/2000/svg" xmlns:xlink="http://www.w3.org/1999/xlink" x="0px" y="0px"
	 width="136px" height="134.5px" viewBox="0 0 136 134.5" enable-background="new 0 0 136 134.5" xml:space="preserve">
<circle fill="#C52233" cx="67.323" cy="68.1" r="65.25"/>
<path fill="#C52233" stroke="#000000" stroke-width="0.7" stroke-miterlimit="10" d="M62.167,36.833c0,0,8.833-21.5,28.833-20.167
	c0,3-0.833,6.667-0.833,6.667S102.333,32,103.5,36c-4.333-0.833-5.5,1-5.5,1s19.666,11.167,22.333,12.833
	c-3,2.667-4.166,3.333-4.166,3.333l5.5,2.5c0,0-6.666,8.5-17,7.5s-48.333-6.833-48.333-6.833L62.167,36.833z"/>
<path fill="#FFF7C8" stroke="#000000" stroke-width="0.6" stroke-miterlimit="10" d="M98.167,47.167c0,0,17.167,0.667,16-18.667
	c-2-6.167,17.166,26.334-9.167,32.833s-8.667-1.5-8.667-1.5L98.167,47.167z"/>
<rect x="30.563" y="70.833" fill="#FFFFFF" width="56.563" height="29.792"/>
<path fill="#924727" stroke="#000000" stroke-width="0.5" stroke-miterlimit="10" d="M91.667,47.333c0,0,4-1.334,6.5-0.167
	s4.666,13.5,6.833,14.167s-3.333,4.833-3.333,4.833S83.334,54.167,91.667,47.333z"/>
<path fill="#8AC239" stroke="#000000" stroke-width="0.6" stroke-miterlimit="10" d="M94.333,61c0,0,1.334-18-16-23.167
	C60.833,37,56.833,36.5,50.5,44S84.166,69.166,94.333,61z"/>
<path d="M30.008,79.453c0,0,2.551,7.213,4.391,6.899c1.742-0.299,2.324-7.642,2.324-7.642s-0.353,2.718,0.258,2.967
	c1.118,0.459,3.357-3.857,3.357-3.857s0.452,0.297,1.033,1.188c0.581,0.89,2.583-2.672,2.583-2.672l0.172-2.67
	c0,0,5.51,6.825,9.9,7.716c4.391,0.89-1.808,12.167,3.357,8.605c5.165-3.561,4.132-6.528,4.648-8.902
	c4.391-0.594,4.391-0.594,4.391-0.594s-0.258,7.122,2.066,5.638c2.324-1.483,3.357-5.044,4.649-5.638
	c1.291-0.594,1.549,2.968,4.132,1.187c2.582-1.78,4.391-7.122,4.391-7.122l0.258,14.541c0,0-3.229-6.231-4.648-5.044
	c-1.421,1.187-2.841,12.908-2.841,12.908s-1.033-2.67-4.132-5.49C67.971,91.769,67.455,98,67.455,98l-4.132-1.188
	c0,0-2.066-8.605-3.616-7.418c-1.549,1.187-2.066,4.154-2.066,4.154s-15.302-4.08-19.434-2.004c0,0-6.585,1.039-7.425,1.707
	C29.943,93.919,29.427,79.972,30.008,79.453"/>
<path fill="#FEECA0" stroke="#000000" stroke-miterlimit="10" d="M29.5,81.25c0,0-19.5-18-1.25-30.75c0,0,7.5-9.25,16-8.5
	c9.75,1.25,9.25,5.5,9.25,5.5s12.25,2.5,21,11.75c7.547-0.815,16.75-2,17.835,0.065C125.25,75.25,97.25,98.25,93,96.75
	C85.5,105,81.25,107,79.75,107.5c-5.25,13-13,8.5-18.25,9.75c-13,2-17-2.5-17-2.5S14.25,122,30.75,93c24.75-5.5,32,5,32,5
	s7.5,4,17.75-7.5C81.75,90,80,77.25,80,77.25S55,90,43,75.5C41.75,81.75,29.5,81.25,29.5,81.25z"/>
<path fill="#FFFFFF" stroke="#000000" stroke-miterlimit="10" d="M69.333,54.333L80.167,55L81,48c0,0-0.334-1.5-3.667-1.667
	s-12.5,5-12.5,5L69.333,54.333z"/>
<path fill="#C52233" d="M75.833,51.167c-1.381,0-2.5,1.119-2.5,2.5c0,0.327,0.067,0.638,0.182,0.924l4.498,0.277
	c0.198-0.358,0.32-0.763,0.32-1.201C78.333,52.286,77.214,51.167,75.833,51.167z"/>
<circle fill="#FFFFFF" cx="74.25" cy="52.416" r="0.802"/>
<circle cx="76.251" cy="53.583" r="0.917"/>
<path fill="#FFF7C8" stroke="#000000" stroke-width="0.6" stroke-miterlimit="10" d="M58.833,37.5c0,0-3.667-12.5-2.667-13
	s-8.5,8-5.833,14.5s4.333,4.5,4.333,4.5L58.833,37.5z"/>
<path fill="#C52233" stroke="#000000" stroke-width="0.64" stroke-miterlimit="10" d="M53.667,43.5c0,0,2.667-10.667-1.5-11.333
	s-9.667,9-9.667,9S50.333,42.5,51.333,44S53.667,43.5,53.667,43.5z"/>
<path fill="#C52233" stroke="#000000" stroke-width="0.5" stroke-miterlimit="10" d="M58.667,48.167c0,0,25.5-23.5,33.667-10.667
	c4.334,12.5-0.833,8,1.167,9.167s-3.667-1.833-3.667-1.833l0.334,4.833L84.833,47c0,0,1,3,1,3.5s-4.666-10-21,0.833
	C64,51.5,58.667,48.167,58.667,48.167z"/>
<path fill="#8AC239" d="M93.667,59.333"/>
<path fill="none" stroke="#000000" stroke-width="0.5" stroke-miterlimit="10" d="M43,45c0,0,3.333-2.333,7.333,1.167"/>
<path fill="none" stroke="#000000" stroke-width="0.3" stroke-miterlimit="10" d="M42.833,74.5c0,0-8.833-20.833,10.667-27"/>
<path fill="none" stroke="#000000" stroke-width="0.3" stroke-miterlimit="10" d="M28.25,50.5c0,0-0.083,16,14.75,25"/>
</svg>
