<?xml version="1.0" encoding="utf-8"?>
<!-- Generator: Adobe Illustrator 16.0.4, SVG Export Plug-In . SVG Version: 6.00 Build 0)  -->
<!DOCTYPE svg PUBLIC "-//W3C//DTD SVG 1.1//EN" "http://www.w3.org/Graphics/SVG/1.1/DTD/svg11.dtd">
<svg version="1.1" id="Calque_2" xmlns="http://www.w3.org/2000/svg" xmlns:xlink="http://www.w3.org/1999/xlink" x="0px" y="0px"
	 width="283.46px" height="283.46px" viewBox="0 0 283.46 283.46" enable-background="new 0 0 283.46 283.46" xml:space="preserve">
<g>
	<path fill="#FF0000" d="M127,151.46h95.338c0.42-3.36,0.662-6.775,0.662-10.25c0-45.149-36.601-81.75-81.75-81.75
		c-4.864,0-9.62,0.449-14.25,1.264V151.46z"/>
	<path fill="#FF0000" d="M127,168.46l-0.122,53.215c4.668,0.828,9.466,1.285,14.372,1.285c35.498,0,65.699-22.631,76.994-54.247
		C198.898,168.89,127,168.46,127,168.46z"/>
	<path fill="#FF0000" d="M60.192,151.46H88V79.21c-17.44,14.992-28.5,37.198-28.5,62c0,3.508,0.246,6.957,0.675,10.349
		C60.188,151.514,60.195,151.479,60.192,151.46z"/>
	<path fill="#FF0000" d="M87.5,168.46H64.241c-0.02-0.055-0.062-0.1-0.118-0.141c4.726,13.444,12.863,25.271,23.377,34.458V168.46z"
		/>
</g>
</svg>
