<?xml version="1.0" encoding="utf-8"?>
<!-- Generator: Adobe Illustrator 16.0.3, SVG Export Plug-In . SVG Version: 6.00 Build 0)  -->
<!DOCTYPE svg PUBLIC "-//W3C//DTD SVG 1.1//EN" "http://www.w3.org/Graphics/SVG/1.1/DTD/svg11.dtd">
<svg version="1.1" id="Calque_2" xmlns="http://www.w3.org/2000/svg" xmlns:xlink="http://www.w3.org/1999/xlink" x="0px" y="0px"
	 width="135.5px" height="137px" viewBox="0 0 135.5 137" enable-background="new 0 0 135.5 137" xml:space="preserve">
<g id="Calque_3">
	<circle fill="#737570" cx="67.989" cy="68.973" r="65.25"/>
</g>
<linearGradient id="SVGID_1_" gradientUnits="userSpaceOnUse" x1="81.7852" y1="31.4272" x2="56.3105" y2="72.1953">
	<stop  offset="0" style="stop-color:#FFFFFF"/>
	<stop  offset="0.1113" style="stop-color:#0D0C0C"/>
	<stop  offset="0.2346" style="stop-color:#7A7A7A"/>
	<stop  offset="0.4404" style="stop-color:#494949"/>
	<stop  offset="0.5949" style="stop-color:#626262"/>
	<stop  offset="0.717" style="stop-color:#000000"/>
	<stop  offset="0.8412" style="stop-color:#BBBBBB"/>
	<stop  offset="0.9324" style="stop-color:#363636"/>
</linearGradient>
<path fill="url(#SVGID_1_)" d="M32.133,45.634c0,0-1.987-8.216,0.398-13.252s6.493-9.939,6.493-9.939s4.373-4.771,8.349-5.963
	c3.976-1.193,7.819-0.928,7.819-0.928s3.048,1.458,5.963,3.579c2.915,2.12,11.926,9.673,13.252,10.601
	c1.325,0.928,15.902,9.41,15.902,9.41s4.506,2.783,7.156,3.18s12.06,7.024,12.06,7.024l2.12,0.928l-0.663,7.951L97.996,83.8
	l-13.119,5.434c0,0-1.193,0.861-5.435-2.65c-1.594-1.32-6.691-6.097-6.691-6.097s-1.126-2.649-3.512-4.638
	c-2.386-1.987-19.613-16.564-19.613-16.564s-2.638-2.911-5.434-2.916c-0.265,0-5.036-3.843-5.036-3.843L32.133,45.634z"/>
<path fill="none" d="M44.326,13.167"/>
<path fill="#3F424B" d="M105.527,76.051c7.999-10.38,10.945-21.52,6.578-24.887c-4.365-3.366-14.39,2.319-22.389,12.696
	c-8.003,10.379-10.946,21.519-6.58,24.885C87.504,92.11,97.528,86.425,105.527,76.051z"/>
<linearGradient id="SVGID_2_" gradientUnits="userSpaceOnUse" x1="91.0801" y1="38.709" x2="68.3355" y2="75.108">
	<stop  offset="0" style="stop-color:#FFFFFF"/>
	<stop  offset="0.1113" style="stop-color:#0D0C0C"/>
	<stop  offset="0.2346" style="stop-color:#7A7A7A"/>
	<stop  offset="0.4404" style="stop-color:#494949"/>
	<stop  offset="0.5949" style="stop-color:#626262"/>
	<stop  offset="0.717" style="stop-color:#000000"/>
	<stop  offset="0.8412" style="stop-color:#BBBBBB"/>
	<stop  offset="0.9324" style="stop-color:#363636"/>
</linearGradient>
<path opacity="0.4" fill="url(#SVGID_2_)" stroke="#000000" stroke-miterlimit="10" d="M69.31,75.717
	c0.524-3.239,3.666-9.98,8.905-18.405c5.237-8.426,18.987-14.777,18.987-14.777l-5.238-2.333c0,0-11.21,2.868-17.678,11.925
	c-5.37,7.517-10.083,19.572-10.083,19.572L69.31,75.717z"/>
<linearGradient id="SVGID_3_" gradientUnits="userSpaceOnUse" x1="61.0386" y1="19.3428" x2="39.9093" y2="53.1566">
	<stop  offset="0" style="stop-color:#FFFFFF"/>
	<stop  offset="0.1113" style="stop-color:#0D0C0C"/>
	<stop  offset="0.2346" style="stop-color:#7A7A7A"/>
	<stop  offset="0.4404" style="stop-color:#494949"/>
	<stop  offset="0.5949" style="stop-color:#626262"/>
	<stop  offset="0.717" style="stop-color:#000000"/>
	<stop  offset="0.8412" style="stop-color:#BBBBBB"/>
	<stop  offset="0.9324" style="stop-color:#363636"/>
</linearGradient>
<path opacity="0.5" fill="url(#SVGID_3_)" stroke="#000000" stroke-miterlimit="10" d="M43.565,55.441c0,0-2.88-11.149,5.105-21.145
	c7.985-9.995,17.671-9.739,17.671-9.739l1.439-0.128l-4.908-3.941c0,0-6.005-0.076-12.371,4.132
	c-5.888,3.893-12.173,11.423-12.173,26.719C38.329,51.597,43.565,55.441,43.565,55.441z"/>
<path fill="#97824D" d="M63.938,72.006"/>
<linearGradient id="SVGID_4_" gradientUnits="userSpaceOnUse" x1="44.9858" y1="92.5127" x2="53.4683" y2="96.4681">
	<stop  offset="0" style="stop-color:#97824D"/>
	<stop  offset="0.0797" style="stop-color:#937E4B"/>
	<stop  offset="0.1647" style="stop-color:#867344"/>
	<stop  offset="0.2522" style="stop-color:#716139"/>
	<stop  offset="0.3415" style="stop-color:#53472A"/>
	<stop  offset="0.4311" style="stop-color:#2D2617"/>
	<stop  offset="0.5185" style="stop-color:#000000"/>
	<stop  offset="0.54" style="stop-color:#1A170D"/>
	<stop  offset="0.5728" style="stop-color:#3C331E"/>
	<stop  offset="0.6094" style="stop-color:#584C2D"/>
	<stop  offset="0.65" style="stop-color:#6F6039"/>
	<stop  offset="0.6965" style="stop-color:#816F42"/>
	<stop  offset="0.7524" style="stop-color:#8E7A48"/>
	<stop  offset="0.8272" style="stop-color:#95804C"/>
	<stop  offset="1" style="stop-color:#97824D"/>
</linearGradient>
<polygon fill="url(#SVGID_4_)" points="57.709,65.911 33.724,116.665 38.097,121.834 42.073,120.906 63.938,71.211 "/>
<linearGradient id="SVGID_5_" gradientUnits="userSpaceOnUse" x1="74.1294" y1="28.2266" x2="82.5189" y2="32.1387">
	<stop  offset="0" style="stop-color:#97824D"/>
	<stop  offset="0.0797" style="stop-color:#937E4B"/>
	<stop  offset="0.1647" style="stop-color:#867344"/>
	<stop  offset="0.2522" style="stop-color:#716139"/>
	<stop  offset="0.3415" style="stop-color:#53472A"/>
	<stop  offset="0.4311" style="stop-color:#2D2617"/>
	<stop  offset="0.5185" style="stop-color:#000000"/>
	<stop  offset="0.54" style="stop-color:#1A170D"/>
	<stop  offset="0.5728" style="stop-color:#3C331E"/>
	<stop  offset="0.6094" style="stop-color:#584C2D"/>
	<stop  offset="0.65" style="stop-color:#6F6039"/>
	<stop  offset="0.6965" style="stop-color:#816F42"/>
	<stop  offset="0.7524" style="stop-color:#8E7A48"/>
	<stop  offset="0.8272" style="stop-color:#95804C"/>
	<stop  offset="1" style="stop-color:#97824D"/>
</linearGradient>
<polygon fill="url(#SVGID_5_)" points="81.432,33.974 83.022,31.058 78.118,27.745 74.407,27.877 73.612,29.335 "/>
</svg>
